<?xml version="1.0" encoding="utf-8"?>
<!-- Generator: Adobe Illustrator 15.1.0, SVG Export Plug-In . SVG Version: 6.00 Build 0)  -->
<!DOCTYPE svg PUBLIC "-//W3C//DTD SVG 1.1//EN" "http://www.w3.org/Graphics/SVG/1.1/DTD/svg11.dtd">
<svg version="1.1" id="Layer_1" xmlns="http://www.w3.org/2000/svg" xmlns:xlink="http://www.w3.org/1999/xlink" x="0px" y="0px"
	 width="1000px" height="200px" viewBox="0 71.5 1000 200" enable-background="new 0 71.5 1000 200" xml:space="preserve">
<g>
	<path fill="#FFFFFF" d="M80.348,167.853h13.706l2.233,6.938h10.175l-14.45-39.131h-9.761l-14.446,39.131h10.067L80.348,167.853z
		 M87.062,147.463l4.081,12.006h-8.221L87.062,147.463z"/>
	<polygon fill="#FFFFFF" points="78.366,195.059 68.255,195.059 68.255,191.462 76.24,191.462 76.24,186.502 68.255,186.502 
		68.255,183.222 77.586,183.222 77.586,177.72 62.042,177.72 62.042,200.402 78.366,200.402 	"/>
	<polygon fill="#FFFFFF" points="115.152,153.244 122.417,174.784 132.261,174.784 139.518,153.244 146.687,174.784 
		158.033,174.784 144.829,135.66 135.296,135.66 127.317,158.216 119.438,135.66 109.901,135.66 103.154,155.869 109.098,171.965 	
		"/>
	<polygon fill="#FFFFFF" points="43.75,187.963 53.427,200.402 58.932,200.402 58.932,177.72 52.715,177.72 52.715,189.71 
		43.397,177.72 37.533,177.72 37.533,200.402 43.75,200.402 	"/>
	<g>
		<path fill="#FFFFFF" d="M177.901,185.527v-0.057c0-2.243-0.682-3.988-2.009-5.289c-1.521-1.555-3.917-2.462-7.382-2.462h-10.946
			v22.683h6.281v-6.87h2.983l4.562,6.87h7.25l-5.404-7.907C176.049,191.295,177.901,189,177.901,185.527 M171.457,185.918
			c0,1.648-1.232,2.686-3.363,2.686h-4.377v-5.438h4.343c2.105,0,3.397,0.906,3.397,2.689V185.918z"/>
	</g>
	<polygon fill="#FFFFFF" points="227.271,198.056 228.333,199.688 228.393,199.688 229.468,198.056 229.468,200.365 
		229.885,200.365 229.885,197.324 229.438,197.324 228.369,198.982 227.297,197.324 226.835,197.324 226.835,200.365 
		227.271,200.365 	"/>
	<g>
		<path fill="#FFFFFF" d="M175.271,175.398c8.59,0,13.531-3.72,17.186-8.774l-8.093-5.767c-2.333,2.828-4.714,4.716-8.761,4.716
			c-5.436,0-9.262-4.547-9.262-10.382v-0.106c0-5.664,3.826-10.271,9.262-10.271c3.721,0,6.266,1.776,8.486,4.547l8.096-6.265
			c-3.442-4.779-8.543-8.104-16.47-8.104c-11.757,0-20.459,8.877-20.459,20.199v0.114
			C155.255,166.907,164.186,175.398,175.271,175.398"/>
	</g>
	<polygon fill="#FFFFFF" points="226.17,197.323 223.799,197.323 223.799,197.759 224.772,197.759 224.772,200.367 225.198,200.367 
		225.198,197.759 226.17,197.759 	"/>
	<g>
		<path fill="#FFFFFF" d="M213.864,186.271c-3.139-0.706-3.917-1.165-3.917-2.201v-0.062c0-0.81,0.746-1.461,2.263-1.461
			c2.009,0,4.276,0.772,6.348,2.239l3.139-4.438c-2.461-1.974-5.468-3.015-9.325-3.015c-5.436,0-8.771,3.047-8.771,7.258v0.065
			c0,4.668,3.723,6.027,8.548,7.125c3.079,0.714,3.817,1.236,3.817,2.173v0.062c0,0.976-0.901,1.555-2.588,1.555
			c-2.621,0-5.12-0.938-7.345-2.72l-3.496,4.182c2.78,2.5,6.604,3.756,10.617,3.756c5.503,0,9.16-2.754,9.16-7.383v-0.067
			C222.314,189.093,219.077,187.411,213.864,186.271"/>
	</g>
	<polygon fill="#FFFFFF" points="202.697,177.72 195.252,177.72 187.447,186.922 187.447,177.72 181.172,177.72 181.172,200.402 
		187.447,200.402 187.447,194.537 189.747,191.977 195.446,200.402 202.988,200.402 194.122,187.471 	"/>
	<polygon fill="#FFFFFF" points="94.488,177.72 79.989,177.72 79.989,183.229 85.361,183.229 85.361,200.402 91.635,200.402 
		91.635,183.229 96.318,183.229 	"/>
	<g>
		<path fill="#FFFFFF" d="M155.202,189c0-6.517-5.182-11.73-12.175-11.73c-6.985,0-12.229,5.277-12.229,11.794v0.06
			c0,6.515,5.178,11.731,12.17,11.731c6.993,0,12.234-5.281,12.234-11.791V189z M148.796,189.123c0,3.278-2.301,6.062-5.769,6.062
			c-3.431,0-5.789-2.854-5.789-6.122V189c0-3.271,2.3-6.061,5.729-6.061c3.464,0,5.828,2.846,5.828,6.124V189.123z"/>
	</g>
	<polygon fill="#FFFFFF" points="124.967,177.72 121.133,190.845 116.915,177.72 111.63,177.72 107.405,190.845 103.581,177.72 
		97.139,177.72 104.812,200.402 110.021,200.402 114.197,187.504 118.399,200.402 123.607,200.402 131.282,177.72 	"/>
	<polygon fill="#FFFFFF" points="9.896,105.308 9.896,240.196 30.01,233.233 28.69,229.418 13.864,234.551 13.864,110.928 
		28.69,116.064 30.01,112.242 9.972,105.308 	"/>
	<polygon fill="#FFFFFF" points="991.465,105.308 971.427,112.242 972.746,116.064 987.576,110.928 987.576,234.551 
		972.746,229.418 971.427,233.233 991.614,240.221 991.614,105.308 	"/>
	<g>
		<path fill="#FFFFFF" d="M353.225,132.157c-0.724,0-1.391,0.484-1.391,1.331c0,0.839,0.667,1.327,1.391,1.327
			c0.716,0,1.381-0.488,1.381-1.327C354.606,132.642,353.941,132.157,353.225,132.157 M353.225,134.472
			c-0.521,0-0.939-0.401-0.939-0.983s0.417-0.986,0.939-0.986c0.508,0,0.936,0.404,0.936,0.986S353.733,134.472,353.225,134.472"/>
		<path fill="#FFFFFF" d="M353.829,133.204c0-0.341-0.227-0.434-0.604-0.434h-0.55v1.434h0.348v-0.602h0.096l0.331,0.602h0.337
			l-0.362-0.616C353.673,133.572,353.829,133.469,353.829,133.204 M353.285,133.348h-0.262v-0.328h0.191
			c0.11,0,0.263,0.007,0.263,0.15C353.478,133.324,353.407,133.348,353.285,133.348"/>
		<path fill="#FFFFFF" d="M290.167,151.454c-1.662,0.161-3.921,0.718-3.921,2.671c0,1.441,1.437,2.092,3.468,2.092
			c2.349,0,4.209-1.133,4.714-2.236c0.266-0.555,0.418-1.105,0.418-1.672v-1.035h-1.299
			C292.869,151.271,291.818,151.283,290.167,151.454"/>
		<path fill="#FFFFFF" d="M290.167,151.454c-1.662,0.161-3.921,0.718-3.921,2.671c0,1.441,1.437,2.092,3.468,2.092
			c2.349,0,4.209-1.133,4.714-2.236c0.266-0.555,0.418-1.105,0.418-1.672v-1.035h-1.299
			C292.869,151.271,291.818,151.283,290.167,151.454"/>
		<path fill="#FFFFFF" d="M350.797,132.372h-77.43v35.43h77.43V132.372z M299.112,159.481h-4.088l-0.116-1.439
			c-1.002,0.812-3.58,1.886-6.24,1.886c-4.128,0-6.807-3.129-6.807-5.76c0-5.063,5.262-6.307,11.646-6.307h1.308
			c0,0,0.004-0.349,0.004-0.432c0-0.665-0.336-3.488-3.826-3.488c-2.914,0-3.792,1.292-4.107,2.44h-4.293
			c0-1.431,1.116-6.129,8.334-6.129c6.083,0,8.186,3.256,8.186,9.023V159.481z M317.82,159.481v-13.761l-3.845,13.761h-4.087
			l-3.841-13.761v13.761h-4.436V140.71h6.79c0,0,3.213,12.018,3.529,13.493l3.529-13.493h6.79l0.01,18.771H317.82z M333.419,159.928
			c-5.358,0-9.096-4.243-9.096-9.842c0-5.845,3.759-9.838,9.096-9.838c4.463,0,7.978,3.14,8.871,7.574h-4.275
			c-0.718-2.166-2.45-3.624-4.595-3.624c-2.819,0-4.947,2.538-4.947,5.888c0,3.352,2.127,5.896,4.947,5.896
			c2.155,0,3.899-1.479,4.603-3.674h4.285C341.423,156.766,337.899,159.928,333.419,159.928"/>
	</g>
	<polygon fill="#FFFFFF" points="393.2,161.44 389.336,156.669 387.761,156.669 387.761,168.292 389.425,168.292 389.425,159.247 
		393.041,163.74 393.349,163.74 396.921,159.247 396.921,168.292 398.593,168.292 398.593,156.669 397.036,156.669 	"/>
	<path fill="#FFFFFF" d="M380.286,156.603l-4.991,11.688h1.709l1.453-3.444h4.956l1.549,3.444h1.704l-5.212-11.688H380.286z
		 M379.117,163.366l1.74-4.21l1.874,4.21H379.117z"/>
	<g>
		<path fill="#FFFFFF" d="M412.605,140.695c0.431-0.358,0.65-0.853,0.65-1.486c0-0.565-0.199-1.014-0.597-1.347
			c-0.397-0.33-0.922-0.496-1.569-0.496h-2.032v3.862h1.779C411.584,141.229,412.174,141.051,412.605,140.695"/>
	</g>
	<path fill="#FFFFFF" d="M442.808,156.561h-1.169l-4.993,11.688h1.71l1.453-3.443h4.957l1.547,3.443h1.706L442.808,156.561z
		 M440.468,163.323l1.74-4.211l1.874,4.211H440.468z"/>
	<g>
		<path fill="#FFFFFF" d="M418.755,165.97c-0.644-1.049-1.144-1.783-1.495-2.204c-0.358-0.422-0.718-0.755-1.092-0.997
			c0.634-0.246,1.117-0.612,1.456-1.108c0.339-0.491,0.509-1.078,0.509-1.754c0-0.993-0.348-1.782-1.037-2.363
			c-0.689-0.583-1.625-0.874-2.801-0.874h-2.909v11.623h1.663v-5.059h0.433c0.543,0,0.93,0.063,1.161,0.188
			c0.23,0.123,0.488,0.327,0.774,0.61c0.286,0.282,0.602,0.661,0.945,1.137l0.557,0.908l0.516,0.85l0.322,0.459
			c0.05,0.066,0.085,0.112,0.101,0.142l0.507,0.766h1.979l-0.612-0.834C419.482,167.125,419.159,166.63,418.755,165.97
			 M415.415,161.535c-0.312,0.146-0.893,0.217-1.734,0.217h-0.632v-3.668h0.497c0.817,0,1.4,0.061,1.751,0.182
			c0.355,0.125,0.628,0.334,0.819,0.631c0.195,0.296,0.293,0.626,0.293,0.994c0,0.37-0.088,0.701-0.26,0.992
			C415.972,161.177,415.727,161.392,415.415,161.535"/>
	</g>
	<rect x="421.869" y="156.669" fill="#FFFFFF" width="1.661" height="11.621"/>
	<g>
		<path fill="#FFFFFF" d="M447.455,132.188h-21.74v20.399h21.74V132.188z M443.127,148.492c0,0.08-0.144,0.186-0.24,0.235
			c-1.367,0.668-2.809,1.064-4.325,1.195c-1.652,0.144-3.264-0.046-4.805-0.649c-2.28-0.894-3.764-2.541-4.449-4.892
			c-1.022-3.521,0.838-7.389,4.56-8.805c2.368-0.897,4.758-0.846,7.153-0.13c0.602,0.179,1.396,0.462,1.99,0.676v2.692
			c-0.11-0.049-0.187-0.08-0.258-0.118c-1.34-0.71-2.747-1.239-4.258-1.424c-2.075-0.256-3.957,0.172-5.461,1.719
			c-0.811,0.832-1.175,1.882-1.271,3.025c-0.141,1.682,0.414,3.104,1.669,4.224c0.904,0.811,2.019,1.152,3.205,1.312
			c2.073,0.278,3.938-0.338,5.727-1.301c0.243-0.13,0.479-0.27,0.774-0.438C443.138,146.739,443.145,147.614,443.127,148.492"/>
		<path fill="#FFFFFF" d="M428.828,165.662c-0.866-0.82-1.298-1.87-1.298-3.146c0-1.264,0.438-2.314,1.319-3.156
			c0.879-0.839,1.981-1.258,3.315-1.258c1.295,0,2.626,0.389,3.984,1.164v-1.788c-1.494-0.639-2.849-0.957-4.068-0.957
			c-1.769,0-3.259,0.576-4.463,1.73c-1.207,1.152-1.809,2.574-1.809,4.265c0,1.065,0.264,2.056,0.789,2.971
			c0.525,0.914,1.241,1.634,2.146,2.154c0.904,0.523,2.006,0.781,3.302,0.781c1.598,0,3.007-0.331,4.229-0.996v-1.831
			c-1.342,0.864-2.717,1.299-4.128,1.299C430.799,166.894,429.695,166.481,428.828,165.662"/>
		<path fill="#FFFFFF" d="M422.543,132.188h-21.737v20.399h21.737V132.188z M416.682,147.854c-0.416,0.639-0.991,1.12-1.726,1.439
			c-0.739,0.323-1.603,0.482-2.602,0.482h-5.877v-14.617h5.113c1.342,0,2.432,0.351,3.276,1.047
			c0.842,0.698,1.266,1.568,1.266,2.615c0,0.669-0.178,1.26-0.527,1.77c-0.354,0.508-0.862,0.912-1.533,1.214v0.123
			c1.016,0.231,1.811,0.688,2.379,1.367c0.567,0.68,0.852,1.475,0.852,2.39C417.303,146.495,417.097,147.217,416.682,147.854"/>
		<path fill="#FFFFFF" d="M413.667,143.974c-0.483-0.358-1.136-0.539-1.953-0.539h-2.655v4.135h2.438
			c0.955,0,1.679-0.182,2.166-0.54c0.489-0.359,0.731-0.888,0.731-1.586C414.395,144.823,414.153,144.332,413.667,143.974"/>
		<path fill="#FFFFFF" d="M397.367,132.188H375.63v20.399h21.737V132.188z M391.617,147.854c-0.413,0.639-0.989,1.12-1.726,1.439
			c-0.736,0.323-1.602,0.482-2.6,0.482h-5.876v-14.617h5.113c1.339,0,2.431,0.351,3.274,1.047c0.844,0.698,1.268,1.568,1.268,2.615
			c0,0.669-0.178,1.26-0.53,1.77c-0.352,0.508-0.862,0.912-1.534,1.214v0.123c1.019,0.231,1.811,0.688,2.383,1.367
			c0.568,0.68,0.852,1.475,0.852,2.39C392.241,146.495,392.031,147.217,391.617,147.854"/>
		<path fill="#FFFFFF" d="M388.605,143.974c-0.486-0.358-1.136-0.539-1.951-0.539h-2.657v4.135h2.437
			c0.955,0,1.679-0.182,2.165-0.54c0.489-0.359,0.733-0.888,0.733-1.586C389.331,144.823,389.089,144.332,388.605,143.974"/>
		<path fill="#FFFFFF" d="M387.542,140.695c0.432-0.358,0.648-0.853,0.648-1.486c0-0.565-0.196-1.014-0.597-1.347
			c-0.394-0.33-0.919-0.496-1.566-0.496h-2.032v3.862h1.78C386.521,141.229,387.11,141.051,387.542,140.695"/>
	</g>
	<polygon fill="#FFFFFF" points="403.362,163.184 408.12,163.184 408.12,161.694 403.362,161.694 403.362,158.152 408.287,158.152 
		408.287,156.669 401.697,156.669 401.697,168.273 408.444,168.273 408.444,166.794 403.362,166.794 	"/>
	<g>
		<path fill="#FFFFFF" d="M524.171,134.555c0.543,0,0.973-0.443,0.973-0.978v-0.007c0-0.536-0.427-0.977-0.973-0.977
			c-0.544,0-0.977,0.446-0.977,0.983v0.004C523.194,134.114,523.62,134.555,524.171,134.555 M523.307,133.577
			c0-0.479,0.378-0.881,0.864-0.881c0.487,0,0.863,0.395,0.863,0.874v0.007c0,0.474-0.377,0.871-0.863,0.871
			c-0.494,0-0.864-0.391-0.864-0.867V133.577z"/>
		<path fill="#FFFFFF" d="M524.031,133.765h0.128l0.206,0.31h0.341l-0.254-0.357c0.13-0.05,0.212-0.164,0.212-0.324
			c0-0.243-0.178-0.354-0.427-0.354h-0.497v1.035h0.291V133.765z M524.031,133.289h0.187c0.102,0,0.156,0.044,0.156,0.124
			c0,0.074-0.055,0.122-0.156,0.122h-0.187V133.289z"/>
		<path fill="#FFFFFF" d="M521.81,148.388c0,0-0.007,0-0.011-0.006c-0.05-0.035-0.106-0.071-0.164-0.094
			c-0.17-0.057-6.388-1.893-6.494-1.93c-0.319-0.102-0.575-0.017-0.773,0.264l-0.007,0.01c-0.835,1.182-1.641,1.754-2.777,1.979
			c0.034-0.323,0.082-0.576,0.082-0.576c0.329-1.965,1.884-3.545,3.554-3.871c1.009-0.2,1.751-0.059,2.411,0.393
			c0.008,0.007,0.416,0.331,0.416,0.331c0.085,0.076,0.272,0.197,0.503,0.016l6.491-5.146c0.077-0.064,0.125-0.156,0.125-0.259
			c0-0.078-0.026-0.143-0.062-0.198l-0.062-0.078c-0.554-0.743-2.485-2.206-4.719-3.898c-0.241-0.183-0.482-0.367-0.729-0.56
			c-1.006-0.843-2.215-1.465-3.523-1.812c-1.592-0.427-3.313-0.457-5.113-0.104c-3.459,0.679-6.364,2.364-8.406,4.872
			c-0.249,0.303-0.481,0.619-0.701,0.947l-3.584-2.827h-0.003c-0.105-0.083-0.242-0.132-0.388-0.132
			c-0.042,0-0.088,0.006-0.127,0.012l-15.073,2.472c-0.319,0.051-0.555,0.327-0.555,0.647v2.172l-2.638-2.084
			c-0.111-0.095-0.254-0.14-0.409-0.14c-0.035,0-0.076,0.005-0.106,0.005c-0.007,0-7.871,1.29-7.871,1.29
			c-0.015,0.002-0.025,0.009-0.036,0.009c-0.302,0.071-0.519,0.334-0.519,0.642v22.297c0.011,0.191,0.098,0.362,0.23,0.476
			l4.204,3.34c0.062,0.045,0.132,0.074,0.213,0.074c0.021,0,9.904-1.62,9.904-1.62c0.159-0.035,0.28-0.17,0.28-0.341v-1.357
			l1.605,1.282c0.12,0.087,0.248,0.067,0.248,0.067l7.752-1.271c0.159-0.022,0.286-0.162,0.286-0.337v-4.344
			c0.005-0.073,0.054-0.133,0.129-0.159l6.996-1.148c0.162-0.023,0.286-0.162,0.286-0.332v-1.733c2.671,2.593,6.55,4.383,6.55,4.383
			c1.896,0.902,4.224,1.142,6.776,0.638c4.613-0.923,8.227-4.31,10.041-7.832h0.001c0.049-0.082,0.082-0.165,0.126-0.248
			c0.095-0.188,0.261-0.509,0.083-0.653L521.81,148.388z M479.416,161.723c0,0.164-0.116,0.306-0.276,0.336l-7.861,1.288
			c-0.021,0.004-0.05,0.008-0.071,0.008c-0.185,0-0.334-0.146-0.341-0.327v-22.291c0-0.166,0.117-0.309,0.28-0.335l7.876-1.292
			c0.018-0.004,0.036-0.004,0.056-0.004c0.189,0,0.338,0.151,0.338,0.34V161.723z M498.226,143.252c0,0.173-0.129,0.308-0.293,0.336
			l-6.979,1.146l0.007,0.004c-0.092,0-0.179,0.077-0.179,0.171v2.919c0,0.091,0.087,0.17,0.179,0.17v0.001
			c0,0,5.88-0.957,5.907-0.957c0.188,0,0.341,0.146,0.341,0.337v6.77c0,0.173-0.126,0.313-0.283,0.339l-5.972,0.975l0.007,0.006
			c-0.083,0-0.157,0.056-0.168,0.139v4.265c0,0.172-0.139,0.32-0.312,0.336c0,0-7.651,1.252-7.693,1.252
			c-0.186,0-0.342-0.151-0.342-0.338v-22.283c0-0.168,0.124-0.308,0.284-0.334l15.084-2.469c0.022-0.009,0.046-0.009,0.07-0.009
			c0.191,0,0.342,0.153,0.342,0.34V143.252z M521.525,149.302c-1.793,3.56-5.339,6.887-9.995,7.813
			c-6.572,1.311-11.608-2.3-11.769-9.588v-0.064c-0.157-7.712,4.538-12.977,11.285-14.315c4.308-0.854,7.751,0.674,9.669,3.259
			c0.242,0.329,0.213,0.511,0.031,0.667c-0.191,0.157-5.77,4.795-5.996,4.977c-0.229,0.18-0.423,0.054-0.498-0.011
			c-0.771-0.717-1.604-0.97-2.826-0.733c-1.981,0.391-3.683,2.563-3.618,4.703v0.042c0.057,2.203,1.857,3.268,3.835,2.871
			c1.378-0.271,2.208-1.018,2.979-2.105c0.058-0.083,0.152-0.245,0.43-0.158c0.271,0.087,6.192,1.828,6.48,1.928
			C521.827,148.696,521.625,149.098,521.525,149.302"/>
		<path fill="#FFFFFF" d="M749.933,134.157c-0.667,0-1.226,0.57-1.226,1.248c0,0.69,0.559,1.251,1.247,1.251
			c0.675,0,1.242-0.561,1.242-1.229C751.196,134.709,750.65,134.157,749.933,134.157 M749.961,136.478
			c-0.583,0-1.051-0.474-1.051-1.072c0-0.578,0.468-1.063,1.026-1.063h0.018c0.567,0,1.04,0.479,1.04,1.056
			C750.994,135.996,750.535,136.478,749.961,136.478"/>
		<path fill="#FFFFFF" d="M750.078,135.525l0.018-0.005c0.171-0.05,0.291-0.215,0.291-0.397c0-0.143-0.077-0.277-0.188-0.35
			c-0.103-0.062-0.213-0.084-0.404-0.084h-0.185c-0.074,0-0.104,0.029-0.104,0.102v1.234c0,0.077,0.029,0.104,0.1,0.104h0.071
			c0.075,0,0.104-0.026,0.104-0.098l0.002-0.473l0.389,0.521c0.031,0.043,0.043,0.05,0.096,0.05h0.109
			c0.044,0,0.083-0.035,0.083-0.078c0-0.019-0.012-0.042-0.029-0.07L750.078,135.525z M749.826,135.327h-0.046v-0.394h0.054
			c0.19,0,0.287,0.067,0.287,0.194C750.121,135.257,750.02,135.327,749.826,135.327"/>
		<path fill="#FFFFFF" d="M711.024,159.008h4.625c1.08,0,1.12-0.038,1.307-1.119L719.3,144.1l2.351,13.789
			c0.186,1.081,0.221,1.119,1.3,1.119h4.627c0.97,0,1.156-0.113,1.266-0.746l4.586-22.725c0.071-0.373,0.107-0.558,0.107-0.671
			c0-0.521-0.296-0.707-1.229-0.707h-4.4c-1.08,0-1.117,0.035-1.304,1.117l-1.861,14.291c0,0-1.175-7.233-1.541-9.446
			c-0.369-2.214-0.809-4.882-0.809-4.882c-0.184-1.045-0.222-1.08-1.303-1.08h-3.576c-1.079,0-1.115,0.035-1.303,1.08
			c0,0-0.438,2.668-0.807,4.882c-0.37,2.213-1.54,9.446-1.54,9.446L712,135.276c-0.186-1.082-0.225-1.117-1.307-1.117h-4.4
			c-0.93,0-1.228,0.186-1.228,0.707c0,0.113,0.036,0.298,0.112,0.671l4.581,22.725C709.873,158.895,710.057,159.008,711.024,159.008
			"/>
		<path fill="#FFFFFF" d="M745.995,160.269h-37.913c-1.121,0-1.23,0.112-1.23,1.229V165c0,1.119,0.109,1.228,1.23,1.228h37.913
			c1.118,0,1.229-0.108,1.229-1.228v-3.502C747.224,160.381,747.113,160.269,745.995,160.269 M746.356,162.208l-0.89,3.088
			c-0.058,0.201-0.086,0.225-0.289,0.225h-0.664c-0.205,0-0.233-0.023-0.29-0.225l-0.71-2.458h-0.719v2.458
			c0,0.201-0.018,0.225-0.223,0.225h-0.586c-0.206,0-0.224-0.023-0.224-0.225v-2.458h-0.562c-0.203,0-0.224-0.021-0.224-0.226
			v-0.404c0-0.203,0.021-0.223,0.224-0.223h0.562v-0.772c0-0.205,0.018-0.224,0.224-0.224h0.586c0.205,0,0.223,0.019,0.223,0.224
			v0.772h1.305c0.202,0,0.229,0.02,0.275,0.223l0.47,1.955l0.471-1.955c0.047-0.203,0.074-0.223,0.278-0.223h0.604
			C746.402,161.985,746.417,162.005,746.356,162.208"/>
		<path fill="#FFFFFF" d="M745.995,134.157h-10.024c-1.114,0-1.229,0.112-1.229,1.229v22.391c0,1.122,0.115,1.231,1.229,1.231
			h10.024c1.118,0,1.229-0.109,1.229-1.231v-3.5c0-1.118-0.11-1.231-1.229-1.231h-4.545v-3.798h3.948
			c1.115,0,1.229-0.112,1.229-1.23v-3.166c0-1.12-0.113-1.229-1.229-1.229h-3.948v-3.613h4.545c1.118,0,1.229-0.112,1.229-1.229
			v-3.393C747.224,134.27,747.113,134.157,745.995,134.157"/>
		<path fill="#FFFFFF" d="M605.703,136.059l-4.385,26.73h4.385l0.753-5.971h2.947l0.756,5.971h4.709l-4.353-26.73H605.703z
			 M606.705,153.613l0.898-7.157c0.148-1.006,0.214-1.873,0.332-2.95h0.03c0.105,1.043,0.177,1.944,0.326,2.95l0.865,7.157H606.705z
			"/>
	</g>
	<polygon fill="#FFFFFF" points="648.327,150.557 651.732,150.557 651.732,146.743 648.327,146.743 648.327,140.23 653.211,140.23 
		653.211,136.167 643.69,136.167 643.69,162.789 653.395,162.789 653.395,158.863 648.327,158.863 	"/>
	<g>
		<path fill="#FFFFFF" d="M593.191,136.167h-4.557v26.622h4.557c5.148,0,8.092-2.051,8.092-13.31
			C601.283,138.146,598.442,136.167,593.191,136.167 M593.95,158.869h-0.682v-18.635h0.648c2.332,0,2.621,1.983,2.621,9.245
			C596.538,156.639,596.249,158.869,593.95,158.869"/>
		<path fill="#FFFFFF" d="M636.108,158.868c-1.548,0-1.764-2.553-1.764-9.391c0-6.656,0.175-9.282,1.725-9.282
			c1.151,0,1.546,1.332,1.616,6.119l4.385-0.179c-0.073-7.879-1.765-10.22-6.001-10.22c-4.385,0-6.471,3.558-6.471,13.562
			s2.051,13.564,6.51,13.564c5.025,0,5.889-4.536,6.14-10l-4.382-0.183C637.728,157.824,637.362,158.868,636.108,158.868"/>
		<path fill="#FFFFFF" d="M623.852,144.371c0,1.836,0.039,4.712,0.214,7.301h-0.068c-0.436-2.483-1.048-5.105-1.586-7.378
			l-2.048-8.129h-4.349v26.624h3.987v-8.421c0-1.398-0.038-5.505-0.209-7.228h0.067c0.433,2.589,1.187,4.89,1.836,7.228l2.336,8.421
			h3.807v-26.624h-3.987V144.371z"/>
		<path fill="#FFFFFF" d="M551.362,141.997c0-1.23,0.359-2.054,1.226-2.054c0.969,0,1.509,0.435,1.725,4.247l4.347-0.396
			c-0.323-5.07-1.65-7.878-6.146-7.878c-3.735,0-5.748,2.514-5.748,6.548c0,3.96,2.193,6.299,4.168,8.525
			c1.797,2.016,3.415,3.526,3.415,5.791c0,1.621-0.57,2.374-1.618,2.374c-1.331,0-1.726-1.075-2.082-4.854l-4.313,0.323
			c0.359,4.893,1.261,8.419,6.361,8.419c3.993,0,6.214-2.268,6.214-6.513c0-4.243-2.221-6.331-4.272-8.526
			C552.91,146.136,551.362,144.625,551.362,141.997"/>
		<path fill="#FFFFFF" d="M582.344,144.371c0,1.836,0.035,4.712,0.216,7.301h-0.071c-0.433-2.483-1.048-5.105-1.58-7.378
			l-2.053-8.129h-4.35v26.624h3.988v-8.421c0-1.398-0.029-5.505-0.213-7.228h0.071c0.437,2.589,1.188,4.89,1.835,7.228l2.339,8.421
			h3.807v-26.624h-3.989V144.371z"/>
		<path fill="#FFFFFF" d="M567.859,155.126c0,3.133-0.284,4.03-1.473,4.03c-1.217,0-1.471-0.975-1.471-4.093v-18.896h-4.638v19.175
			c0,4.969,1.435,7.7,5.962,7.7c4.525,0,6.039-2.772,6.039-7.805v-19.07h-4.42V155.126z"/>
	</g>
	<polygon fill="#FFFFFF" points="656.626,140.234 660.108,140.234 660.108,162.79 664.783,162.79 664.783,140.234 668.232,140.234 
		668.232,136.169 656.626,136.169 	"/>
	<polygon fill="#FFFFFF" points="680.98,159.313 681.762,159.313 681.762,162.866 682.174,162.866 682.174,159.313 682.947,159.313 
		682.947,158.939 680.98,158.939 	"/>
	<g>
		<path fill="#FFFFFF" d="M677.54,136.167l-1.438,13.166c-0.213,2.051-0.434,4.46-0.576,6.73h-0.067
			c-0.184-2.271-0.361-4.68-0.581-6.73l-1.47-13.166h-4.674l4.169,26.735h4.822l4.2-26.735H677.54z"/>
		<path fill="#FFFFFF" d="M684.669,162.235h-0.014l-0.742-3.289h-0.519v3.92h0.346v-3.255h0.017c0.028,0.23,0.142,0.745,0.234,1.139
			l0.476,2.116h0.341l0.469-2.071c0.096-0.419,0.217-0.918,0.251-1.187h0.009v3.258h0.38v-3.92h-0.52L684.669,162.235z"/>
		<path fill="#FFFFFF" d="M316.102,198.384c-3.39,0-4.59-3.055-4.59-6.295c0-0.864,0-3.335,1.629-4.907
			c0.462-0.463,1.417-1.177,2.93-1.177c2.897,0,3.947,2.318,4.501,3.613l5.763-2.867c-0.458-0.869-0.888-1.604-1.814-2.563
			c-2.283-2.342-5.43-3.521-8.728-3.521c-7.368,0-11.281,5.963-11.281,11.824c0,5.585,3.512,11.445,11.281,11.445
			c3.121,0,6.225-1.017,8.451-3.21c1.041-1.051,1.562-2.033,2.125-3.084l-5.854-2.836
			C320.263,195.545,319.307,198.384,316.102,198.384"/>
	</g>
	<polygon fill="#FFFFFF" points="285.139,203.297 292.014,203.297 292.014,194.896 301.695,194.896 301.695,190.205 
		292.014,190.205 292.014,186.288 302.372,186.288 302.372,181.47 285.139,181.47 	"/>
	<polygon fill="#FFFFFF" points="330.039,203.297 332.943,203.297 332.943,193.048 343.24,193.048 343.24,190.515 332.943,190.515 
		332.943,184.067 344.007,184.067 344.007,181.467 330.039,181.467 	"/>
	<rect x="346.236" y="188.756" fill="#FFFFFF" width="2.369" height="14.541"/>
	<g>
		<path fill="#FFFFFF" d="M278.321,183.034h3.688c0.161,0,0.342,0.031,0.534,0.087l-0.034-1.646h-9.173v21.821h9.207v-16.4
			c-0.191,0.054-0.373,0.086-0.534,0.086h-3.688c-0.629,0-1.132-0.509-1.132-1.134v-1.684
			C277.189,183.54,277.692,183.034,278.321,183.034"/>
	</g>
	<rect x="346.236" y="181.502" fill="#FFFFFF" width="2.369" height="2.561"/>
	<g>
		<path fill="#FFFFFF" d="M387.324,194.965l-1.389-0.343c-1.913-0.462-3.48-0.893-3.48-2.286c0-0.985,0.954-2.129,2.864-2.129
			c0.741,0,1.853,0.125,2.805,0.867c0.958,0.737,1.018,1.448,1.053,2.345l2.652-0.341c-0.497-3.428-3.455-4.755-6.228-4.755
			c-3.362,0-5.621,1.665-5.621,4.321c0,3.023,2.872,3.671,5.216,4.231l1.385,0.279c1.761,0.332,3.026,0.648,3.026,2.308
			c0,1.581-1.265,2.409-3.423,2.409c-0.987,0-2.066-0.09-2.932-0.828c-1.11-0.957-1.11-2.192-1.081-2.841l-2.769,0.428
			c0.272,2.442,1.689,3.618,2.162,3.96c1.162,0.828,2.859,1.168,4.495,1.168c4.009,0,6.107-2.218,6.107-4.601
			C392.167,196.104,389.053,195.362,387.324,194.965"/>
	</g>
	<rect x="351.834" y="181.502" fill="#FFFFFF" width="2.374" height="21.795"/>
	<g>
		<path fill="#FFFFFF" d="M372.925,188.293c-2.165,0-3.583,1.424-4.844,2.683c-0.681-1.138-1.572-2.683-3.951-2.683
			c-1.073,0-2.585,0.338-4.342,2.406v-1.943h-2.409v14.541h2.409v-8.646c0-1.292,0-2.097,0.947-2.966
			c0.779-0.674,1.793-1.077,2.716-1.077c1.085,0,1.791,0.523,2.126,0.991c0.561,0.739,0.561,1.76,0.561,2.311v9.358h2.404v-8.151
			c0-1.758,0.061-2.442,0.867-3.272c0.707-0.739,1.818-1.236,2.834-1.236c0.521,0,2.067,0.155,2.528,1.83
			c0.121,0.484,0.121,0.981,0.121,2.31v8.521h2.407v-9.107c0-1.453-0.024-2.443-0.397-3.335
			C376.312,189.406,374.708,188.293,372.925,188.293"/>
	</g>
	<polygon fill="#FFFFFF" points="395.987,190.817 395.227,188.752 394.773,188.752 394.773,191.204 395.085,191.204 
		395.085,189.166 395.089,189.166 395.849,191.204 396.132,191.204 396.9,189.166 396.904,189.166 396.904,191.204 397.212,191.204 
		397.212,188.752 396.765,188.752 	"/>
	<polygon fill="#FFFFFF" points="392.543,189.026 393.36,189.026 393.36,191.202 393.683,191.202 393.683,189.026 394.496,189.026 
		394.496,188.754 392.543,188.754 	"/>
	<polygon fill="#FFFFFF" points="911.745,202.671 907.619,197.254 905.837,197.254 905.837,206.054 907.744,206.054 907.744,200.46 
		912.008,206.054 913.656,206.054 913.656,197.254 911.745,197.254 	"/>
	<polygon fill="#FFFFFF" points="900.773,192.889 905.691,178.374 901.644,178.374 899.187,186.774 896.494,178.374 
		893.104,178.374 890.401,186.774 887.944,178.374 883.818,178.374 888.732,192.889 892.07,192.889 894.747,184.638 
		897.439,192.889 	"/>
	<path fill="#FFFFFF" d="M918.662,197.193l-3.771,8.862h1.971l0.806-1.974h3.722l0.805,1.974h2.021l-3.77-8.862H918.662z
		 M918.36,202.372l1.171-2.857l1.166,2.857H918.36z"/>
	<g>
		<path fill="#FFFFFF" d="M899.57,197.103c-2.714,0-4.688,2.048-4.688,4.55v0.024c0,2.504,1.949,4.524,4.662,4.524
			c2.716,0,4.694-2.047,4.694-4.549v-0.024C904.239,199.124,902.286,197.103,899.57,197.103 M902.212,201.677
			c0,1.508-1.079,2.742-2.642,2.742c-1.557,0-2.663-1.258-2.663-2.767v-0.024c0-1.509,1.08-2.741,2.638-2.741
			c1.562,0,2.667,1.257,2.667,2.766V201.677z"/>
		<path fill="#FFFFFF" d="M913.18,193.181c4.474,0,7.833-3.378,7.833-7.547v-0.045c0-4.165-3.315-7.507-7.798-7.507
			c-4.474,0-7.832,3.381-7.832,7.552v0.04C905.383,189.84,908.695,193.181,913.18,193.181 M909.505,185.589
			c0-2.09,1.471-3.877,3.675-3.877c2.211,0,3.726,1.828,3.726,3.922v0.04c0,2.099-1.472,3.877-3.69,3.877
			c-2.193,0-3.71-1.828-3.71-3.917V185.589z"/>
	</g>
	<polygon fill="#FFFFFF" points="838.748,199.037 841.423,199.037 841.423,206.054 843.361,206.054 843.361,199.037 
		846.038,199.037 846.038,197.254 838.748,197.254 	"/>
	<g>
		<path fill="#FFFFFF" d="M935.555,183.373v-0.045c0-1.435-0.44-2.544-1.29-3.374c-0.973-1.003-2.503-1.58-4.726-1.58h-7.017v14.515
			h4.029v-4.398h1.908l2.928,4.398h4.643l-3.461-5.058C934.371,187.062,935.555,185.589,935.555,183.373 M931.429,183.621
			c0,1.056-0.793,1.722-2.154,1.722h-2.808v-3.485h2.788c1.345,0,2.174,0.58,2.174,1.72V183.621z"/>
	</g>
	<polygon fill="#FFFFFF" points="969.681,190.438 968.803,191.799 967.919,190.438 967.538,190.438 967.538,192.925 
		967.888,192.925 967.888,191.018 968.767,192.366 968.818,192.366 969.708,191.018 969.708,192.925 970.049,192.925 
		970.049,190.438 	"/>
	<polygon fill="#FFFFFF" points="965.036,190.78 965.836,190.78 965.836,192.928 966.192,192.928 966.192,190.78 966.985,190.78 
		966.985,190.441 965.036,190.441 	"/>
	<polygon fill="#FFFFFF" points="875.354,192.889 879.376,192.889 879.376,181.893 883.292,181.893 882.121,178.374 
		871.153,178.374 871.153,181.893 875.354,181.893 	"/>
	<polygon fill="#FFFFFF" points="870.112,189.471 863.643,189.471 863.643,187.163 868.756,187.163 868.756,183.991 
		863.643,183.991 863.643,181.893 869.619,181.893 869.619,178.371 859.655,178.371 859.655,192.889 870.112,192.889 	"/>
	<polygon fill="#FFFFFF" points="951.439,178.374 946.671,178.374 941.667,184.265 941.667,178.374 937.645,178.374 
		937.645,192.892 941.667,192.892 941.667,189.136 943.145,187.496 946.79,192.892 951.618,192.892 945.939,184.613 	"/>
	<rect x="891.26" y="197.254" fill="#FFFFFF" width="1.933" height="8.8"/>
	<polygon fill="#FFFFFF" points="927.393,197.253 925.455,197.253 925.455,206.054 931.775,206.054 931.775,204.291 
		927.393,204.291 	"/>
	<g>
		<path fill="#FFFFFF" d="M958.591,183.85c-2.006-0.459-2.508-0.75-2.508-1.41v-0.043c0-0.519,0.479-0.932,1.443-0.932
			c1.291,0,2.747,0.495,4.076,1.429l2.009-2.842c-1.575-1.263-3.506-1.926-5.972-1.926c-3.484,0-5.618,1.947-5.618,4.642v0.045
			c0,2.986,2.379,3.858,5.469,4.562c1.976,0.456,2.446,0.784,2.446,1.381v0.048c0,0.62-0.573,1-1.658,1
			c-1.675,0-3.271-0.607-4.701-1.746l-2.238,2.673c1.778,1.601,4.23,2.41,6.797,2.41c3.522,0,5.872-1.769,5.872-4.729v-0.043
			C964.008,185.655,961.932,184.573,958.591,183.85"/>
	</g>
	<polygon fill="#FFFFFF" points="857.667,178.374 853.684,178.374 853.684,186.044 847.713,178.374 843.961,178.374 
		843.961,192.892 847.939,192.892 847.939,184.929 854.14,192.892 857.667,192.892 	"/>
	<polygon fill="#FFFFFF" points="835.475,202.671 831.351,197.254 829.566,197.254 829.566,206.054 831.476,206.054 831.476,200.46 
		835.735,206.054 837.385,206.054 837.385,197.254 835.475,197.254 	"/>
	<polygon fill="#FFFFFF" points="821.903,178.363 818.366,178.363 815.4,186.723 812.483,178.363 808.943,178.363 806.435,185.855 
		808.643,191.82 810.89,184.882 813.588,192.865 817.241,192.865 819.934,184.882 822.592,192.865 826.8,192.865 	"/>
	<rect x="825.554" y="197.254" fill="#FFFFFF" width="1.936" height="8.8"/>
	<g>
		<path fill="#FFFFFF" d="M836.571,187.703c-0.865,1.049-1.747,1.751-3.256,1.751c-2.012,0-3.433-1.682-3.433-3.847v-0.047
			c0-2.095,1.421-3.802,3.433-3.802c1.383,0,2.326,0.658,3.151,1.689l3.003-2.324c-1.279-1.772-3.167-3.006-6.107-3.006
			c-4.364,0-7.593,3.292-7.593,7.489v0.041c0,4.297,3.31,7.444,7.429,7.444c3.186,0,5.021-1.372,6.377-3.25L836.571,187.703z"/>
	</g>
	<path fill="#FFFFFF" d="M798.685,178.363l-5.361,14.502h3.735l0.916-2.57h5.085l0.835,2.57h3.773l-5.361-14.502H798.685z
		 M798.93,187.192l1.536-4.451l1.513,4.451H798.93z"/>
	<polygon fill="#FFFFFF" points="849.322,202.484 853.47,202.484 853.47,200.762 849.322,200.762 849.322,198.973 854.035,198.973 
		854.035,197.254 847.396,197.254 847.396,206.054 854.099,206.054 854.099,204.332 849.322,204.332 	"/>
	<polygon fill="#FFFFFF" points="870.57,202.671 866.447,197.254 864.662,197.254 864.662,206.054 866.572,206.054 866.572,200.46 
		870.835,206.054 872.483,206.054 872.483,197.254 870.57,197.254 	"/>
	<path fill="#FFFFFF" d="M877.491,197.193l-3.771,8.862h1.974l0.803-1.974h3.722l0.803,1.974h2.026l-3.771-8.862H877.491z
		 M877.189,202.372l1.169-2.857l1.171,2.857H877.189z"/>
	<g>
		<path fill="#FFFFFF" d="M863.039,200.183v-0.024c0-0.831-0.263-1.521-0.752-2.011c-0.579-0.581-1.446-0.894-2.567-0.894h-4.023
			v8.8h1.939v-2.817h1.519l1.886,2.817h2.266l-2.152-3.142C862.272,202.496,863.039,201.601,863.039,200.183 M861.08,200.282
			c0,0.743-0.541,1.245-1.483,1.245h-1.961v-2.526h1.92c0.945,0,1.524,0.43,1.524,1.258V200.282z"/>
	</g>
	<polygon fill="#FFFFFF" points="882.519,199.037 885.196,199.037 885.196,206.054 887.135,206.054 887.135,199.037 
		889.812,199.037 889.812,197.254 882.519,197.254 	"/>
	<g>
		<path fill="#FFFFFF" d="M851.73,132.344h-77.383v35.672h77.383V132.344z M800.078,159.636h-4.083l-0.115-1.452
			c-1.003,0.821-3.585,1.899-6.236,1.899c-4.133,0-6.806-3.146-6.806-5.801c0-5.094,5.259-6.343,11.637-6.343h1.308
			c0,0,0.002-0.349,0.002-0.441c0-0.673-0.332-3.506-3.818-3.506c-2.911,0-3.79,1.301-4.111,2.452h-4.288
			c0-1.436,1.118-6.166,8.328-6.166c6.079,0,8.184,3.278,8.184,9.083V159.636z M818.779,159.636v-13.854l-3.847,13.854h-4.087
			l-3.838-13.854v13.854h-4.433v-18.899h6.783c0,0,3.214,12.096,3.531,13.587l3.528-13.587h6.78l0.008,18.899H818.779z
			 M834.363,160.083c-5.354,0-9.094-4.268-9.094-9.906c0-5.883,3.761-9.902,9.094-9.902c4.46,0,7.975,3.157,8.87,7.624h-4.279
			c-0.714-2.182-2.452-3.651-4.591-3.651c-2.819,0-4.943,2.557-4.943,5.93c0,3.379,2.124,5.936,4.943,5.936
			c2.151,0,3.895-1.49,4.602-3.694h4.275C842.356,156.905,838.841,160.083,834.363,160.083"/>
		<path fill="#FFFFFF" d="M791.135,151.549c-1.661,0.171-3.911,0.724-3.911,2.693c0,1.449,1.43,2.105,3.458,2.105
			c2.35,0,4.212-1.136,4.716-2.252c0.263-0.559,0.42-1.113,0.42-1.675v-1.05h-1.305C793.841,151.37,792.787,151.384,791.135,151.549
			"/>
		<path fill="#FFFFFF" d="M966.942,140.198c-0.863,0-1.562,0.695-1.562,1.558c0,0.865,0.698,1.546,1.562,1.546
			c0.865,0,1.562-0.681,1.562-1.546C968.505,140.894,967.808,140.198,966.942,140.198 M966.942,143.074
			c-0.727,0-1.314-0.596-1.314-1.318c0-0.728,0.588-1.315,1.314-1.315c0.724,0,1.314,0.588,1.314,1.315
			C968.257,142.479,967.666,143.074,966.942,143.074 M967.597,141.385c0-0.377-0.317-0.515-0.648-0.515h-0.615v1.758h0.314v-0.732
			h0.225l0.412,0.732h0.382l-0.47-0.767C967.443,141.804,967.597,141.642,967.597,141.385 M966.647,141.642v-0.503h0.287
			c0.163,0,0.35,0.049,0.35,0.24c0,0.212-0.206,0.263-0.384,0.263H966.647z"/>
		<path fill="#FFFFFF" d="M869.455,143.446c-0.776-1.11-2.041-1.835-3.774-1.835c-1.81,0-3.906,1.086-3.906,3.439
			c0,2.327,1.939,2.921,3.981,3.594c2.588,0.852,5.433,1.682,5.433,5.354c0,3.671-3.077,5.274-5.973,5.274
			c-2.228,0-4.449-0.906-5.767-2.715l1.602-1.188c0.801,1.292,2.275,2.3,4.19,2.3c1.888,0,4.059-1.188,4.059-3.543
			c0-2.559-2.148-3.204-4.474-3.928c-2.43-0.751-4.911-1.811-4.911-5.121c0-3.544,3.153-5.045,5.841-5.045
			c2.455,0,4.297,1.035,5.173,2.227L869.455,143.446z"/>
	</g>
	<polygon fill="#FFFFFF" points="881.351,158.81 879.487,158.81 879.487,142.156 873.361,142.156 873.361,140.499 887.479,140.499 
		887.479,142.156 881.351,142.156 	"/>
	<g>
		<path fill="#FFFFFF" d="M889.727,151.981v-11.48h1.862v11.273c0,2.947,1.271,5.847,4.992,5.847c3.724,0,4.995-2.899,4.995-5.847
			v-11.273h1.856v11.48c0,3.049-1.37,7.291-6.852,7.291C891.102,159.272,889.727,155.03,889.727,151.981"/>
		<path fill="#FFFFFF" d="M907.804,140.499h6.077c4.579,0,9.617,3.051,9.617,9.156c0,6.103-5.038,9.151-9.617,9.151h-6.077V140.499z
			 M909.668,157.154h3.697c5.505,0,8.17-3.727,8.17-7.499c0-3.775-2.665-7.499-8.17-7.499h-3.697V157.154z"/>
	</g>
	<rect x="926.99" y="140.499" fill="#FFFFFF" width="1.863" height="18.308"/>
	<g>
		<path fill="#FFFFFF" d="M941.888,159.273c-5.458,0-9.541-4.061-9.541-9.618c0-5.562,4.083-9.621,9.541-9.621
			s9.542,4.059,9.542,9.621C951.43,155.213,947.346,159.273,941.888,159.273 M941.888,141.663c-4.708,0-7.578,3.727-7.578,7.992
			s2.87,7.965,7.578,7.965s7.578-3.699,7.578-7.965S946.596,141.663,941.888,141.663"/>
		<path fill="#FFFFFF" d="M962.756,143.446c-0.776-1.11-2.041-1.835-3.774-1.835c-1.811,0-3.905,1.086-3.905,3.439
			c0,2.327,1.939,2.921,3.983,3.594c2.585,0.852,5.429,1.682,5.429,5.354c0,3.671-3.077,5.274-5.973,5.274
			c-2.225,0-4.449-0.906-5.769-2.715l1.604-1.188c0.802,1.292,2.276,2.3,4.192,2.3c1.886,0,4.06-1.188,4.06-3.543
			c0-2.559-2.15-3.204-4.475-3.928c-2.431-0.751-4.913-1.811-4.913-5.121c0-3.544,3.154-5.045,5.845-5.045
			c2.454,0,4.29,1.035,5.171,2.227L962.756,143.446z"/>
		<path fill="#FFFFFF" d="M458.336,200.313c-2.319,0-4.084-0.495-5.588-2.02l1.936-1.938c0.968,0.968,2.277,1.291,3.698,1.291
			c1.762,0,2.709-0.667,2.709-1.893c0-0.536-0.152-0.988-0.475-1.292c-0.301-0.276-0.644-0.427-1.356-0.534l-1.847-0.259
			c-1.311-0.193-2.276-0.604-2.966-1.269c-0.731-0.731-1.097-1.718-1.097-3.01c0-2.732,2.02-4.644,5.333-4.644
			c2.105,0,3.633,0.517,4.943,1.785l-1.891,1.868c-0.969-0.924-2.13-1.054-3.142-1.054c-1.591,0-2.365,0.883-2.365,1.937
			c0,0.386,0.13,0.796,0.453,1.096c0.303,0.28,0.794,0.517,1.419,0.603l1.807,0.258c1.396,0.193,2.277,0.58,2.923,1.184
			c0.816,0.774,1.183,1.891,1.183,3.245C464.014,198.635,461.542,200.313,458.336,200.313"/>
		<path fill="#FFFFFF" d="M472.226,200.313c-3.14,0-5.635-2.13-5.635-5.377v-10.061h2.989v9.954c0,1.763,1.033,2.817,2.646,2.817
			s2.663-1.055,2.663-2.817v-9.954h2.969v10.061C477.857,198.184,475.364,200.313,472.226,200.313"/>
	</g>
	<polygon fill="#FFFFFF" points="490.242,200.185 484.178,190.79 484.178,200.185 481.188,200.185 481.188,184.876 483.854,184.876 
		489.916,194.249 489.916,184.876 492.906,184.876 492.906,200.185 	"/>
	<g>
		<path fill="#FFFFFF" d="M506.043,198.723c-1.011,1.011-2.453,1.462-4.044,1.462h-5.522v-15.309h5.522
			c1.591,0,3.033,0.453,4.044,1.462c1.719,1.722,1.546,3.829,1.546,6.129S507.762,197.001,506.043,198.723 M503.956,188.489
			c-0.515-0.625-1.203-0.945-2.236-0.945h-2.258v9.976h2.258c1.033,0,1.722-0.324,2.236-0.947c0.56-0.686,0.646-1.783,0.646-4.105
			C504.602,190.143,504.516,189.179,503.956,188.489"/>
	</g>
	<path fill="#FFFFFF" d="M519.132,200.183l-0.901-2.708h-5.439l-0.924,2.708h-3.118l5.569-15.307h2.343l5.588,15.307H519.132z
		 M515.567,189.391l-1.938,5.568h3.805L515.567,189.391z"/>
	<polygon fill="#FFFFFF" points="533.192,200.185 527.13,190.79 527.13,200.185 524.142,200.185 524.142,184.876 526.81,184.876 
		532.872,194.249 532.872,184.876 535.857,184.876 535.857,200.185 	"/>
	<g>
		<path fill="#FFFFFF" d="M544.542,200.313c-1.634,0-3.008-0.561-4.127-1.679c-0.667-0.664-1.075-1.439-1.246-2.299
			c-0.173-0.857-0.26-2.128-0.26-3.805c0-1.676,0.087-2.946,0.26-3.807c0.171-0.881,0.579-1.634,1.246-2.3
			c1.119-1.118,2.493-1.677,4.127-1.677c2.946,0,5.119,1.719,5.634,4.837h-3.031c-0.323-1.31-1.141-2.171-2.578-2.171
			c-0.817,0-1.463,0.259-1.915,0.796c-0.623,0.664-0.751,1.354-0.751,4.321c0,2.967,0.128,3.653,0.751,4.32
			c0.452,0.538,1.098,0.796,1.915,0.796c1.438,0,2.255-0.861,2.578-2.169h3.031C549.661,198.592,547.467,200.313,544.542,200.313"/>
	</g>
	<polygon fill="#FFFFFF" points="552.755,200.185 552.755,184.876 562.836,184.876 562.836,187.544 555.744,187.544 
		555.744,191.131 561.784,191.131 561.784,193.798 555.744,193.798 555.744,197.517 562.836,197.517 562.836,200.185 	"/>
	<polygon fill="#FFFFFF" points="572.49,186.876 572.49,200.183 571.33,200.183 571.33,184.876 572.49,184.876 581.327,198.142 
		581.327,184.876 582.488,184.876 582.488,200.183 581.327,200.183 	"/>
	<g>
		<path fill="#FFFFFF" d="M595.687,198.744c-1.012,1.009-2.364,1.57-3.826,1.57c-1.463,0-2.817-0.562-3.829-1.57
			c-1.397-1.397-1.417-2.772-1.417-6.213c0-3.462,0.02-4.815,1.417-6.214c1.012-1.01,2.366-1.569,3.829-1.569
			c1.462,0,2.814,0.56,3.826,1.569c1.396,1.398,1.42,2.752,1.42,6.214C597.106,195.972,597.082,197.347,595.687,198.744
			 M594.763,186.963c-0.774-0.775-1.807-1.183-2.902-1.183c-1.099,0-2.131,0.407-2.902,1.183c-1.098,1.095-1.184,2.301-1.184,5.568
			c0,3.267,0.086,4.47,1.184,5.567c0.771,0.775,1.804,1.182,2.902,1.182c1.096,0,2.128-0.406,2.902-1.182
			c1.096-1.098,1.181-2.301,1.181-5.567C595.943,189.264,595.858,188.058,594.763,186.963"/>
	</g>
	<polygon fill="#FFFFFF" points="611.315,200.185 607.703,186.856 604.092,200.185 602.91,200.185 599.081,184.876 600.307,184.876 
		603.533,198.184 607.103,184.876 608.307,184.876 611.875,198.184 615.102,184.876 616.325,184.876 612.496,200.185 	"/>
	<g>
		<polygon fill="#FFFFFF" points="426.062,185.65 426.062,185.648 426.056,185.65 		"/>
		<path fill="#FFFFFF" d="M429.146,175.204c-9.298,0-16.836,7.537-16.836,16.838s7.539,16.837,16.836,16.837
			c9.302,0,16.839-7.536,16.839-16.837S438.448,175.204,429.146,175.204 M421.357,189.42c0.163,0.106,0.29,0.256,0.428,0.396
			c0.627,0.641,1.391,0.971,2.292,0.931c0.49-0.021,0.781-0.244,0.92-0.659c0.16-0.498,0.045-0.828-0.396-1.114
			c-0.306-0.2-0.648-0.32-0.987-0.452c-0.506-0.198-1.008-0.404-1.479-0.684c-1.444-0.861-1.278-2.67-0.208-3.552
			c0.615-0.508,1.324-0.683,2.108-0.632c0.472,0.034,0.944,0.063,1.406,0.195c0.55,0.158,0.583,0.585,0.604,1.161
			c0.006,0.084,0.013,0.626,0.017,0.638c0.018-0.007,0.035-0.027,0.035,0.114c0.002,0.192-0.062,0.175-0.252,0.255
			c-0.184,0.077-0.355-0.06-0.498-0.206c-0.164-0.168-0.321-0.397-0.496-0.557c-0.396-0.365-0.853-0.605-1.405-0.552
			c-0.324,0.031-0.606,0.129-0.738,0.449c-0.146,0.363-0.122,0.706,0.148,1.014c0.181,0.201,0.412,0.331,0.656,0.437
			c0.331,0.144,0.671,0.268,1.008,0.403c0.324,0.128,0.644,0.269,0.949,0.443c1.281,0.727,1.37,2.299,0.528,3.277
			c-0.597,0.694-1.362,1.05-2.276,1.073c-0.819,0.021-1.612-0.092-2.377-0.404c-0.319-0.129-0.488-0.324-0.509-0.683
			c-0.015-0.319-0.064-0.638-0.091-0.959C420.718,189.384,421.112,189.253,421.357,189.42 M437.243,200.435
			c-0.682,0.002-1.368,0-2.052,0c-0.156,0-0.276-0.063-0.312-0.221c-0.036-0.168-0.04-0.34,0.124-0.457
			c0.062-0.048,0.145-0.082,0.223-0.11c0.164-0.065,0.234-0.19,0.23-0.358c-0.003-1.118,0.022-2.237-0.03-3.35
			c-0.036-0.862-0.469-1.228-1.344-1.288c-0.55-0.039-1.088,0.011-1.611,0.195c-0.226,0.078-0.326,0.212-0.325,0.463
			c0.009,1.3,0.007,2.599,0,3.897c0,0.238,0.062,0.41,0.311,0.475c0.21,0.053,0.292,0.199,0.288,0.4
			c0,0.219-0.103,0.348-0.326,0.351c-0.682,0.011-1.367,0.003-2.053,0.003c-0.159,0-0.267-0.071-0.315-0.221
			c-0.058-0.176-0.017-0.333,0.12-0.457c0.036-0.035,0.096-0.06,0.146-0.074c0.294-0.078,0.339-0.292,0.336-0.548
			c-0.006-0.476,0-0.952,0-1.427c0-0.684-0.002-1.37,0-2.053c0-0.295-0.017-0.555-0.411-0.603c-0.177-0.021-0.241-0.214-0.185-0.398
			c0.039-0.142,0.134-0.238,0.252-0.321c0.377-0.268,0.746-0.542,1.127-0.8c0.391-0.264,0.718-0.104,0.755,0.361
			c0.008,0.083,0.011,0.163,0.018,0.309c0.187-0.128,0.311-0.217,0.438-0.296c1.083-0.682,2.184-0.709,3.281-0.048
			c0.671,0.407,1.013,1.028,1.024,1.811c0.016,1.062,0.016,2.123,0.02,3.185c0.004,0.126,0.007,0.251,0,0.379
			c-0.007,0.221,0.063,0.384,0.295,0.44c0.241,0.059,0.292,0.228,0.284,0.443C437.542,200.313,437.456,200.435,437.243,200.435
			 M439.061,182.479l-19.471,19.482c-0.047,0.051-0.111,0.073-0.178,0.073c-0.063,0-0.127-0.022-0.178-0.073
			c-0.096-0.099-0.096-0.255,0-0.355l19.469-19.482c0.1-0.097,0.256-0.097,0.357,0C439.158,182.223,439.158,182.382,439.061,182.479
			"/>
	</g>
	<rect x="245.619" y="124.047" fill="#FFFFFF" width="3.906" height="89.682"/>
	<g>
		<path fill="#FFFFFF" d="M774.319,181.262c-0.669,0-1.226,0.568-1.226,1.249c0,0.689,0.557,1.253,1.25,1.253
			c0.672,0,1.24-0.563,1.24-1.231C775.584,181.813,775.036,181.262,774.319,181.262 M774.352,183.584
			c-0.59,0-1.058-0.478-1.058-1.073c0-0.579,0.468-1.065,1.029-1.065h0.021c0.564,0,1.038,0.479,1.038,1.055
			C775.382,183.1,774.922,183.584,774.352,183.584"/>
		<path fill="#FFFFFF" d="M774.465,182.631l0.019-0.006c0.168-0.049,0.291-0.214,0.291-0.398c0-0.141-0.078-0.276-0.188-0.348
			c-0.103-0.061-0.214-0.082-0.404-0.082h-0.185c-0.076,0-0.104,0.028-0.104,0.1v1.232c0,0.076,0.027,0.105,0.1,0.105h0.07
			c0.072,0,0.103-0.029,0.103-0.101l0.004-0.471l0.387,0.521c0.033,0.044,0.044,0.051,0.098,0.051h0.108
			c0.043,0,0.082-0.036,0.082-0.078c0-0.021-0.011-0.044-0.028-0.069L774.465,182.631z M774.212,182.432h-0.046v-0.392h0.053
			c0.189,0,0.289,0.065,0.289,0.189C774.508,182.361,774.405,182.432,774.212,182.432"/>
		<path fill="#FFFFFF" d="M734.202,186.089c-0.22-0.439-0.347-0.666-0.376-0.682c-0.838-1.662-3.047-2.967-6.639-3.899v0.239h-0.238
			l-0.257-0.239l-4.043-0.012c-0.137,0.116-0.231,0.329-0.192,0.397c-0.082,0.141-0.156,0.265-0.228,0.391
			c-0.067,0.127-0.126,0.258-0.19,0.389c-0.114,0.236-0.231,0.473-0.346,0.712c-0.05,0.109-0.221,0.227-0.256,0.341
			c-0.018,0.053-0.016,0.114-0.021,0.18c-0.104-0.03-0.125,0.044-0.157,0.126c-0.078,0.196-0.178,0.381-0.274,0.58
			c-0.013-0.02-0.041-0.04-0.037-0.05c0.035-0.108,0.078-0.212,0.108-0.319c0.01-0.035,0.001-0.08,0-0.143
			c0.183-0.118,0.246-0.339,0.342-0.539c0.165-0.342,0.323-0.687,0.476-1.035c0.087-0.203,0.155-0.414,0.234-0.629
			c-0.062-0.003-0.099-0.003-0.134-0.004c0.154-0.101,0.318-0.174,0.355-0.37c-0.065-0.01-0.133-0.02-0.198-0.026l-1.426-0.002
			l-0.224,0.067c0.061,0.018,0.138-0.054,0.199-0.009c-0.022,0.053-0.05,0.104-0.064,0.134c-0.105-0.022-0.206-0.043-0.309-0.063
			c0.002-0.002,0.003-0.004,0.004-0.006l-1.095,0.343l-0.493-0.452l-0.227,0.169h-0.239l0.239,0.678v0.24l-0.224,0.227l0.224,2.036
			l-0.254,1.598l0.313,0.467l-0.088,0.231l-0.113,0.478l0.095,0.461l0.014-0.008l0.002,0.241l0.241,0.918l-0.257,0.904l-0.011,5.898
			l-0.021-0.016v1.94l0.171,0.538l0.089,0.507l0.015,0.227l-0.257,0.226l0.229,0.918v0.681l0.255-0.015l0.256,0.24l-0.015,0.229
			l0.766-0.229l1.472,0.229l0.271-0.015l0.495-0.454l0.497,0.469l1.247-0.229l0.497,0.229l2.934-0.043h0.749l0.272-0.213v0.213
			l2.6-1.105v-0.187l0.168-0.116l0.073,0.062c3.217-1.912,4.436-5.688,3.654-11.327
			C734.905,187.964,734.687,187.059,734.202,186.089 M721.748,181.942c-0.001,0.014-0.005,0.028-0.007,0.042
			c-0.094,0.047-0.189,0.095-0.306,0.15c-0.002-0.095-0.007-0.167-0.01-0.274C721.544,181.89,721.647,181.914,721.748,181.942
			 M721.193,181.743c0.024-0.028,0.086-0.031,0.131-0.046c0.012,0.012,0.024,0.024,0.035,0.038
			c-0.028,0.055-0.057,0.108-0.085,0.164c-0.035-0.006-0.074-0.008-0.11-0.013C721.175,181.837,721.168,181.779,721.193,181.743
			 M719.364,184.313c-0.007-0.015-0.011-0.029-0.014-0.043c0.102-0.019,0.173-0.128,0.315-0.014
			C719.566,184.275,719.464,184.294,719.364,184.313 M720.017,184.18c-0.035,0.02-0.127-0.006-0.209,0.038
			c0.049-0.15,0.122-0.188,0.428-0.188C720.163,184.06,720.116,184.143,720.017,184.18 M720.788,182.467
			c0.078,0.021,0.156,0.042,0.257,0.07c-0.058,0.039-0.107,0.072-0.136,0.09c-0.089-0.027-0.164-0.053-0.235-0.075
			C720.671,182.442,720.682,182.436,720.788,182.467 M720.699,185.087c0.032-0.077,0.06-0.151,0.089-0.227
			C720.859,184.964,720.859,184.964,720.699,185.087 M720.889,183.579c-0.022-0.003-0.108,0.005-0.13-0.002
			c0.019-0.113,0.101-0.24,0.121-0.354c0.021,0.004,0.043,0.01,0.064,0.015C720.927,183.353,720.907,183.468,720.889,183.579
			 M728.78,193.628c0,0.971-0.642,1.702-1.924,2.19l-0.089-0.213l-0.242-0.013l-0.993,0.226c-0.771-0.188-1.187-0.493-1.246-0.917
			l-0.016-0.216l0.238-0.225l-0.103-6.958c0.011-0.283,0.877-0.328,2.603-0.143v-0.226l-0.241-0.238h0.241l0.586,0.918l0.6,0.213
			l0.648,0.961L728.78,193.628z"/>
		<path fill="#FFFFFF" d="M700.041,180.84c0.011-0.007,0.018-0.014,0.028-0.023c0.007,0.039,0.014,0.079,0.023,0.123
			c0.062-0.017,0.11-0.026,0.168-0.042c-0.1-0.111-0.188-0.208-0.28-0.304c-0.018-0.021-0.062-0.017-0.093-0.023
			c-0.007,0.036-0.027,0.083-0.011,0.102C699.925,180.735,699.987,180.784,700.041,180.84"/>
		<path fill="#FFFFFF" d="M701.309,180.94c-0.075,0.047-0.149,0.094-0.245,0.151C701.196,181.155,701.23,181.141,701.309,180.94"/>
		<path fill="#FFFFFF" d="M699.533,180.951c0.014-0.023,0.034-0.053,0.07-0.108c-0.114-0.009-0.205-0.016-0.295-0.019
			c0,0.01,0,0.023,0,0.037C699.38,180.891,699.455,180.92,699.533,180.951"/>
		<path fill="#FFFFFF" d="M687.854,190.762c-0.093,0.001-0.109-0.074-0.142-0.129c-0.028-0.055-0.054-0.115-0.082-0.17
			c-0.011,0.005-0.024,0.012-0.036,0.016c0.032,0.094,0.07,0.188,0.104,0.284c-0.125,0.089-0.125,0.089-0.053,0.256
			c0.034-0.078,0.053-0.128,0.076-0.186c0.044,0.072,0.083,0.139,0.125,0.206c0.011,0.015,0.036,0.027,0.058,0.029
			c0.011,0.001,0.031-0.021,0.035-0.035c0-0.065,0.007-0.136-0.007-0.199C687.926,190.805,687.883,190.762,687.854,190.762"/>
		<path fill="#FFFFFF" d="M687.271,189.855c-0.052,0.188,0.034,0.326,0.153,0.445c0.021,0.022,0.071,0.013,0.105,0.021
			c0.005-0.014,0.008-0.021,0.015-0.029C687.332,190.219,687.375,189.995,687.271,189.855"/>
		<path fill="#FFFFFF" d="M688.354,190.408c-0.01-0.001-0.02-0.005-0.03-0.007c-0.007,0.021-0.018,0.04-0.021,0.06
			c-0.018,0.111-0.057,0.188-0.194,0.188c-0.075,0-0.151,0.046-0.228,0.071c0.003,0.017,0.008,0.035,0.014,0.049
			c0.163-0.049,0.33-0.098,0.519-0.153c-0.051-0.039-0.071-0.061-0.086-0.073C688.337,190.496,688.347,190.451,688.354,190.408"/>
		<path fill="#FFFFFF" d="M687.805,191.247c-0.031,0.076-0.053,0.158-0.074,0.238c0,0.005,0.027,0.028,0.035,0.023
			c0.056-0.029,0.114-0.058,0.155-0.102c0.019-0.021-0.007-0.078-0.013-0.134C687.868,191.266,687.805,191.244,687.805,191.247"/>
		<path fill="#FFFFFF" d="M687.964,191.098c0.004,0.148,0.14,0.27,0.258,0.239C688.206,191.167,688.035,191.201,687.964,191.098"/>
		<path fill="#FFFFFF" d="M686.047,191.575c0.007,0.005,0.015,0.012,0.021,0.018c0.039-0.021,0.089-0.041,0.109-0.077
			c0.048-0.077,0.097-0.114,0.188-0.059c-0.037-0.055-0.073-0.108-0.108-0.161C686.182,191.4,686.115,191.486,686.047,191.575"/>
		<path fill="#FFFFFF" d="M688.71,188.087c0.015,0.009,0.028,0.019,0.042,0.028c0.064-0.051,0.136-0.098,0.195-0.154
			c0.019-0.017,0.01-0.057,0.012-0.089c-0.019-0.002-0.043-0.002-0.064-0.006c0.032,0.097-0.057,0.063-0.089,0.092
			C688.768,187.993,688.742,188.042,688.71,188.087"/>
		<path fill="#FFFFFF" d="M686.896,190.702c0.023,0.096-0.026,0.224,0.137,0.239c-0.003-0.068-0.006-0.136-0.01-0.219
			C686.982,190.719,686.941,190.711,686.896,190.702"/>
		<path fill="#FFFFFF" d="M687.744,188.631c-0.112,0.019-0.146,0.129-0.049,0.256C687.715,188.787,687.729,188.709,687.744,188.631"
			/>
		<path fill="#FFFFFF" d="M686.874,190.432c-0.004-0.014-0.025-0.023-0.037-0.035c-0.009,0.015-0.029,0.03-0.026,0.04
			c0.012,0.076,0.03,0.152,0.05,0.227c0.018-0.006,0.032-0.011,0.05-0.015C686.899,190.577,686.888,190.503,686.874,190.432"/>
		<path fill="#FFFFFF" d="M688.388,189.883c-0.008-0.012-0.015-0.021-0.022-0.036c-0.053,0.028-0.11,0.05-0.151,0.085
			c-0.012,0.007,0.015,0.065,0.033,0.127C688.307,189.982,688.348,189.933,688.388,189.883"/>
		<path fill="#FFFFFF" d="M687.771,190.432c0.022-0.038,0.044-0.072,0.071-0.117c-0.038-0.021-0.076-0.041-0.12-0.067
			C687.709,190.322,687.655,190.395,687.771,190.432"/>
		<path fill="#FFFFFF" d="M688.226,191.899c0.012,0.043,0.037,0.081,0.059,0.118c0.006,0.008,0.034,0,0.05-0.002
			c-0.008-0.039-0.011-0.08-0.027-0.117c-0.008-0.021-0.029-0.039-0.055-0.064C688.24,191.862,688.22,191.885,688.226,191.899"/>
		<path fill="#FFFFFF" d="M688.702,191.408c0.061,0.075,0.111,0.132,0.156,0.188C688.844,191.515,688.86,191.402,688.702,191.408"/>
		<path fill="#FFFFFF" d="M648.034,189.225c-3.314-0.67-4.977-1.299-4.977-1.894c0-0.312,0.646-0.595,1.939-0.852
			c2.527,0.427,4.462,1.062,5.802,1.911h0.288v-5.062c-1.634-1.264-4.034-1.896-7.202-1.896c-3.178,0-5.482,1.477-6.916,4.427v1.894
			c0,2.229,1.199,4.053,3.593,5.477c4.059,1.065,6.09,1.908,6.09,2.529c-0.44,0.415-0.992,0.622-1.654,0.622h-1.112
			c-1.334,0-3.362-0.631-6.089-1.896h-0.271l0.271,0.851v0.213l-0.271,0.21l0.271,0.199l-0.249,0.781
			c-0.047-0.024-0.096-0.052-0.148-0.057c0.053,0.224-0.136,0.096-0.206,0.163c0.07,0.031,0.142,0.048,0.215,0.048
			c0.076-0.001,0.107,0.021,0.076,0.097c-0.032,0.071-0.025,0.125,0.039,0.178c0.014,0.012,0.021,0.038,0.021,0.062
			c0.009,0.05,0.016,0.099,0.022,0.149c-0.094,0.012-0.185,0.038-0.277,0.009c0,0.015-0.004,0.028-0.004,0.043
			c0.057,0.015,0.116,0.031,0.177,0.052c0,0.041,0.004,0.079,0.008,0.127c0.132-0.036,0.224,0.031,0.261,0.114
			c0.02,0.042,0.042,0.07,0.066,0.084v0.385c-0.029-0.019-0.054-0.049-0.062-0.097c-0.002-0.01-0.026-0.018-0.041-0.018
			c-0.16-0.001-0.228-0.139-0.356-0.221c0.062-0.018,0.095-0.024,0.111-0.028c-0.063-0.048-0.138-0.093-0.194-0.149
			c-0.049-0.053-0.086-0.079-0.16-0.048c-0.06,0.024-0.266-0.104-0.253-0.161c0.018-0.103-0.053-0.081-0.096-0.089
			c-0.049-0.006-0.102,0.008-0.16,0.014c0.146,0.128,0.29,0.256,0.439,0.388c-0.068,0.039-0.071,0.069-0.009,0.11
			c0.155,0.1,0.302,0.209,0.45,0.315c0.099,0.068,0.188,0.138,0.284,0.206c-0.004,0.007-0.004,0.014-0.007,0.022
			c-0.053-0.013-0.105-0.024-0.17-0.04c0.035,0.05,0.062,0.089,0.086,0.128c-0.009,0.011-0.016,0.021-0.026,0.03
			c-0.031-0.029-0.064-0.053-0.096-0.079c-0.028-0.016-0.055-0.043-0.085-0.048c-0.099-0.019-0.198-0.03-0.295-0.047
			c-0.046-0.009-0.089-0.026-0.133-0.037c-0.006,0.012-0.013,0.024-0.016,0.04c0.085,0.03,0.173,0.062,0.255,0.095
			c0.036,0.014,0.066,0.037,0.096,0.06c0.04,0.023,0.077,0.049,0.113,0.077c0.047,0.026,0.092,0.055,0.136,0.087
			c0.034,0.021,0.093-0.077,0.12,0.039c-0.057,0.028-0.113,0.053-0.181,0.081c0.057,0.052,0.071,0.146,0.139,0.182l-0.16,0.135
			v0.004c-0.145-0.042-0.399-0.231-0.38-0.371c-0.142,0.028-0.206-0.062-0.248-0.185c-0.032,0.026-0.054,0.044-0.079,0.065
			c0.118,0.11,0.233,0.213,0.349,0.312c0.067,0.063,0.176,0.099,0.139,0.226c0.106,0.01,0.194,0.039,0.178,0.178
			c-0.002,0.021,0.018,0.05,0.039,0.065c0.029,0.028,0.063,0.056,0.099,0.077c0.016,0.038,0.035,0.071,0.062,0.105
			c-0.004,0.006-0.012,0.016-0.018,0.018h0.027c0.461,0.667,1.882,1.271,4.254,1.81l2.013,0.426h3.52
			c3.688-1.537,5.532-3.296,5.532-5.275h-0.271l0.271-0.637C653.011,193.157,651.353,190.912,648.034,189.225 M641.332,196.83
			c-0.081-0.007-0.156-0.012-0.261-0.019c0.037,0.06,0.058,0.088,0.074,0.116c-0.007,0.012-0.015,0.019-0.022,0.029
			c-0.071-0.059-0.144-0.117-0.236-0.189C641.051,196.774,641.213,196.613,641.332,196.83 M641.313,198.987
			c-0.053-0.012-0.124-0.009-0.148-0.038c-0.1-0.108-0.167-0.234-0.061-0.433c0.038,0.057,0.071,0.093,0.093,0.136
			c0.036,0.067,0.067,0.135,0.092,0.206C641.304,198.897,641.304,198.943,641.313,198.987 M640.718,197.006
			c0.019-0.002,0.037-0.007,0.057-0.008c0.007,0.067,0.018,0.133,0.028,0.207C640.65,197.179,640.65,197.179,640.718,197.006
			 M639.358,199.983c0.003-0.024,0.003-0.046,0.007-0.067c0.021-0.004,0.042-0.006,0.063-0.007c0.007,0.022,0.017,0.049,0.024,0.074
			H639.358z M639.477,199.616c-0.074-0.02-0.137-0.056-0.196-0.054c-0.109,0.007-0.15-0.062-0.153-0.135
			c-0.004-0.03,0.089-0.079,0.146-0.097c0.039-0.016,0.089,0.003,0.163,0.011c-0.077,0.036-0.128,0.06-0.196,0.091
			c0.097,0.03,0.172,0.049,0.234,0.082C639.489,199.526,639.477,199.593,639.477,199.616 M639.646,199.342
			c-0.12,0.071-0.162-0.225-0.341-0.04v-0.23c0.169,0.067,0.313,0.124,0.465,0.185C639.724,199.29,639.685,199.313,639.646,199.342
			 M641.375,199.983h-0.244c-0.022-0.031-0.044-0.066-0.065-0.066c-0.179-0.007-0.205-0.151-0.267-0.27
			c-0.003-0.001-0.007-0.001-0.007-0.002v-0.005h-0.216c0.053,0.05,0.085,0.078,0.142,0.135c-0.067,0.017-0.149,0.049-0.159,0.034
			c-0.036-0.058-0.058-0.131-0.068-0.202c-0.003-0.011,0.075-0.043,0.117-0.052c0.081-0.017,0.185-0.071,0.185,0.085h0.004
			l-0.004,0.003l0.004-0.003c0,0.005,0,0.006,0.003,0.007c0.168,0.095,0.213-0.12,0.33-0.15c-0.031,0.091-0.106,0.2-0.076,0.249
			c0.074,0.113,0.208,0.134,0.39,0.06C641.417,199.874,641.396,199.931,641.375,199.983 M641.566,198.111
			c-0.018-0.03-0.05-0.062-0.05-0.092c0.003-0.033,0.032-0.066,0.052-0.103c0.015,0.002,0.028,0.004,0.044,0.004
			c0.012,0.037,0.043,0.077,0.035,0.107C641.638,198.062,641.595,198.085,641.566,198.111 M641.712,199.195
			c-0.011-0.011-0.018-0.021-0.025-0.031c0.018-0.071,0.04-0.142,0.064-0.228c0.064,0.051,0.117,0.096,0.171,0.141
			C641.851,199.114,641.783,199.156,641.712,199.195 M642.266,199.624c-0.008-0.027-0.013-0.057-0.024-0.08
			c-0.018-0.04-0.038-0.104-0.064-0.109c-0.209-0.031-0.159-0.208-0.225-0.369c0.151,0.073,0.271,0.125,0.385,0.188
			c0.021,0.009,0.042,0.049,0.035,0.071C642.354,199.41,642.326,199.497,642.266,199.624"/>
		<path fill="#FFFFFF" d="M714.717,186.089c-0.222-0.439-0.346-0.666-0.373-0.682c-0.839-1.662-3.051-2.967-6.64-3.899v0.095
			l-0.479-0.079l-0.019-0.016h-0.081l-0.021-0.005l-0.001,0.005l-3.344-0.009c0.008-0.011,0.016-0.023,0.022-0.036
			c-0.017-0.015-0.041-0.039-0.059-0.035c-0.057,0.012-0.113,0.037-0.167,0.055c0.054-0.104-0.07-0.066-0.1-0.117
			c0.018-0.009,0.032-0.017,0.047-0.021c-0.021-0.028-0.036-0.055-0.078-0.118c-0.027,0.048-0.051,0.085-0.071,0.119
			c-0.032-0.015-0.051-0.022-0.074-0.034c0.004-0.053,0.007-0.1,0.011-0.144h-0.035c0.002,0.064,0.006,0.132,0.011,0.192
			c-0.041-0.009-0.1-0.12-0.097-0.205c0.021,0.002,0.043,0.002,0.064,0.002c0.006-0.005,0.012-0.012,0.017-0.018
			c-0.019-0.02-0.038-0.041-0.06-0.058c-0.021-0.018-0.044-0.027-0.061-0.043c-0.018-0.019-0.03-0.045-0.045-0.066
			c-0.023,0.015-0.041,0.029-0.062,0.045c-0.007,0-0.015,0-0.021-0.002c0.005-0.025,0.007-0.053,0.015-0.076
			c0.018-0.049,0.038-0.102,0.052-0.15c0.003-0.013-0.017-0.032-0.027-0.04c-0.042-0.022-0.086-0.042-0.128-0.064
			c-0.018,0.071,0.021,0.104,0.11,0.104c-0.104,0.027-0.188,0.053-0.281,0.08c0,0-0.015-0.015-0.029-0.027
			c-0.007,0.006-0.013,0.013-0.019,0.021c0.028,0.029,0.059,0.061,0.083,0.084c0.01,0.073,0.019,0.141,0.029,0.201
			c-0.047-0.002-0.085-0.007-0.131-0.008c0.007,0.044,0.011,0.079,0.017,0.114c-0.006,0.003-0.013,0.005-0.021,0.006
			c-0.011-0.027-0.015-0.062-0.032-0.08c-0.023-0.034-0.063-0.083-0.089-0.079c-0.063,0.015-0.066-0.014-0.071-0.062
			c-0.003-0.025-0.021-0.052-0.028-0.069c-0.036,0.058-0.07,0.112-0.114,0.178c-0.023-0.043-0.038-0.065-0.048-0.092
			c-0.021,0.007-0.04,0.013-0.033,0.012c-0.08-0.073-0.146-0.137-0.218-0.199c0.02-0.007,0.04-0.021,0.06-0.03
			c0.062,0.073,0.103,0.075,0.158,0.025c-0.017-0.047-0.031-0.09-0.038-0.114c0.085-0.011,0.155-0.018,0.22-0.024
			c0.003-0.04,0.003-0.066,0.014-0.086c0.004-0.009,0.037-0.004,0.058,0c0.011,0.003,0.014,0.02,0.024,0.033
			c-0.021,0.015-0.039,0.029-0.053,0.042c0.011,0.028,0.02,0.053,0.021,0.057c0.096,0.003,0.174,0.011,0.255,0.015
			c0,0.008,0.003,0.018,0.003,0.027c0.032-0.027,0.062-0.056,0.088-0.081c-0.007,0.004-0.017,0.007-0.023,0.011
			c-0.011-0.034-0.024-0.071-0.035-0.106c-0.003,0.013-0.009,0.026-0.012,0.036c-0.038,0.018-0.076,0.035-0.127,0.058
			c0.011-0.045,0.018-0.073,0.029-0.121c-0.129-0.017-0.249-0.031-0.369-0.048c-0.001,0.005-0.004,0.01-0.004,0.017
			c0.019,0.015,0.037,0.03,0.056,0.044c-0.063,0.011-0.113,0.014-0.135-0.062c-0.014-0.044-0.063-0.083-0.116-0.022
			c0.014,0.02,0.027,0.034,0.048,0.05c-0.006,0.009-0.006,0.018-0.006,0.025c-0.039-0.003-0.082,0.009-0.107-0.01
			c-0.067-0.037-0.111-0.036-0.138,0.033c0.008,0.06,0.015,0.128-0.007,0.182c-0.014,0.035-0.026,0.055,0.004,0.083
			c0.011,0.01,0.003,0.034,0.003,0.05c-0.016-0.003-0.038-0.003-0.046-0.012c-0.025-0.026-0.049-0.057-0.076-0.095
			c-0.034,0.133-0.081,0.035-0.143,0.035c0.077-0.033,0.139-0.047,0.193-0.079c0.097-0.057-0.03-0.12,0.011-0.186
			c-0.065-0.012-0.12-0.02-0.186-0.031c0.012,0.041,0.019,0.061,0.026,0.088c-0.019-0.005-0.036-0.006-0.039-0.006
			c-0.016,0.054-0.016,0.12-0.05,0.146c-0.032,0.024-0.096,0.015-0.143,0.021c0.004,0.023,0.007,0.05,0.011,0.074
			c0.004,0.018,0.011,0.034,0.014,0.051c0.019-0.012,0.036-0.022,0.051-0.033c0.064,0.033,0.132,0.071,0.189,0.104
			c0.068,0.007,0.162-0.006,0.177,0.022c0.024,0.05-0.004,0.125-0.011,0.204c0.028,0.028,0.024,0.178,0,0.242h-0.022
			c-0.003-0.067-0.007-0.143-0.014-0.241c-0.086,0.181-0.13-0.029-0.196,0.027c-0.01-0.088-0.02-0.169-0.027-0.242
			c-0.058-0.005-0.093-0.007-0.138-0.01c-0.009,0.06-0.016,0.114-0.029,0.169c-0.004,0.021-0.018,0.049-0.035,0.054
			c-0.032,0.008-0.069,0.002-0.095,0.005c0.005,0.025,0.006,0.053,0.012,0.08c0.001,0.016,0.005,0.033,0.008,0.053
			c0.021-0.005,0.043-0.007,0.061-0.015c0.026-0.015,0.046-0.036,0.074-0.044c0.054-0.01,0.07-0.038,0.054-0.089
			c-0.004-0.019-0.004-0.037-0.004-0.06c0.089,0.06,0.093,0.104,0.029,0.181c-0.032,0.002-0.071-0.004-0.079,0.007
			c-0.018,0.038-0.028,0.075-0.046,0.124h-0.148c-0.011-0.003-0.015-0.005-0.02-0.006c-0.027-0.006-0.052-0.009-0.077-0.013
			c0.015-0.021,0.029-0.032,0.025-0.038c-0.031-0.062-0.038-0.131-0.146-0.159c-0.024-0.004-0.045-0.011-0.066-0.019
			c-0.007-0.003-0.015-0.006-0.022-0.008v0.005c-0.042-0.012-0.082-0.026-0.12-0.045c0-0.002,0-0.005,0-0.008
			c-0.004,0.001-0.004,0.003-0.004,0.006c-0.092-0.042-0.163-0.116-0.174-0.271c-0.007-0.141-0.25-0.212-0.376-0.102
			c0.114,0.03,0.203,0.054,0.292,0.076c-0.005,0.017-0.011,0.034-0.013,0.049c-0.056,0.006-0.112,0.012-0.198,0.02
			c0.111,0.066,0.229,0.115,0.324,0.191c-0.113-0.019-0.225-0.033-0.331-0.047c-0.004,0.006-0.004,0.012-0.004,0.017
			c0.018,0.014,0.039,0.032,0.056,0.046c-0.064,0.009-0.111,0.011-0.136-0.062c-0.015-0.045-0.064-0.081-0.118-0.021
			c0.017,0.017,0.032,0.033,0.047,0.048c-0.002,0.009-0.002,0.018-0.006,0.028c-0.038-0.002-0.079,0.007-0.104-0.011
			c-0.064-0.039-0.11-0.037-0.139,0.032c0.007,0.061,0.018,0.128-0.006,0.182c-0.016,0.035-0.026,0.053,0.004,0.082
			c0.002,0.003,0.002,0.009,0.002,0.009c-0.05-0.023-0.094-0.046-0.139-0.076c0.024-0.01,0.047-0.021,0.068-0.034
			c0.095-0.054-0.029-0.115,0.01-0.183c-0.063-0.012-0.117-0.021-0.185-0.035c0.012,0.044,0.019,0.063,0.026,0.091
			c-0.02-0.003-0.033-0.008-0.04-0.008c-0.004,0.02-0.007,0.04-0.016,0.06c-0.062-0.055-0.122-0.114-0.188-0.17
			c-0.014-0.01-0.042,0-0.073,0c0.007,0.054,0.014,0.095,0.019,0.14c-0.086-0.185-0.256-0.211-0.467-0.234
			c0.106-0.035,0.168-0.058,0.229-0.077c-0.005-0.018-0.013-0.032-0.018-0.049c-0.111,0.003-0.225,0.006-0.345,0.01
			c-0.033,0.1-0.075,0.215-0.111,0.331c0.231,0.13,0.314,0.118,0.438-0.069c0.045,0.029,0.089,0.06,0.115,0.079
			c-0.004,0.073-0.006,0.123-0.006,0.174c-0.099,0.184-0.093,0.199,0.114,0.387c0.008,0.004,0.015,0.01,0.021,0.015
			c-0.011-0.003-0.021-0.003-0.029-0.003v0.006l-0.391-0.151h-0.24l0.24,0.678v0.24l-0.227,0.227l0.227,2.036l-0.184,1.153
			c-0.019,0.255-0.021,0.527,0.117,0.722c0.014,0.017,0.021,0.03,0.028,0.047l0.106,0.159l-0.161,0.364l0.048,0.342v0.001
			l0.016,0.68l0.242,0.918l-0.258,0.904l-0.015,6.591l0.185,0.163c-0.004-0.038-0.01-0.078-0.018-0.116
			c0.011-0.002,0.021-0.006,0.028-0.008c0.093,0.164,0.185,0.334,0.284,0.512c-0.089-0.015-0.167-0.027-0.249-0.042
			c-0.011-0.079-0.021-0.157-0.031-0.231l-0.199,0.175v0.468l0.241,1.357l0.014,0.227l-0.255,0.226l0.224,0.918v0.681l0.257-0.015
			l0.165,0.156c0.083-0.168,0.166-0.337,0.257-0.52c0.163,0.141,0.244,0.093,0.302-0.076c0.036-0.104,0.143-0.174,0.211-0.263
			c0.187-0.242,0.379-0.478,0.542-0.738c0.085-0.137,0.109-0.319,0.166-0.491c0.273,0.082,0.316-0.204,0.526-0.286
			c-0.098,0.179-0.195,0.357-0.295,0.537c0.028,0.02,0.055,0.044,0.085,0.068c0.128-0.131,0.241-0.145,0.352,0.08
			c-0.11,0.014-0.21,0.014-0.295,0.035c-0.071,0.018-0.122,0.072-0.191,0.098c-0.089,0.028-0.08,0.228-0.256,0.107
			c-0.011-0.007-0.057,0.032-0.078,0.059c-0.315,0.409-0.624,0.823-0.948,1.224c-0.081,0.102-0.185,0.182-0.286,0.263l-0.016,0.216
			l0.768-0.229l1.474,0.229l0.27-0.015l0.497-0.454l0.497,0.469l1.246-0.229l0.496,0.229l2.933-0.043h0.751l0.27-0.213v0.213
			l2.603-1.105v-0.225h-0.737l-0.016-0.24h0.739l0.255,0.224c3.218-1.912,4.436-5.688,3.651-11.327
			C715.423,187.964,715.203,187.059,714.717,186.089 M699.423,181.664c-0.117-0.049-0.109-0.153-0.121-0.244
			c0.04-0.016,0.082-0.037,0.145-0.066C699.438,181.467,699.433,181.559,699.423,181.664 M699.607,181.749
			c0.087,0.059,0.092,0.102,0.039,0.176l-0.078-0.031c0.042-0.012,0.058-0.037,0.043-0.083
			C699.609,181.793,699.609,181.773,699.607,181.749 M699.537,181.769c-0.004,0.018-0.018,0.038-0.033,0.046
			c-0.011-0.035-0.021-0.063-0.031-0.094c0.021,0.003,0.047,0.009,0.068,0.016C699.54,181.747,699.539,181.756,699.537,181.769
			 M699.558,200.59c0.078-0.133,0.157-0.265,0.241-0.396c0.007-0.012,0.067,0.018,0.103,0.027
			C699.87,200.483,699.732,200.623,699.558,200.59 M699.977,181.882l-0.049,0.018c0-0.024,0-0.049-0.004-0.077
			c-0.084,0.183-0.129-0.027-0.195,0.027c-0.007-0.053-0.011-0.103-0.019-0.149c0.085-0.044,0.156,0.019,0.214,0.05
			c0.018-0.042,0.035-0.081,0.049-0.119c0.016,0.049-0.006,0.116-0.014,0.19C699.97,181.83,699.975,181.855,699.977,181.882
			 M700.746,181.198c0.022,0.02,0.04,0.041,0.059,0.063c-0.025,0.013-0.051,0.021-0.08,0.034
			C700.733,181.26,700.739,181.232,700.746,181.198 M700.114,181.435c0.016-0.007,0.036-0.019,0.054-0.028
			c0.064,0.073,0.104,0.076,0.16,0.024c-0.014-0.048-0.03-0.089-0.039-0.113c0.088-0.011,0.16-0.018,0.221-0.024
			c0.005-0.04,0.004-0.068,0.014-0.088c0.004-0.008,0.039-0.005,0.059,0.002c0.009,0.003,0.012,0.02,0.023,0.033
			c-0.021,0.017-0.037,0.03-0.05,0.042c0.007,0.027,0.018,0.053,0.02,0.057c0.095,0.006,0.173,0.01,0.256,0.014
			c0.002,0.008,0.005,0.016,0.005,0.025c0.007-0.008,0.015-0.015,0.024-0.021c0.008,0.02,0.015,0.04,0.021,0.062
			c-0.021,0.006-0.042,0.013-0.066,0.019c0.002,0.001-0.015-0.013-0.029-0.025c-0.007,0.006-0.011,0.013-0.018,0.019
			c0.003,0.005,0.011,0.01,0.014,0.016c-0.042-0.011-0.077-0.021-0.107-0.037c-0.165-0.097-0.19-0.087-0.223,0.095
			c0.025,0.012,0.051,0.023,0.071,0.035c-0.01,0.02-0.021,0.035-0.032,0.053c-0.069-0.019-0.138-0.041-0.209-0.062
			c-0.005,0.017-0.01,0.032-0.015,0.05C700.214,181.529,700.161,181.482,700.114,181.435 M700.627,181.589
			c-0.004,0.013-0.011,0.026-0.018,0.037c-0.019-0.005-0.039-0.011-0.058-0.018c0-0.001-0.003-0.001-0.003-0.003
			c0-0.023-0.015-0.048-0.022-0.067C700.559,181.558,700.594,181.572,700.627,181.589 M700.864,199.241
			c-0.093,0.153-0.171,0.32-0.273,0.468c-0.088,0.133-0.206,0.249-0.348,0.41c-0.004-0.23,0.295-0.313,0.024-0.57
			c0.104,0.013,0.157,0.02,0.277,0.035c-0.089-0.103-0.142-0.164-0.22-0.25c0.028-0.007,0.092-0.054,0.118-0.036
			c0.201,0.136,0.243-0.01,0.31-0.116c0.094-0.14,0.189-0.281,0.285-0.422c0.028,0.021,0.058,0.041,0.087,0.063
			C701.038,198.964,700.947,199.099,700.864,199.241 M701.823,200.159c-0.058,0.095-0.12,0.178-0.183,0.268
			c-0.037-0.022-0.071-0.043-0.105-0.063c0.062-0.109,0.122-0.226,0.191-0.332c0.002-0.008,0.071,0.007,0.078,0.021
			C701.819,200.085,701.837,200.137,701.823,200.159 M702.352,181.396c-0.026,0.034-0.049,0.062-0.073,0.1h-0.025
			c-0.011-0.051-0.021-0.092-0.028-0.137C702.266,181.373,702.303,181.383,702.352,181.396 M702.041,198.274
			c-0.036-0.316-0.005-0.354,0.215-0.492c0.09-0.057,0.147-0.166,0.221-0.249c0.046-0.059,0.09-0.117,0.138-0.177
			c0.014,0.017,0.029,0.026,0.043,0.04C702.458,197.68,702.261,197.963,702.041,198.274 M702.78,197.267
			c-0.023-0.018-0.041-0.031-0.06-0.048c0.072-0.284,0.363-0.409,0.477-0.663c0.018,0.015,0.035,0.026,0.053,0.043
			C703.095,196.82,702.938,197.041,702.78,197.267 M705.522,199.228h-0.238v-0.695h0.494L705.522,199.228z M708.619,200.344
			l-0.256,0.213l-0.494-0.452h0.75V200.344z M709.299,193.628c0,0.971-0.645,1.702-1.926,2.19l-0.093-0.213l-0.239-0.013
			l-0.992,0.226c-0.771-0.188-1.186-0.493-1.247-0.917l-0.014-0.216l0.241-0.225l-0.107-6.958c0.012-0.26,0.75-0.32,2.217-0.179
			l0.427,0.142c0,0,0.245,0.081,0.407,0.137l0.136,0.212l0.602,0.213l0.647,0.961L709.299,193.628z"/>
		<path fill="#FFFFFF" d="M698.223,186.083l-0.149-0.12l-0.447,0.141l-1.016-0.011c-0.003,0-0.003-0.004-0.003-0.004
			c-0.025-0.029-0.039-0.057-0.05-0.091h-0.1v-4.194h-5.923v1.978l0.224,1.528h0.225l-0.299,0.453l-0.21,0.212l-1.651-0.023
			l-5.581,0.146v0.002l-0.586-0.111l1.506-0.226h0.677l-0.228-0.664l0.228-0.65v-0.227l-0.228-0.226v-0.215l0.228-0.223
			l-0.014-0.146l0.014-0.959v-0.65l-0.228-0.225l-0.227,0.225l-0.223-0.225l-0.228,0.225h-0.239l-0.228-0.225h-3.397l-0.238-0.214
			v0.214h-0.227l-0.226-0.214h-0.676l-0.15,0.438v0.877l-0.077,3.153l-1.487,0.086l-0.025,0.112l-2.322-0.029l-0.027,0.001
			l-0.062-1.456v-1.74l0.226-1.273h-4.87l-1.083,0.198l0.225,1.075l-0.225,1.938l0.116,1.328h-0.687v0.015h-0.751
			c-1.371-0.073-2.36-0.128-2.974-0.162l-1.578-0.1l-0.123-1.859l0.194-1.841v-0.593h-0.194l-1.729,0.057l-2.934-0.057l-0.87,0.397
			l-0.089,2.036l0.082,1.952c-0.04,0.001-0.077,0.001-0.113,0.001l-0.465-0.037l-0.265,0.148l-0.659-0.012
			c-0.193-0.018-0.404-0.038-0.633-0.059c-0.969-0.094-1.454-0.139-1.454-0.128l-0.06,0.115v0.013
			c0.017,0.041,0.034,0.072,0.059,0.094l-0.167,0.009l-0.116,0.183l0.148,0.183l0.526,0.029l1.466-0.082l0.146,4.224l-0.213,0.197
			v0.199h0.213l-0.213,0.197l0.213,0.989v0.199l-0.086,0.166l0.086,0.23v0.195l-0.213,0.187l0.213,0.197v0.196l-0.213,0.198v0.198
			l0.213,1.187v0.396l-0.112,0.224l0.112,0.175v0.578l-0.061,0.236l0.061,0.159v3.354l0.156,0.137c0,0.018,0.004,0.034,0.014,0.048
			c0.008,0.017,0.015,0.028,0.021,0.042l-0.19,0.169v0.79h0.103c-0.028,0.106-0.052,0.201-0.081,0.292
			c-0.044,0.131-0.104,0.259-0.146,0.388c-0.025,0.078,0.009,0.128,0.102,0.128c0.025,0,0.053,0.031,0.078,0.049
			c-0.019,0.022-0.034,0.048-0.056,0.069c-0.014,0.01-0.044,0.008-0.05,0.021c-0.028,0.047-0.049,0.101-0.07,0.151
			c0.042,0.014,0.081,0.041,0.12,0.038c0.071,0,0.144-0.011,0.211-0.031c0.038-0.012,0.069-0.052,0.105-0.079
			c-0.031-0.035-0.064-0.063-0.085-0.1c-0.04-0.063-0.117-0.147-0.098-0.195c0.016-0.035,0.033-0.077,0.058-0.116
			c0.04,0.003,0.072,0.012,0.106,0.02c0.011,0.033,0.007,0.068-0.049,0.102c0.045,0.048,0.085,0.083,0.134,0.136
			c0.033-0.039,0.062-0.074,0.093-0.111c0.016,0.003,0.034,0.003,0.058-0.004c0.042-0.011,0.096,0.022,0.148,0.032
			c0.024,0.004,0.05,0.009,0.074,0.009c0,0.015-0.003,0.026-0.003,0.039c-0.006,0.027,0.003,0.056,0.003,0.083
			c0.032-0.001,0.079,0.011,0.093-0.007c0.024-0.028,0.046-0.057,0.067-0.089c0.018,0.021,0.034,0.043,0.043,0.066
			c0.01,0.028,0.001,0.068-0.006,0.101c-0.033,0.143-0.026,0.325-0.111,0.417c-0.106,0.116-0.004,0.162,0,0.24
			c0.071-0.167,0.138-0.332,0.201-0.502c0.043,0.022,0.08,0.025,0.114,0.016c0,0.01,0.004,0.018,0.007,0.021
			c0.047,0.029,0.11,0.032,0.17,0.039c0,0.005-0.002,0.01-0.002,0.013h0.002c-0.066,0.12-0.064,0.133,0.078,0.26
			c0.015,0.012,0.036,0.021,0.077,0.044c-0.019-0.05-0.026-0.072-0.041-0.105c0.052,0.008,0.108,0.028,0.122,0.015
			c0.073-0.08,0.136-0.022,0.184,0.005c0.011-0.027,0.021-0.053,0.031-0.077c0.1,0.031,0.203,0.065,0.304,0.098
			c-0.04,0.01-0.073,0.021-0.118,0.03c0.099,0.053,0.185,0.093,0.287,0.147c0.018-0.005,0.059-0.02,0.104-0.023
			c0.024,0,0.052,0.004,0.071,0c0.007,0.004,0.01,0.005,0.014,0.01c0-0.006,0-0.013,0-0.018c0.01-0.004,0.014-0.011,0.017-0.023
			c0.059-0.057,0.25-0.085,0.13-0.176c0.014-0.004,0.027-0.014,0.043-0.027c-0.022-0.005-0.047-0.012-0.071-0.021
			c0.006-0.025,0.006-0.053,0.01-0.076c0.025-0.021,0.052-0.044,0.048-0.052c-0.012-0.028-0.02-0.057-0.041-0.078
			c-0.004-0.047,0.004-0.082,0.082-0.1c0.03-0.004,0.042-0.061,0.078-0.116c0.011-0.002,0.064-0.006,0.103-0.009
			c-0.042-0.035-0.089-0.06-0.109-0.095c-0.021-0.026-0.016-0.066-0.011-0.103l0.178-0.078c0.017,0.026,0.028,0.049,0.031,0.07
			c0.001,0.014-0.038,0.037-0.064,0.049l0.286-0.077c-0.002-0.006-0.005-0.016-0.01-0.022c-0.03-0.002-0.069-0.002-0.102-0.006
			c0.014-0.014,0.03-0.027,0.045-0.039c0.026,0,0.044,0,0.052,0.011c0.063,0.069,0.112,0.058,0.171,0.011
			c0.037,0,0.077-0.025,0.085-0.089c0.006,0.004,0.014,0.007,0.017,0.011c0.018-0.028,0.035-0.061,0.057-0.09
			c0.012-0.003,0.019-0.006,0.029-0.008c0.007,0.035,0.018,0.071,0.019,0.104c0.006,0.075,0.005,0.149,0.013,0.224
			c0.001,0.013,0.035,0.03,0.054,0.032c0.066,0.012,0.135,0.017,0.202,0.023c-0.014-0.105-0.084-0.125-0.195-0.078
			c0.074-0.06,0.139-0.112,0.206-0.162c0.12-0.021,0.234-0.037,0.324-0.05c0.037,0.071,0.06,0.141,0.083,0.142
			c0.065,0.001,0.094-0.043,0.086-0.119c0-0.008,0.006-0.017,0.011-0.025l0.032,0.03c-0.015-0.013-0.022-0.021-0.032-0.03
			c0.018-0.023,0.05-0.053,0.071-0.056c0.028-0.006,0.06,0,0.089,0.005c-0.025,0.016-0.054,0.033-0.078,0.046
			c0.014,0.052,0.028,0.086,0.024,0.118c0,0.017-0.046,0.025-0.071,0.028l0.291,0.002c0-0.007,0-0.014-0.003-0.023
			c-0.029-0.012-0.063-0.021-0.096-0.031c0.08-0.044,0.145-0.073,0.21,0.013c0.039,0.05,0.124,0.071,0.163-0.034
			c-0.028-0.012-0.058-0.028-0.086-0.04c-0.001-0.012-0.003-0.023-0.007-0.032c0.05-0.017,0.1-0.053,0.146-0.046
			c0.094,0.018,0.148-0.007,0.157-0.09c0.008,0.013,0.015,0.022,0.02,0.022c0.039,0.001,0.062-0.021,0.073-0.053v0.007
			c0.088-0.021,0.164-0.037,0.254-0.057c-0.019-0.024-0.033-0.04-0.043-0.055c0.025-0.002,0.057-0.013,0.078-0.025
			c0.035-0.021,0.067-0.055,0.109-0.087c0.028-0.041,0.07-0.091,0.106-0.143l0.029,0.04c0.015-0.09,0.024-0.182,0.039-0.272
			l0.115-0.01v-0.286c0.012-0.026,0.026-0.054,0.04-0.083c-0.011-0.013-0.024-0.033-0.04-0.05v-0.151
			c0.059-0.04,0.115-0.082,0.18-0.124c-0.022-0.044-0.051-0.099-0.075-0.148h-0.104v-5.27l-0.226-0.196l0.226-0.792h5.366
			c0.242,0,0.455,0.396,0.646,1.189h-0.209l0.646,0.99h-0.227l-0.21-0.199l-0.209,0.199v2.949l0.419,0.596l-0.21,0.185h-0.209
			l0.209,0.197v1.188h2.135l0.227-0.198l0.21,0.198h2.511l0.437-0.396v-0.791l-0.228-0.197v-0.185l0.109-0.093l-0.109-0.106
			l0.228-0.197c0.163-4.441-0.508-5.35,0-10.646l-0.228-1.414l0.228-0.198l-0.128-0.88l0.263-0.022
			c0.021-0.013,0.16-0.022,0.419-0.03c-0.008,0-0.021-0.003-0.038-0.005l0.986,0.017c0,0,1.704-0.077,2.29-0.074l-0.095,0.415v2.206
			l0.452,1.98l-0.452,0.863l0.227,0.229v2.643l0.226,0.21h-0.226l0.226,1.105v1.753l0.69,0.892c1.021,1.716,3.073,2.954,6.149,3.719
			v-0.213h0.225l0.227,0.213h3.413l1.366-0.426v0.213c0.753-0.143,1.89-0.648,3.416-1.524v-0.229l-0.228-0.211h0.451l0.224,0.211
			c0.081-0.584,0.312-0.876,0.692-0.876l-0.241-0.226v-0.213l0.241,0.213h0.228c0.38-1.312,0.678-1.966,0.901-1.966l-0.227-0.228
			l0.678-2.645l-0.228-0.211v-1.329l0.228-1.54l-0.451-0.88l0.224-0.228c0-0.281-0.224-0.421-0.675-0.421v-0.227h0.451l0.224,0.227
			l0.228-1.104l-0.451-0.878c-0.224,0.055-0.233-0.34-0.031-1.187c0.005,0,0.011,0,0.018-0.002h0.373v0.017h0.649l1.885,0.138
			l0.076-0.156l-0.059-0.079l0.182-0.008l0.078-0.089l0.055-0.096l-0.005-0.115L698.223,186.083z M656.473,202.153
			c-0.018-0.015-0.039-0.028-0.064-0.039c-0.033-0.014-0.066-0.028-0.103-0.043c0.037-0.028,0.089-0.053,0.103-0.042
			c0.034,0.019,0.061,0.028,0.082,0.025C656.483,202.09,656.479,202.124,656.473,202.153 M656.945,202.533
			c0.007-0.007,0.013-0.017,0.018-0.024c0.027,0.021,0.061,0.042,0.075,0.055c-0.001,0.017-0.001,0.029-0.001,0.046
			C657.006,202.588,656.973,202.564,656.945,202.533 M657.119,202.841c-0.078-0.034-0.071-0.104-0.082-0.161
			c0.004-0.002,0.006-0.002,0.009-0.005l-0.003,0.003c0.029,0.009,0.058,0.017,0.087,0.026
			C657.126,202.75,657.123,202.794,657.119,202.841 M668.044,187.702h-0.437v0.195l-0.24,1.273h-0.438v-0.393l-1.697,0.507v-0.197
			l0.226-0.199v-0.057l-4.089,0.112l0.226-0.195l-0.226-0.201v-0.196l0.226-0.199l-0.201-1.741h2.352l3.699,0.047l0.163,1.045h0.437
			V187.702z M669.404,183.423l0.103-0.137c0.022,0.039,0.047,0.078,0.064,0.11C669.511,183.406,669.462,183.413,669.404,183.423
			 M672.262,184.642c0.009,0.013,0.017,0.024,0.029,0.036c-0.06,0.05-0.117,0.097-0.176,0.147c-0.012-0.018-0.023-0.032-0.034-0.048
			C672.143,184.733,672.2,184.687,672.262,184.642 M672.034,184.308c-0.108-0.025-0.14,0.157-0.255,0.05
			C671.963,184.233,671.963,184.233,672.034,184.308 M669.838,184.976c0.018-0.08,0.035-0.163,0.05-0.243
			c0.108,0.022-0.104,0.14,0.074,0.122c-0.036,0.05-0.067,0.089-0.096,0.128C669.856,184.98,669.848,184.979,669.838,184.976
			 M670.069,185.212c-0.025,0.055-0.058,0.125-0.093,0.196c-0.011-0.001-0.015-0.004-0.07-0.227c0.035,0.023,0.06,0.042,0.076,0.053
			c0.062-0.034,0.118-0.066,0.178-0.096l0.021,0.066C670.146,185.209,670.11,185.209,670.069,185.212 M670.253,185.099
			c-0.003-0.06-0.007-0.102-0.01-0.14c-0.044-0.014-0.091-0.03-0.136-0.048c0.007-0.014,0.011-0.027,0.014-0.043
			c0.075,0.02,0.149,0.039,0.235,0.063C670.328,184.979,670.299,185.028,670.253,185.099 M670.86,186.081
			c0-0.013,0.004-0.023,0.004-0.035c0.063,0.016,0.126,0.03,0.199,0.052L670.86,186.081z M671.162,184.758
			c-0.024,0.018-0.075,0.026-0.1,0.015c-0.035-0.021-0.049-0.071-0.078-0.1c-0.046-0.05-0.099-0.111-0.143,0.007
			c-0.015,0.033-0.06,0.055-0.102,0.068c0.019-0.047,0.053-0.089,0.062-0.136c0.016-0.051,0.011-0.106,0.012-0.129
			c0.053,0.002,0.088,0.002,0.124,0.01c0.019,0.002,0.042,0.006,0.052,0.02c0.041,0.058,0.078,0.118,0.114,0.182
			c0.03-0.012,0.064-0.025,0.116-0.046C671.196,184.698,671.189,184.74,671.162,184.758 M671.415,183.447
			c-0.012,0.002-0.022,0.009-0.033,0.014c-0.053-0.077-0.107-0.154-0.171-0.246c0.085-0.047,0.151,0.004,0.188,0.056
			C671.429,183.313,671.411,183.388,671.415,183.447 M671.531,184.254c0.049-0.045,0.1-0.095,0.163-0.154
			C671.69,184.247,671.635,184.289,671.531,184.254 M672.536,185.191c-0.109-0.026-0.224-0.053-0.338-0.079
			c-0.056-0.01-0.053-0.007-0.07,0.051c-0.003,0.017-0.035,0.035-0.039,0.031c-0.053-0.035-0.104-0.071-0.167-0.119
			c-0.05-0.014-0.116-0.028-0.184-0.051c-0.004-0.004,0.008-0.057,0.014-0.086c0.058,0.012,0.114,0.021,0.181,0.032
			c0.03-0.025,0.071-0.062,0.135-0.116c-0.019,0.056-0.028,0.089-0.039,0.12c0.121,0.075,0.321,0.078,0.378,0.004
			c0.048,0.016,0.1,0.031,0.148,0.05C672.553,185.068,672.547,185.116,672.536,185.191 M672.362,184.499
			c-0.011-0.015-0.021-0.027-0.032-0.037c0.089-0.084,0.181-0.166,0.271-0.247c0.014,0.019,0.03,0.032,0.045,0.051
			C672.551,184.343,672.454,184.42,672.362,184.499 M672.898,184.003c-0.026,0.048-0.071,0.078-0.106,0.118
			c-0.013-0.012-0.025-0.019-0.036-0.023c0.008-0.028,0.011-0.053,0.018-0.082l-0.003,0.001c-0.042,0.017-0.086,0.035-0.135,0.057
			c-0.002-0.008-0.01-0.027-0.021-0.063c-0.04,0.036-0.078,0.066-0.115,0.097c-0.007-0.004-0.016-0.007-0.022-0.012
			c0.018-0.025,0.028-0.059,0.049-0.08c0.027-0.026,0.058-0.047,0.089-0.063c0.04-0.022,0.082-0.038,0.124-0.056
			c0.011,0.038,0.021,0.081,0.032,0.121c0-0.001,0.003-0.001,0.003-0.001c0.023-0.021,0.051-0.042,0.068-0.069
			c0.028-0.041,0.05-0.088,0.071-0.136c0.018,0.008,0.032,0.015,0.049,0.021C672.941,183.89,672.927,183.951,672.898,184.003
			 M688.881,191.095c-0.089-0.019-0.156-0.03-0.225-0.042c0.007-0.029,0.007-0.07,0.029-0.084c0.023-0.018,0.063-0.016,0.102-0.022
			c0.026,0.03,0.054,0.07,0.094,0.12V191.095z M689.122,188.337l-0.068,0.317c-0.003-0.009-0.003-0.017-0.007-0.023
			c-0.038,0.009-0.084,0.014-0.117,0.041c-0.056,0.042-0.109,0.095-0.148,0.153c-0.025,0.03-0.025,0.083-0.032,0.125
			c0.043,0.008,0.088,0.014,0.128,0.029c0.028,0.014,0.067,0.023,0.104,0.035l-0.1,0.483v0.027
			c-0.004,0.007-0.011,0.014-0.016,0.021c-0.024,0.03-0.045,0.063-0.062,0.097h0.018c-0.011,0.05-0.018,0.102-0.032,0.166
			c0.032-0.002,0.077-0.02,0.117-0.01c0.075,0.015,0.064,0.261-0.018,0.312v-0.102c-0.094,0.049-0.143,0.18-0.143,0.276
			c-0.003,0.067-0.058,0.133-0.092,0.199c-0.099-0.055-0.104,0.07-0.164,0.098c0.083,0.009,0.16-0.006,0.242-0.012
			c0.05-0.003,0.1,0.009,0.149,0.014v0.006c-0.016,0.029-0.032,0.063-0.044,0.089c0.009,0.028,0.021,0.054,0.026,0.081
			c0.002,0.005-0.022,0.015-0.036,0.025c-0.011-0.021-0.018-0.042-0.03-0.061c-0.012-0.014-0.034-0.036-0.048-0.034
			c-0.116,0.023-0.228,0.053-0.341,0.077c-0.003,0.018-0.003,0.032-0.007,0.046c0.069,0.021,0.137,0.047,0.206,0.055
			c0.012,0.003,0.032-0.059,0.061-0.107c0.016,0.027,0.048,0.055,0.049,0.087c0.002,0.019-0.049,0.037-0.079,0.056
			c-0.034,0.021-0.07,0.048-0.104,0.07c-0.047,0.027-0.121,0.036-0.153,0.077c-0.092,0.114,0.117,0.1,0.098,0.17
			c-0.071,0.062-0.13,0.112-0.187,0.159c0.035,0.09,0.198,0.09,0.114,0.217c0.062,0.022,0.109,0.039,0.181,0.064
			c0.023-0.1,0.045-0.197,0.077-0.293c0.019-0.044,0.064-0.11,0.089-0.106c0.104,0.014,0.129-0.041,0.125-0.143
			c0,0.002,0.004,0.002,0.004,0.003v3.521c-0.6,1.403-1.282,2.106-2.046,2.106h-1.59c-0.835,0-1.442-1.327-1.822-3.987l0.228-0.226
			l-0.451-2.322l0.224-0.251v-0.694l-0.224,0.227h-0.227l0.45-0.695v-1.172l-0.224-1.188h0.224l0.171-0.171l3.571-0.071h1.265
			l0.163-0.016l0.152,0.003c-0.041,0.019-0.06,0.033-0.06,0.042l0.06,0.042h-0.029c-0.03,0-0.056,0.045-0.076,0.128v0.015
			l0.032,0.111c0,0.01,0.118,0.015,0.357,0.017l-0.148,0.153v0.467l0.241,0.228h-0.241L689.122,188.337z M689.573,189.64
			c-0.011-0.001-0.024-0.003-0.038-0.001c-0.017-0.049-0.037-0.097-0.058-0.141h0.096V189.64z"/>
	</g>
	<path fill="#FFFFFF" d="M771.416,184.869h0.005H771.416z"/>
	<g>
		<path fill="#FFFFFF" d="M775.945,186.494l-3.963-0.217c-0.092-0.532-0.227-1.018-0.403-1.45c-0.04,0.034-0.09,0.054-0.163,0.041
			c0.003,0,0.003,0.001,0.003,0.004c0.068,0.068,0.138,0.137,0.237,0.238c-0.177-0.017-0.291-0.025-0.419-0.037
			c-0.014-0.062-0.036-0.127-0.065-0.246c0.098,0.017,0.172,0.03,0.247,0.045l-0.005-0.004h0.002
			c-0.017-0.056-0.033-0.106-0.058-0.174c0.007-0.008,0.018-0.015,0.024-0.021l0.139,0.011c-0.593-1.362-1.618-2.224-3.079-2.581
			c-0.21-0.189-0.923-0.363-2.137-0.522v0.295l-1.13-0.268l-0.014-0.284l-0.661,0.313l-0.916-0.242h-0.21l-4.903,0.012l-2.255,0.089
			v1.186l-0.073,2.973l-0.068,0.465h-0.021h-0.241c-0.049,0-0.676-0.003-1.881-0.015c-0.171-0.011-0.362-0.016-0.587-0.016h-0.227
			l0.045-0.537l-0.12-0.11v-0.257l0.12-0.113h-0.12l0.12-0.621v-0.27l-0.12-0.112l0.257-0.876l-0.137-0.128v-0.837
			c-0.045-0.014-0.092-0.028-0.138-0.041c0.007-0.021,0.011-0.041,0.018-0.06c0.04,0.004,0.078,0.012,0.12,0.019v-0.454
			l-1.778-0.076c0,0.038,0,0.078,0.018,0.107c0.027,0.054,0.084,0.094,0.136,0.146c-0.047,0.005-0.112,0.012-0.128,0.017
			c-0.043,0.085-0.059,0.172-0.096,0.18c-0.109,0.03-0.106,0.092-0.104,0.182c0,0.108-0.015,0.219-0.022,0.342
			c0.264,0.198-0.156,0.217-0.146,0.364c-0.052-0.044-0.101-0.085-0.152-0.13c0.296-0.459,0.35-0.683-0.006-1.137
			c0.11,0.007,0.185-0.021,0.238-0.084l-0.558-0.021h-4.285l-0.136-0.129l-0.12,0.129l-0.781-0.129l-0.391,0.129l-0.394-0.129
			l-0.132,0.129h-0.123l-0.136-0.129v0.129l-0.643-0.129h-0.136l-0.137,0.129v-0.129l-0.375,0.129h-0.137l-0.137-0.129l-0.39,0.129
			v-0.129l-0.121,0.129l-0.661-0.129h-1.818l-0.119,0.129v0.11l0.119,0.13v0.14l-0.119,0.111l0.119,0.13v0.862l-0.119,0.128
			l0.119,0.127v0.111l-0.119,0.51v0.128l0.119,0.112l-0.119,0.383v0.128l0.119,0.112l-0.119,0.748l-0.008,0.588l-1.525,0.007v0.043
			l0.119,0.622l-0.119,0.13l0.119,0.351l-0.119,0.128v2.362l0.119,0.634l-0.119,0.383v1.485l-0.136,0.128l0.136,0.127v0.367
			l-0.136,0.116l0.136,0.14v2.233l-0.136,0.622l0.136,0.114l-0.136,0.128v1.372l0.136,0.127h-0.136l0.136,1.371l-0.136,0.623
			l0.136,0.125h-0.136v0.13l0.136,0.11v0.269l-0.136,0.116h0.136v0.126l-0.136,0.113v0.254l0.255,0.255v-0.255h0.139
			c0,0.218,0.213,0.348,0.646,0.383v-0.128l0.647,0.128l0.391-0.128v0.128l0.391-0.128l0.524,0.128h0.136l0.121-0.128l0.134,0.128
			h0.257l0.134-0.128v0.128l0.121-0.128v-0.382c0,0,0.746,0.624,1.7,0.624v-0.114l0.646,0.114l0.78-0.255l1.173,0.112h1.818
			l1.293,0.125l0.138-0.125l0.525,0.125h1.684V196.4h-2.737l-0.902-0.142l-0.135,0.142l-1.817-0.142l-0.725,0.142
			c-0.86-0.095-1.292-0.223-1.292-0.384v-1.243l0.138-0.622l-0.138-0.128l1.537-0.254v0.143l0.509-0.143l0.075,0.143h0.779v-0.143
			l-0.132-0.115l0.646,0.258l0.135-0.143h0.392l0.136,0.143l0.12-0.143h0.135l0.135,0.143l0.256-0.258l0.256,0.258l0.526-0.258
			v0.115l0.649-0.238h0.131v0.123h-0.271v0.115l0.14,0.143l0.131-0.143l0.646,0.143v-0.258l0.526,0.258
			c0.172,0,0.259-0.208,0.259-0.625v-0.635h-0.018l-0.207-3.381h-0.123l0.123-0.368l-2.236,0.126
			c-0.105-0.003-0.512-0.011-0.962-0.02l-0.178-0.003c-0.615-0.012-1.252-0.026-1.285-0.026c-0.058,0-2.011-0.078-2.717-0.105
			l-0.112-0.171l0.255-1.894h0.395l0.781-0.126l-0.062,0.126l0.391-0.126v0.126h0.135l0.122-0.126h0.255l0.526,0.126l0.526-0.126
			h0.645l0.647,0.126l0.135-0.126l0.12,0.126h0.391l0.128-0.119h0.01v0.119l0.351-0.116c0.078,0,0.164,0.002,0.264,0.002l1.595,0.1
			l0.024-0.118l3.516,0.073l0.16,4.882c-0.273,2.7-0.028,5.4,0.178,8.089l0.06,1.827l5.865-0.021l-0.017-0.396l-0.225-0.198
			l0.21-0.015l-0.21-0.183l-0.014-0.213l0.043-3.177l-0.21,0.015c-0.077-0.812,0.025-1.222,0.316-1.23
			c1.062-0.028,1.924,0.896,2.585,2.771c0.621,1.606,1.356,2.49,2.212,2.556l5.589,0.065l-0.014-0.21l-3.683-6.721
			c1.971-1.26,3.1-2.936,3.388-5.036c-0.014-0.04-0.018-0.089,0.022-0.15c0.068-0.582,0.076-1.191,0.017-1.831l-0.098-0.849
			l2.633-0.125h0.201c-0.037-0.004-0.071-0.006-0.104-0.007L775.945,186.494z M752.56,182.047c0.089,0,0.178-0.013,0.264,0.003
			c0.041,0.009,0.071,0.07,0.107,0.106c-0.054,0.029-0.118,0.091-0.159,0.077c-0.082-0.021-0.15-0.087-0.225-0.131
			C752.553,182.081,752.554,182.064,752.56,182.047 M751.701,185.373h-0.003c0.023,0.056,0.045,0.103,0.074,0.17
			c-0.008,0.007-0.019,0.016-0.025,0.022h-0.306c0.062-0.088,0.106-0.206,0.257-0.192c0-0.001,0-0.001-0.004-0.002
			c-0.071-0.063-0.148-0.125-0.26-0.218h0.423c0.021,0.057,0.046,0.123,0.091,0.24c-0.102-0.009-0.176-0.018-0.254-0.022
			L751.701,185.373z M752.188,184.371c-0.08,0.11-0.161,0.22-0.256,0.347c-0.018-0.017-0.045-0.034-0.05-0.059
			c-0.026-0.104,0.139-0.36,0.245-0.381c0.021-0.003,0.056,0.015,0.075,0.032C752.209,184.315,752.198,184.354,752.188,184.371
			 M751.879,184.073c0.048-0.087,0.092-0.175,0.139-0.264c0.031,0.018,0.062,0.036,0.096,0.052c-0.051,0.085-0.1,0.17-0.151,0.255
			C751.937,184.103,751.907,184.087,751.879,184.073 M752.049,182.339c0.04-0.068,0.075-0.134,0.128-0.234
			c-0.11-0.033-0.229-0.058-0.341-0.095c-0.064-0.019-0.126-0.053-0.184-0.089c-0.008-0.006,0.007-0.089,0.023-0.093
			c0.058-0.013,0.119-0.013,0.178-0.008c0.081,0.001,0.171,0.043,0.235,0.016c0.187-0.082,0.236,0.134,0.37,0.155
			c0.01,0.001,0.015,0.05,0.012,0.043c-0.06,0.033-0.139,0.059-0.139,0.078C752.344,182.284,752.216,182.319,752.049,182.339
			 M752.315,182.44c0.09,0.354,0.09,0.354,0,0.368V182.44z M752.877,185.565c0-0.313,0.014-0.626-0.288-0.817
			c0.032-0.093,0.06-0.177,0.088-0.263c-0.021-0.012-0.044-0.021-0.066-0.035c-0.078,0.095-0.16,0.189-0.238,0.282
			c-0.018-0.013-0.033-0.024-0.052-0.036c0.062-0.229,0.293-0.354,0.421-0.596c-0.131-0.015-0.241-0.026-0.36-0.038
			c0.011-0.023,0.02-0.066,0.048-0.088c0.106-0.088,0.11-0.214,0.045-0.298c-0.135-0.174-0.052-0.365-0.077-0.549
			c-0.008-0.042,0.029-0.094,0.05-0.157c0.185,0.164,0.177,0.357,0.193,0.577c0.02,0.013,0.071,0.041,0.132,0.076
			c-0.006,0.076-0.006,0.157-0.02,0.236c-0.032,0.186-0.015,0.209,0.169,0.188c0.012,0.188,0.022,0.369,0.04,0.615
			c0.007,0.076,0.019,0.209,0.031,0.341c0.02,0.185,0.04,0.375,0.062,0.562H752.877z M765.073,188.917l-0.525,1.361
			c-0.484,0.282-0.76,0.554-0.828,0.81l-0.073-0.077l-1.13,0.44l-1.307-0.199v-0.228l0.182-0.198l-0.018-0.437l-0.193-0.213h0.179
			l-0.179-0.228c-0.042-2.034,0.029-3.053,0.211-3.053l0.809-0.027C764.405,186.631,765.363,187.314,765.073,188.917
			 M768.333,188.071c0.092-0.275,0.199-0.312,0.394-0.136C768.595,187.982,768.477,188.022,768.333,188.071 M769.771,187.975
			c-0.062-0.017-0.118-0.031-0.188-0.049c-0.04,0.06-0.078,0.122-0.113,0.188c-0.022-0.008-0.044-0.015-0.064-0.021
			c0.031-0.092,0.049-0.249,0.098-0.259c0.086-0.019,0.189,0.05,0.289,0.082C769.785,187.936,769.778,187.956,769.771,187.975
			 M770.243,188.099c-0.089-0.007-0.181-0.005-0.263-0.031c-0.039-0.011-0.065-0.074-0.099-0.114
			c0.06-0.023,0.127-0.078,0.169-0.061c0.075,0.029,0.142,0.1,0.208,0.151C770.254,188.063,770.247,188.082,770.243,188.099
			 M770.183,186.509c0.012-0.077,0.019-0.156,0.039-0.233c0.051-0.185,0.032-0.207-0.148-0.204c0.007-0.187,0.014-0.371,0.021-0.615
			c0-0.077,0-0.21,0-0.346c0-0.184-0.003-0.376-0.007-0.562l0.178,0.017c-0.032,0.314-0.077,0.623,0.206,0.842
			c-0.042,0.088-0.078,0.171-0.115,0.254c0.022,0.012,0.044,0.024,0.064,0.038c0.089-0.084,0.178-0.171,0.264-0.256
			c0.018,0.014,0.034,0.028,0.049,0.042c-0.084,0.222-0.322,0.322-0.479,0.552c0.135,0.026,0.241,0.047,0.358,0.075
			c-0.011,0.02-0.027,0.062-0.053,0.081c-0.118,0.076-0.134,0.202-0.078,0.289c0.12,0.189,0.018,0.371,0.027,0.559
			c0.004,0.04-0.038,0.088-0.065,0.149c-0.171-0.184-0.144-0.374-0.14-0.595C770.286,186.583,770.236,186.548,770.183,186.509
			 M770.56,187.36c-0.015,0.122-0.024,0.246-0.039,0.366C770.467,187.367,770.467,187.367,770.56,187.36 M771.131,188.309
			c0.011,0.01-0.015,0.089-0.028,0.089c-0.061,0.009-0.121,0.004-0.177-0.006c-0.082-0.009-0.168-0.062-0.235-0.04
			c-0.191,0.066-0.22-0.153-0.354-0.188c-0.013-0.002-0.013-0.052-0.009-0.045c0.064-0.026,0.146-0.043,0.146-0.066
			c0.008-0.173,0.135-0.194,0.302-0.195c-0.042,0.061-0.081,0.125-0.149,0.223c0.111,0.039,0.225,0.076,0.335,0.122
			C771.022,188.23,771.081,188.269,771.131,188.309 M770.952,186.391c-0.031-0.018-0.062-0.037-0.091-0.054
			c0.056-0.084,0.113-0.163,0.172-0.246c0.026,0.021,0.052,0.038,0.077,0.055C771.06,186.229,771.003,186.312,770.952,186.391
			 M770.886,185.916c-0.023,0.002-0.053-0.018-0.071-0.034c-0.007-0.009,0.005-0.047,0.022-0.061
			c0.089-0.104,0.18-0.206,0.286-0.325c0.012,0.022,0.04,0.041,0.043,0.064C771.182,185.667,770.992,185.908,770.886,185.916"/>
	</g>
</g>
</svg>
