<?xml version="1.0" encoding="utf-8"?>
<!-- Generator: Adobe Illustrator 15.1.0, SVG Export Plug-In . SVG Version: 6.00 Build 0)  -->
<!DOCTYPE svg PUBLIC "-//W3C//DTD SVG 1.1//EN" "http://www.w3.org/Graphics/SVG/1.1/DTD/svg11.dtd">
<svg version="1.1" id="Layer_1" xmlns="http://www.w3.org/2000/svg" xmlns:xlink="http://www.w3.org/1999/xlink" x="0px" y="0px"
	 width="1000px" height="300px" viewBox="0 0 1000 300" enable-background="new 0 0 1000 300" xml:space="preserve">
<g>
	<g>
		<path fill="#FFFFFF" d="M429.514,35.136l6.188,18.192h-12.46L429.514,35.136z M419.342,66.028h20.766l3.384,10.515h15.418
			l-21.896-59.288h-14.789L400.34,76.543h15.252L419.342,66.028z"/>
		<polygon fill="#FFFFFF" points="416.343,107.247 401.024,107.247 401.024,101.794 413.116,101.794 413.116,94.283 401.024,94.283 
			401.024,89.313 415.158,89.313 415.158,80.979 391.607,80.979 391.607,115.342 416.343,115.342 		"/>
		<polygon fill="#FFFFFF" points="472.072,43.898 483.074,76.534 497.995,76.534 508.986,43.898 519.85,76.534 537.037,76.534 
			517.032,17.255 502.592,17.255 490.498,51.43 478.567,17.255 464.117,17.255 453.895,47.871 462.899,72.26 		"/>
		<polygon fill="#FFFFFF" points="363.898,96.493 378.558,115.342 386.899,115.342 386.899,80.978 377.478,80.978 377.478,99.143 
			363.36,80.978 354.481,80.978 354.481,115.342 363.898,115.342 		"/>
		<g>
			<path fill="#FFFFFF" d="M557.377,93.4c0,2.498-1.865,4.071-5.098,4.071h-6.63v-8.242h6.578c3.19,0,5.148,1.371,5.148,4.071
				L557.377,93.4L557.377,93.4z M567.141,92.808v-0.084c0-3.399-1.034-6.042-3.045-8.011c-2.306-2.357-5.936-3.731-11.181-3.731
				h-16.586v34.36h9.513v-10.405h4.521l6.911,10.405h10.988l-8.19-11.977C564.336,101.547,567.141,98.067,567.141,92.808"/>
		</g>
		<polygon fill="#FFFFFF" points="641.935,111.788 643.545,114.262 643.635,114.262 645.264,111.788 645.264,115.29 645.896,115.29 
			645.896,110.68 645.217,110.68 643.601,113.192 641.971,110.68 641.277,110.68 641.277,115.29 641.935,115.29 		"/>
		<g>
			<path fill="#FFFFFF" d="M563.152,77.462c13.018,0,20.504-5.635,26.042-13.293l-12.264-8.737
				c-3.537,4.287-7.143,7.146-13.276,7.146c-8.23,0-14.03-6.889-14.03-15.727v-0.164c0-8.583,5.8-15.561,14.03-15.561
				c5.641,0,9.498,2.689,12.858,6.894l12.266-9.496c-5.212-7.239-12.941-12.278-24.954-12.278c-17.81,0-30.992,13.447-30.992,30.605
				v0.169C532.832,64.597,546.359,77.462,563.152,77.462"/>
		</g>
		<polygon fill="#FFFFFF" points="640.268,110.68 636.679,110.68 636.679,111.342 638.149,111.342 638.149,115.29 638.797,115.29 
			638.797,111.342 640.268,111.342 		"/>
		<g>
			<path fill="#FFFFFF" d="M621.623,93.935c-4.758-1.071-5.936-1.767-5.936-3.335v-0.098c0-1.227,1.132-2.208,3.432-2.208
				c3.044,0,6.477,1.168,9.619,3.39l4.752-6.723c-3.725-2.993-8.285-4.569-14.127-4.569c-8.236,0-13.289,4.615-13.289,10.996v0.098
				c0,7.072,5.641,9.129,12.951,10.795c4.665,1.08,5.78,1.869,5.78,3.292v0.093c0,1.476-1.36,2.357-3.921,2.357
				c-3.968,0-7.753-1.421-11.126-4.122l-5.296,6.333c4.212,3.785,10.008,5.693,16.084,5.693c8.337,0,13.877-4.171,13.877-11.186
				v-0.104C634.425,98.208,629.521,95.657,621.623,93.935"/>
		</g>
		<polygon fill="#FFFFFF" points="604.702,80.979 593.428,80.979 581.604,94.921 581.604,80.979 572.094,80.979 572.094,115.344 
			581.604,115.344 581.604,106.458 585.088,102.581 593.719,115.344 605.145,115.344 591.717,95.751 		"/>
		<polygon fill="#FFFFFF" points="440.767,80.979 418.798,80.979 418.798,89.324 426.938,89.324 426.938,115.344 436.447,115.344 
			436.447,89.324 443.538,89.324 		"/>
		<g>
			<path fill="#FFFFFF" d="M523.043,98.256c0,4.967-3.484,9.184-8.739,9.184c-5.195,0-8.771-4.324-8.771-9.274v-0.098
				c0-4.953,3.483-9.179,8.684-9.179c5.246,0,8.828,4.314,8.828,9.277L523.043,98.256L523.043,98.256z M532.752,98.067
				c0-9.871-7.854-17.768-18.448-17.768c-10.585,0-18.529,7.995-18.529,17.866v0.09c0,9.87,7.847,17.777,18.44,17.777
				s18.537-8.004,18.537-17.867V98.067z"/>
		</g>
		<polygon fill="#FFFFFF" points="486.945,80.979 481.135,100.866 474.745,80.979 466.738,80.979 460.335,100.866 454.542,80.979 
			444.782,80.979 456.411,115.344 464.3,115.344 470.626,95.803 476.993,115.344 484.882,115.344 496.511,80.979 		"/>
	</g>
	<g>
		<polygon fill="#FFFFFF" points="10.373,279.393 36.858,270.225 35.124,265.216 15.672,271.951 15.672,109.781 35.124,116.514 
			36.858,111.506 10.373,102.338 		"/>
		<polygon fill="#FFFFFF" points="963.521,111.506 965.254,116.515 984.707,109.781 984.707,271.951 965.254,265.216 
			963.521,270.225 990.004,279.393 990.004,102.338 		"/>
	</g>
	<g>
		<path fill="#FFFFFF" d="M152.675,147.078c-0.684,0-1.23-0.528-1.23-1.293c0-0.764,0.547-1.29,1.23-1.29
			c0.667,0,1.229,0.526,1.229,1.29C153.905,146.55,153.342,147.078,152.675,147.078 M152.675,144.038
			c-0.949,0-1.822,0.637-1.822,1.747c0,1.099,0.873,1.743,1.822,1.743c0.939,0,1.815-0.644,1.815-1.743
			C154.49,144.675,153.614,144.038,152.675,144.038"/>
		<path fill="#FFFFFF" d="M152.757,145.601h-0.344v-0.432h0.247c0.145,0,0.348,0.008,0.348,0.2
			C153.007,145.569,152.916,145.601,152.757,145.601 M153.469,145.413c0-0.45-0.299-0.569-0.793-0.569h-0.721v1.879h0.458v-0.786
			h0.124l0.432,0.786h0.444l-0.474-0.808C153.263,145.894,153.469,145.758,153.469,145.413"/>
		<path fill="#FFFFFF" d="M69.952,169.354c-2.178,0.209-5.138,0.943-5.138,3.504c0,1.89,1.881,2.744,4.545,2.744
			c3.082,0,5.521-1.485,6.186-2.936c0.346-0.729,0.547-1.451,0.547-2.191v-1.355h-1.705
			C73.497,169.116,72.118,169.13,69.952,169.354"/>
		<path fill="#FFFFFF" d="M69.952,169.354c-2.178,0.209-5.138,0.943-5.138,3.504c0,1.89,1.881,2.744,4.545,2.744
			c3.082,0,5.521-1.485,6.186-2.936c0.346-0.729,0.547-1.451,0.547-2.189v-1.358h-1.705
			C73.497,169.116,72.118,169.13,69.952,169.354"/>
		<path fill="#FFFFFF" d="M126.692,180.471c-7.028,0-11.931-5.566-11.931-12.908c0-7.668,4.93-12.91,11.931-12.91
			c5.856,0,10.466,4.121,11.639,9.94h-5.612c-0.939-2.844-3.214-4.756-6.027-4.756c-3.7,0-6.489,3.328-6.489,7.726
			c0,4.396,2.789,7.732,6.489,7.732c2.827,0,5.116-1.938,6.039-4.818h5.62C137.193,176.324,132.57,180.471,126.692,180.471
			 M106.23,179.886v-18.052l-5.046,18.052h-5.36l-5.042-18.052v18.052h-5.816v-24.625h8.906c0,0,4.216,15.767,4.634,17.702
			l4.628-17.702h8.906l0.013,24.625H106.23z M81.688,179.886h-5.364l-0.149-1.89c-1.315,1.066-4.7,2.475-8.187,2.475
			c-5.417,0-8.933-4.104-8.933-7.556c0-6.644,6.904-8.276,15.277-8.276h1.718c0,0,0.003-0.455,0.003-0.56
			c0-0.876-0.439-4.579-5.018-4.579c-3.823,0-4.977,1.693-5.388,3.2h-5.633c0-1.875,1.465-8.04,10.934-8.04
			c7.976,0,10.738,4.271,10.738,11.839v13.387H81.688z M149.488,144.324H47.916V190.8h101.572V144.324z"/>
	</g>
	<g>
		<polygon fill="#FFFFFF" points="205.115,182.457 200.049,176.195 197.984,176.195 197.984,191.439 200.166,191.439 
			200.166,179.578 204.908,185.473 205.311,185.473 209.997,179.578 209.997,191.439 212.191,191.439 212.191,176.195 
			210.152,176.195 		"/>
		<path fill="#FFFFFF" d="M186.64,184.979l2.282-5.52l2.46,5.52H186.64z M188.175,176.109l-6.548,15.33h2.242l1.907-4.518h6.505
			l2.031,4.518h2.234l-6.836-15.33H188.175z"/>
		<g>
			<path fill="#FFFFFF" d="M230.573,155.239c0.569-0.466,0.852-1.118,0.852-1.949c0-0.742-0.261-1.33-0.782-1.765
				s-1.208-0.651-2.059-0.651h-2.663v5.063h2.334C229.232,155.938,230.007,155.704,230.573,155.239"/>
		</g>
		<path fill="#FFFFFF" d="M267.126,184.927l2.28-5.522l2.46,5.522H267.126z M270.193,176.052h-1.534l-6.548,15.332h2.242
			l1.905-4.518h6.506l2.03,4.518h2.235L270.193,176.052z"/>
		<g>
			<path fill="#FFFFFF" d="M234.26,182.581c-0.411,0.188-1.17,0.284-2.274,0.284h-0.832v-4.812h0.654
				c1.069,0,1.836,0.079,2.299,0.239c0.462,0.161,0.819,0.437,1.075,0.822c0.253,0.392,0.38,0.827,0.38,1.308
				c0,0.487-0.114,0.918-0.343,1.303C234.991,182.105,234.671,182.391,234.26,182.581 M238.642,188.396
				c-0.844-1.375-1.499-2.34-1.965-2.893c-0.465-0.552-0.942-0.988-1.431-1.309c0.83-0.32,1.467-0.803,1.912-1.452
				c0.444-0.646,0.666-1.415,0.666-2.302c0-1.301-0.454-2.332-1.36-3.1c-0.904-0.764-2.129-1.146-3.673-1.146h-3.818v15.244h2.182
				v-6.633h0.569c0.713,0,1.221,0.082,1.522,0.245c0.302,0.163,0.641,0.431,1.017,0.8c0.376,0.371,0.789,0.871,1.24,1.494
				l0.729,1.191l0.678,1.113l0.424,0.604c0.066,0.085,0.109,0.146,0.129,0.184l0.667,1.004h2.596l-0.808-1.09
				C239.597,189.913,239.174,189.262,238.642,188.396"/>
		</g>
		<rect x="242.728" y="176.195" fill="#FFFFFF" width="2.184" height="15.244"/>
		<g>
			<path fill="#FFFFFF" d="M270.614,165.469c-0.002,0.107-0.188,0.245-0.318,0.309c-1.792,0.879-3.683,1.396-5.673,1.57
				c-2.169,0.188-4.28-0.061-6.304-0.853c-2.992-1.17-4.936-3.334-5.834-6.417c-1.344-4.62,1.097-9.692,5.979-11.547
				c3.108-1.18,6.242-1.112,9.385-0.176c0.791,0.237,1.834,0.605,2.609,0.89v3.532c-0.142-0.066-0.242-0.107-0.335-0.156
				c-1.761-0.934-3.606-1.624-5.587-1.869c-2.72-0.333-5.191,0.227-7.166,2.254c-1.061,1.094-1.54,2.471-1.663,3.973
				c-0.187,2.203,0.541,4.07,2.185,5.539c1.188,1.062,2.653,1.514,4.206,1.721c2.72,0.365,5.167-0.442,7.515-1.703
				c0.318-0.172,0.628-0.357,1.016-0.577C270.628,163.17,270.638,164.318,270.614,165.469 M276.292,144.082h-28.517v26.762h28.517
				V144.082z"/>
			<path fill="#FFFFFF" d="M251.855,187.992c-1.135-1.077-1.703-2.45-1.703-4.125c0-1.659,0.579-3.039,1.729-4.141
				c1.151-1.103,2.603-1.652,4.35-1.652c1.702,0,3.445,0.509,5.228,1.527v-2.347c-1.957-0.835-3.737-1.255-5.337-1.255
				c-2.321,0-4.272,0.756-5.856,2.271c-1.581,1.511-2.374,3.377-2.374,5.597c0,1.399,0.347,2.696,1.036,3.897
				c0.692,1.197,1.631,2.14,2.817,2.824c1.186,0.686,2.631,1.026,4.332,1.026c2.097,0,3.943-0.438,5.545-1.312v-2.399
				c-1.763,1.137-3.565,1.702-5.412,1.702C254.443,189.607,252.99,189.068,251.855,187.992"/>
			<path fill="#FFFFFF" d="M235.92,164.634c-0.544,0.836-1.3,1.47-2.265,1.888c-0.964,0.42-2.103,0.631-3.412,0.631h-7.708v-19.175
				h6.706c1.758,0,3.19,0.459,4.297,1.372c1.107,0.916,1.662,2.06,1.662,3.431c0,0.879-0.233,1.653-0.694,2.319
				c-0.462,0.668-1.132,1.199-2.009,1.594v0.166c1.336,0.3,2.376,0.897,3.121,1.789c0.746,0.893,1.118,1.938,1.118,3.138
				C236.735,162.848,236.463,163.796,235.92,164.634 M243.613,144.081h-28.519v26.762h28.519V144.081z"/>
			<path fill="#FFFFFF" d="M231.967,159.542c-0.636-0.471-1.49-0.705-2.56-0.705h-3.487v5.419h3.197
				c1.255,0,2.201-0.234,2.843-0.707c0.638-0.471,0.959-1.165,0.959-2.078C232.92,160.658,232.603,160.014,231.967,159.542"/>
			<path fill="#FFFFFF" d="M203.042,164.634c-0.545,0.836-1.3,1.47-2.266,1.888c-0.964,0.42-2.103,0.631-3.41,0.631h-7.711v-19.175
				h6.708c1.756,0,3.189,0.459,4.295,1.372c1.107,0.916,1.664,2.06,1.664,3.431c0,0.879-0.232,1.653-0.696,2.319
				c-0.462,0.668-1.132,1.199-2.011,1.594v0.166c1.336,0.3,2.378,0.897,3.124,1.789c0.747,0.893,1.12,1.938,1.12,3.138
				C203.86,162.848,203.586,163.796,203.042,164.634 M210.584,144.081h-28.519v26.762h28.519V144.081z"/>
			<path fill="#FFFFFF" d="M199.088,159.542c-0.635-0.471-1.489-0.705-2.562-0.705h-3.484v5.419h3.197
				c1.255,0,2.203-0.234,2.843-0.707c0.641-0.471,0.961-1.165,0.961-2.078C200.043,160.658,199.723,160.014,199.088,159.542"/>
			<path fill="#FFFFFF" d="M197.695,155.239c0.568-0.466,0.853-1.118,0.853-1.949c0-0.742-0.261-1.33-0.785-1.765
				c-0.521-0.435-1.208-0.651-2.059-0.651h-2.662v5.063h2.333C196.354,155.938,197.127,155.704,197.695,155.239"/>
		</g>
		<polygon fill="#FFFFFF" points="218.449,184.741 224.691,184.741 224.691,182.787 218.449,182.787 218.449,178.139 
			224.908,178.139 224.908,176.195 216.266,176.195 216.266,191.42 225.118,191.42 225.118,189.477 218.449,189.477 		"/>
	</g>
	<g>
		<path fill="#FFFFFF" d="M375.792,145.904c0-0.63,0.499-1.154,1.137-1.154c0.642,0,1.132,0.513,1.132,1.143v0.012
			c0,0.621-0.497,1.143-1.132,1.143c-0.648,0-1.137-0.514-1.137-1.14V145.904z M376.929,147.186c0.711,0,1.279-0.582,1.279-1.282
			v-0.012c0-0.702-0.559-1.279-1.279-1.279c-0.711,0-1.282,0.587-1.282,1.291v0.002
			C375.647,146.607,376.205,147.186,376.929,147.186"/>
		<path fill="#FFFFFF" d="M376.749,145.522h0.243c0.136,0,0.206,0.061,0.206,0.167c0,0.093-0.069,0.156-0.206,0.156h-0.243V145.522z
			 M376.749,146.146h0.165l0.268,0.408h0.448l-0.33-0.468c0.167-0.068,0.278-0.22,0.278-0.429c0-0.318-0.232-0.461-0.558-0.461
			h-0.653v1.358h0.383L376.749,146.146L376.749,146.146z"/>
		<path fill="#FFFFFF" d="M373.457,166.533c-2.35,4.668-7,9.033-13.111,10.248c-8.619,1.719-15.227-3.016-15.436-12.577v-0.086
			c-0.205-10.115,5.952-17.022,14.807-18.778c5.649-1.121,10.165,0.884,12.681,4.272c0.32,0.433,0.28,0.672,0.042,0.878
			c-0.253,0.207-7.57,6.289-7.864,6.525c-0.304,0.235-0.556,0.074-0.658-0.014c-1.012-0.938-2.103-1.271-3.706-0.961
			c-2.6,0.514-4.829,3.363-4.747,6.171v0.056c0.074,2.89,2.436,4.284,5.031,3.766c1.806-0.356,2.896-1.333,3.912-2.766
			c0.073-0.104,0.196-0.317,0.56-0.207c0.356,0.116,8.123,2.399,8.503,2.531C373.855,165.738,373.59,166.264,373.457,166.533
			 M342.893,158.593c0,0.231-0.165,0.406-0.382,0.444l-9.155,1.502l0.008,0.003c-0.119,0-0.232,0.103-0.232,0.224v3.832
			c0,0.12,0.114,0.221,0.232,0.221v0.004c0,0,7.713-1.258,7.749-1.258c0.251,0,0.449,0.189,0.449,0.441v8.885
			c0,0.223-0.164,0.407-0.375,0.44l-7.831,1.278l0.008,0.009c-0.109,0-0.206,0.073-0.222,0.184v5.591
			c0,0.229-0.18,0.424-0.408,0.443c0,0-10.04,1.643-10.092,1.643c-0.247,0-0.449-0.199-0.449-0.443v-29.232
			c0-0.221,0.161-0.404,0.371-0.438l19.787-3.238c0.032-0.011,0.061-0.011,0.095-0.011c0.25,0,0.446,0.198,0.446,0.445
			L342.893,158.593L342.893,158.593z M318.219,182.825c0,0.216-0.152,0.401-0.36,0.438l-10.314,1.69
			c-0.029,0.007-0.063,0.011-0.093,0.011c-0.242,0-0.438-0.191-0.451-0.432v-29.239c0-0.217,0.158-0.405,0.373-0.438l10.33-1.695
			c0.022-0.006,0.047-0.006,0.071-0.006c0.251,0,0.444,0.201,0.444,0.447L318.219,182.825L318.219,182.825z M373.829,165.333
			c0,0-0.003,0-0.011-0.008c-0.063-0.048-0.139-0.091-0.215-0.123c-0.225-0.075-8.379-2.485-8.519-2.533
			c-0.42-0.132-0.757-0.021-1.012,0.347l-0.012,0.012c-1.094,1.553-2.15,2.303-3.643,2.598c0.046-0.427,0.109-0.757,0.109-0.757
			c0.43-2.578,2.471-4.651,4.663-5.078c1.325-0.263,2.294-0.078,3.161,0.512c0.011,0.013,0.547,0.437,0.547,0.437
			c0.109,0.102,0.355,0.26,0.659,0.021l8.514-6.75c0.1-0.085,0.166-0.206,0.166-0.34c0-0.101-0.035-0.188-0.083-0.259l-0.083-0.102
			c-0.724-0.979-3.258-2.896-6.189-5.116c-0.313-0.24-0.633-0.484-0.955-0.735c-1.319-1.104-2.909-1.917-4.626-2.378
			c-2.083-0.56-4.344-0.601-6.705-0.136c-4.536,0.891-8.35,3.104-11.028,6.391c-0.329,0.397-0.635,0.813-0.918,1.239l-4.702-3.706
			h-0.007c-0.135-0.109-0.313-0.173-0.506-0.173c-0.055,0-0.112,0.008-0.167,0.016l-19.774,3.242c-0.419,0.07-0.727,0.43-0.727,0.85
			v2.85l-3.459-2.733c-0.147-0.124-0.334-0.187-0.536-0.187c-0.044,0-0.098,0.006-0.139,0.006c-0.013,0-10.328,1.695-10.328,1.695
			c-0.019,0.004-0.032,0.012-0.044,0.012c-0.398,0.094-0.683,0.438-0.683,0.843v29.246c0.014,0.254,0.127,0.476,0.303,0.626
			l5.515,4.383c0.079,0.055,0.172,0.096,0.278,0.096c0.03,0,12.991-2.128,12.991-2.128c0.214-0.042,0.372-0.218,0.372-0.444v-1.778
			l2.106,1.679c0.158,0.116,0.323,0.09,0.323,0.09l10.169-1.669c0.211-0.028,0.376-0.212,0.376-0.44v-5.698
			c0.006-0.097,0.071-0.176,0.167-0.21l9.179-1.505c0.215-0.032,0.377-0.214,0.377-0.437v-2.273
			c3.505,3.402,8.591,5.749,8.591,5.749c2.488,1.186,5.54,1.499,8.89,0.836c6.05-1.209,10.792-5.65,13.168-10.273h0.003
			c0.066-0.108,0.111-0.217,0.166-0.325c0.128-0.248,0.342-0.668,0.109-0.857L373.829,165.333z"/>
	</g>
	<g>
		<path fill="#FFFFFF" d="M485.2,172.188l1.181-9.39c0.189-1.319,0.282-2.457,0.436-3.87h0.04c0.139,1.368,0.233,2.551,0.425,3.87
			l1.133,9.39H485.2z M483.886,149.157l-5.752,35.069h5.752l0.986-7.834h3.871l0.987,7.834h6.18l-5.709-35.069H483.886z"/>
		<polygon fill="#FFFFFF" points="539.803,168.176 544.271,168.176 544.271,163.175 539.803,163.175 539.803,154.634 
			546.209,154.634 546.209,149.3 533.721,149.3 533.721,184.227 546.451,184.227 546.451,179.077 539.803,179.077 		"/>
		<g>
			<path fill="#FFFFFF" d="M468.471,179.08h-0.897v-24.444h0.853c3.06,0,3.438,2.599,3.438,12.126
				C471.862,176.156,471.484,179.08,468.471,179.08 M467.474,149.3h-5.979v34.927h5.979c6.75,0,10.616-2.693,10.616-17.465
				C478.09,151.895,474.359,149.3,467.474,149.3"/>
			<path fill="#FFFFFF" d="M523.773,179.08c-2.029,0-2.316-3.35-2.316-12.318c0-8.731,0.234-12.177,2.266-12.177
				c1.511,0,2.027,1.749,2.118,8.028l5.755-0.235c-0.095-10.337-2.314-13.408-7.873-13.408c-5.75,0-8.489,4.667-8.489,17.792
				c0,13.124,2.69,17.792,8.541,17.792c6.59,0,7.728-5.95,8.053-13.118l-5.745-0.24C525.895,177.712,525.417,179.08,523.773,179.08"
				/>
			<path fill="#FFFFFF" d="M507.693,160.064c0,2.406,0.049,6.181,0.282,9.576h-0.092c-0.569-3.256-1.372-6.697-2.081-9.677
				l-2.686-10.664h-5.708v34.927h5.235v-11.049c0-1.836-0.05-7.223-0.278-9.482h0.092c0.569,3.396,1.557,6.416,2.408,9.482
				l3.065,11.049h4.994V149.3h-5.233L507.693,160.064L507.693,160.064z"/>
			<path fill="#FFFFFF" d="M412.604,156.95c0-1.616,0.472-2.694,1.604-2.694c1.27,0,1.979,0.566,2.264,5.57l5.701-0.52
				c-0.423-6.652-2.166-10.337-8.062-10.337c-4.901,0-7.543,3.298-7.543,8.587c0,5.198,2.878,8.262,5.469,11.189
				c2.356,2.643,4.479,4.625,4.479,7.592c0,2.131-0.749,3.121-2.122,3.121c-1.744,0-2.264-1.415-2.731-6.373l-5.657,0.428
				c0.468,6.418,1.654,11.041,8.345,11.041c5.236,0,8.151-2.972,8.151-8.541c0-5.565-2.915-8.308-5.606-11.188
				C414.63,162.378,412.604,160.395,412.604,156.95"/>
			<path fill="#FFFFFF" d="M453.24,160.064c0,2.406,0.048,6.181,0.284,9.576h-0.094c-0.563-3.256-1.371-6.697-2.072-9.677
				L448.67,149.3h-5.708v34.927h5.231v-11.049c0-1.836-0.039-7.223-0.281-9.482h0.093c0.571,3.396,1.56,6.416,2.407,9.482
				l3.07,11.049h4.992V149.3h-5.235L453.24,160.064L453.24,160.064z"/>
			<path fill="#FFFFFF" d="M434.242,174.174c0,4.107-0.375,5.285-1.93,5.285c-1.602,0-1.935-1.277-1.935-5.371v-24.786h-6.079
				v25.151c0,6.521,1.881,10.102,7.818,10.102s7.921-3.636,7.921-10.24v-25.014h-5.796V174.174z"/>
		</g>
		<polygon fill="#FFFFFF" points="550.689,154.636 555.26,154.636 555.26,184.227 561.39,184.227 561.39,154.636 565.914,154.636 
			565.914,149.302 550.689,149.302 		"/>
		<polygon fill="#FFFFFF" points="582.638,179.666 583.662,179.666 583.662,184.326 584.207,184.326 584.207,179.666 
			585.221,179.666 585.221,179.175 582.638,179.175 		"/>
		<path fill="#FFFFFF" d="M578.123,149.3l-1.882,17.272c-0.284,2.688-0.571,5.85-0.759,8.824h-0.091
			c-0.241-2.976-0.473-6.136-0.762-8.824l-1.928-17.272h-6.132l5.47,35.072h6.322l5.516-35.072H578.123L578.123,149.3z"/>
		<path fill="#FFFFFF" d="M587.479,183.497h-0.02l-0.977-4.317h-0.679v5.146h0.455v-4.27h0.019c0.042,0.305,0.188,0.979,0.311,1.493
			l0.623,2.776h0.449l0.615-2.719c0.125-0.547,0.28-1.205,0.328-1.556h0.009v4.273h0.498v-5.146h-0.678L587.479,183.497z"/>
	</g>
	<g>
		<path fill="#FFFFFF" d="M673.131,149.708c-0.77,0-1.383-0.624-1.383-1.405c0-0.76,0.613-1.396,1.35-1.396h0.023
			c0.742,0,1.365,0.626,1.365,1.382C674.486,149.075,673.881,149.708,673.131,149.708 M673.094,146.666
			c-0.877,0-1.608,0.746-1.608,1.638c0,0.904,0.731,1.642,1.637,1.642c0.881,0,1.627-0.737,1.627-1.615
			C674.748,147.387,674.033,146.666,673.094,146.666"/>
		<path fill="#FFFFFF" d="M672.951,148.199h-0.062v-0.514h0.07c0.252,0,0.377,0.085,0.377,0.25
			C673.338,148.105,673.207,148.199,672.951,148.199 M673.281,148.458l0.022-0.005c0.224-0.066,0.384-0.281,0.384-0.523
			c0-0.185-0.101-0.362-0.244-0.458c-0.14-0.079-0.279-0.108-0.533-0.108h-0.24c-0.102,0-0.139,0.039-0.139,0.133v1.619
			c0,0.098,0.037,0.136,0.131,0.136h0.096c0.096,0,0.133-0.038,0.133-0.131l0.004-0.618l0.511,0.683
			c0.041,0.057,0.059,0.066,0.129,0.066h0.141c0.058,0,0.107-0.047,0.107-0.104c0-0.023-0.015-0.057-0.037-0.09L673.281,148.458z"/>
		<path fill="#FFFFFF" d="M622.055,179.266h6.066c1.416,0,1.465-0.052,1.711-1.468l3.078-18.09l3.079,18.09
			c0.245,1.417,0.294,1.468,1.712,1.468h6.063c1.271,0,1.517-0.148,1.661-0.979l6.014-29.811c0.098-0.491,0.146-0.735,0.146-0.882
			c0-0.685-0.39-0.928-1.611-0.928H644.2c-1.416,0-1.467,0.047-1.709,1.465l-2.445,18.75c0,0-1.535-9.493-2.021-12.397
			c-0.486-2.9-1.058-6.399-1.058-6.399c-0.245-1.371-0.294-1.418-1.711-1.418h-4.692c-1.416,0-1.466,0.047-1.709,1.418
			c0,0-0.572,3.499-1.058,6.399c-0.486,2.904-2.021,12.397-2.021,12.397l-2.445-18.75c-0.245-1.418-0.292-1.465-1.709-1.465h-5.774
			c-1.222,0-1.612,0.243-1.612,0.928c0,0.147,0.049,0.391,0.146,0.882l6.011,29.811
			C620.538,179.116,620.783,179.266,622.055,179.266"/>
		<path fill="#FFFFFF" d="M668.404,183.462l-1.172,4.048c-0.076,0.268-0.109,0.293-0.377,0.293h-0.873
			c-0.269,0-0.306-0.027-0.38-0.293l-0.933-3.223h-0.938v3.223c0,0.268-0.027,0.293-0.295,0.293h-0.771
			c-0.268,0-0.296-0.027-0.296-0.293v-3.223h-0.735c-0.267,0-0.293-0.025-0.293-0.292v-0.533c0-0.267,0.026-0.292,0.293-0.292h0.735
			v-1.014c0-0.268,0.028-0.293,0.296-0.293h0.771c0.268,0,0.295,0.025,0.295,0.293v1.014h1.705c0.27,0,0.299,0.025,0.362,0.292
			l0.617,2.563l0.615-2.563c0.063-0.267,0.098-0.292,0.364-0.292h0.796C668.463,183.17,668.48,183.195,668.404,183.462
			 M667.928,180.918h-49.738c-1.465,0-1.612,0.146-1.612,1.611v4.594c0,1.467,0.147,1.613,1.614,1.613h49.736
			c1.465,0,1.613-0.146,1.613-1.613v-4.594C669.541,181.064,669.393,180.918,667.928,180.918"/>
		<path fill="#FFFFFF" d="M667.928,146.666H654.78c-1.469,0-1.613,0.147-1.613,1.611v29.375c0,1.465,0.146,1.613,1.613,1.613h13.147
			c1.465,0,1.613-0.147,1.613-1.613v-4.594c0-1.467-0.148-1.613-1.613-1.613h-5.965v-4.985h5.184c1.466,0,1.609-0.146,1.609-1.612
			v-4.154c0-1.465-0.145-1.611-1.609-1.611h-5.184v-4.741h5.965c1.465,0,1.613-0.147,1.613-1.614v-4.448
			C669.541,146.812,669.393,146.666,667.928,146.666"/>
	</g>
	<g>
		<g>
			<path fill="#FFFFFF" d="M783.854,180.673c-7.026,0-11.934-5.597-11.934-12.991c0-7.719,4.934-12.992,11.934-12.992
				c5.851,0,10.457,4.144,11.634,10.002h-5.611c-0.938-2.861-3.217-4.791-6.021-4.791c-3.701,0-6.488,3.353-6.488,7.781
				c0,4.43,2.787,7.782,6.488,7.782c2.819,0,5.11-1.952,6.036-4.843h5.605C794.34,176.507,789.721,180.673,783.854,180.673
				 M763.404,180.088v-18.176l-5.045,18.176h-5.355l-5.041-18.176v18.176h-5.813v-24.795h8.901c0,0,4.213,15.871,4.631,17.828
				l4.629-17.828h8.896l0.008,24.795H763.404z M738.875,180.088h-5.359l-0.149-1.904c-1.314,1.075-4.697,2.489-8.177,2.489
				c-5.42,0-8.936-4.128-8.936-7.608c0-6.683,6.9-8.325,15.268-8.325c0.027,0,1.72,0.001,1.72,0.001v-0.001
				c0,0,0.006-0.454,0.006-0.572c0-0.884-0.441-4.603-5.014-4.603c-3.822,0-4.974,1.707-5.39,3.221h-5.633
				c0-1.889,1.471-8.092,10.928-8.092c7.979,0,10.736,4.3,10.736,11.918V180.088z M806.633,144.283h-101.51v46.797h101.51V144.283z"
				/>
			<path fill="#FFFFFF" d="M727.141,169.48c-2.178,0.222-5.131,0.951-5.131,3.53c0,1.902,1.877,2.761,4.539,2.761
				c3.08,0,5.525-1.489,6.185-2.951c0.35-0.734,0.553-1.463,0.553-2.198v-1.375h-1.707
				C730.691,169.244,729.311,169.261,727.141,169.48"/>
			<path fill="#FFFFFF" d="M957.387,156.48v-0.658h0.379c0.216,0,0.457,0.062,0.457,0.316c0,0.277-0.27,0.34-0.504,0.34h-0.332
				V156.48z M958.637,156.146c0-0.496-0.422-0.674-0.852-0.674h-0.811v2.305h0.411v-0.965h0.298l0.538,0.965h0.503l-0.619-1.01
				C958.43,156.695,958.637,156.48,958.637,156.146 M957.773,158.364c-0.953,0-1.726-0.786-1.726-1.731
				c0-0.953,0.771-1.729,1.726-1.729c0.95,0,1.723,0.774,1.723,1.729C959.496,157.578,958.725,158.364,957.773,158.364
				 M957.773,154.589c-1.131,0-2.047,0.908-2.047,2.043c0,1.136,0.916,2.026,2.047,2.026s2.049-0.891,2.049-2.026
				C959.822,155.497,958.904,154.589,957.773,154.589"/>
			<path fill="#FFFFFF" d="M829.889,158.85c-1.021-1.459-2.68-2.408-4.955-2.408c-2.371,0-5.121,1.425-5.121,4.512
				c0,3.053,2.546,3.834,5.226,4.716c3.389,1.12,7.121,2.206,7.121,7.021c0,4.819-4.037,6.922-7.834,6.922
				c-2.916,0-5.834-1.188-7.566-3.562l2.104-1.559c1.053,1.695,2.985,3.02,5.498,3.02c2.473,0,5.323-1.562,5.323-4.648
				c0-3.359-2.813-4.209-5.866-5.157c-3.189-0.983-6.447-2.375-6.447-6.716c0-4.648,4.139-6.615,7.668-6.615
				c3.221,0,5.629,1.355,6.783,2.917L829.889,158.85z"/>
		</g>
		<polygon fill="#FFFFFF" points="845.492,179.002 843.049,179.002 843.049,157.154 835.012,157.154 835.012,154.984 
			853.531,154.984 853.531,157.154 845.492,157.154 		"/>
		<g>
			<path fill="#FFFFFF" d="M856.482,170.045v-15.061h2.44v14.791c0,3.865,1.664,7.666,6.549,7.666c4.888,0,6.55-3.801,6.55-7.666
				v-14.791h2.438v15.061c0,4.002-1.797,9.566-8.988,9.566C858.283,179.613,856.482,174.047,856.482,170.045"/>
			<path fill="#FFFFFF" d="M882.639,176.832h4.853c7.225,0,10.719-4.887,10.719-9.839c0-4.953-3.494-9.839-10.719-9.839h-4.853
				V176.832z M880.195,154.982h7.973c6.004,0,12.619,4.004,12.619,12.01c0,8.005-6.615,12.01-12.619,12.01h-7.973V154.982z"/>
		</g>
		<rect x="905.365" y="154.984" fill="#FFFFFF" width="2.442" height="24.019"/>
		<path fill="#FFFFFF" d="M924.906,156.51c-6.176,0-9.939,4.887-9.939,10.484c0,5.597,3.764,10.449,9.939,10.449
			c6.172,0,9.94-4.853,9.94-10.449C934.848,161.396,931.078,156.51,924.906,156.51 M924.906,179.613
			c-7.158,0-12.519-5.325-12.519-12.619s5.359-12.62,12.519-12.62c7.156,0,12.518,5.325,12.518,12.62
			C937.424,174.288,932.062,179.613,924.906,179.613"/>
		<path fill="#FFFFFF" d="M952.281,158.85c-1.017-1.459-2.68-2.408-4.949-2.408c-2.377,0-5.123,1.425-5.123,4.512
			c0,3.053,2.543,3.834,5.223,4.716c3.392,1.12,7.125,2.206,7.125,7.021c0,4.819-4.037,6.922-7.838,6.922
			c-2.916,0-5.834-1.188-7.563-3.562l2.104-1.559c1.054,1.695,2.986,3.02,5.494,3.02c2.479,0,5.326-1.562,5.326-4.648
			c0-3.359-2.814-4.209-5.867-5.157c-3.188-0.983-6.447-2.375-6.447-6.716c0-4.648,4.142-6.615,7.669-6.615
			c3.225,0,5.633,1.355,6.784,2.917L952.281,158.85z"/>
	</g>
	<g>
		<g>
			<path fill="#FFFFFF" d="M103.979,230.918c-4.449,0-6.023-4.009-6.023-8.256c0-1.135,0-4.376,2.136-6.439
				c0.607-0.605,1.861-1.543,3.844-1.543c3.799,0,5.176,3.043,5.906,4.74l7.558-3.76c-0.598-1.141-1.164-2.105-2.375-3.366
				c-3-3.071-7.125-4.614-11.453-4.614c-9.665,0-14.798,7.818-14.798,15.51c0,7.326,4.607,15.015,14.798,15.015
				c4.095,0,8.167-1.335,11.088-4.212c1.361-1.377,2.049-2.666,2.786-4.047l-7.679-3.721
				C109.437,227.195,108.18,230.918,103.979,230.918"/>
		</g>
		<polygon fill="#FFFFFF" points="63.359,237.363 72.376,237.363 72.376,226.342 85.08,226.342 85.08,220.189 72.376,220.189 
			72.376,215.05 85.968,215.05 85.968,208.732 63.359,208.732 		"/>
		<polygon fill="#FFFFFF" points="122.259,237.363 126.068,237.363 126.068,223.918 139.574,223.918 139.574,220.596 
			126.068,220.596 126.068,212.139 140.582,212.139 140.582,208.729 122.259,208.729 		"/>
		<rect x="143.505" y="218.286" fill="#FFFFFF" width="3.111" height="19.077"/>
		<g>
			<path fill="#FFFFFF" d="M54.416,210.781h4.836c0.21,0,0.449,0.044,0.702,0.115l-0.044-2.158H47.876v28.625h12.078v-21.518
				c-0.253,0.074-0.492,0.115-0.702,0.115h-4.836c-0.824,0-1.486-0.666-1.486-1.488v-2.205
				C52.929,211.447,53.591,210.781,54.416,210.781"/>
		</g>
		<rect x="143.505" y="208.773" fill="#FFFFFF" width="3.111" height="3.356"/>
		<g>
			<path fill="#FFFFFF" d="M197.405,226.434l-1.818-0.447c-2.514-0.607-4.568-1.172-4.568-3c0-1.293,1.254-2.791,3.758-2.791
				c0.971,0,2.429,0.162,3.679,1.134c1.257,0.971,1.337,1.899,1.38,3.075l3.479-0.443c-0.65-4.498-4.529-6.238-8.169-6.238
				c-4.411,0-7.371,2.186-7.371,5.668c0,3.969,3.769,4.816,6.839,5.549l1.82,0.369c2.31,0.437,3.967,0.851,3.967,3.03
				c0,2.069-1.657,3.158-4.493,3.158c-1.293,0-2.708-0.117-3.842-1.088c-1.461-1.255-1.461-2.874-1.419-3.726l-3.63,0.562
				c0.354,3.203,2.217,4.746,2.836,5.192c1.522,1.088,3.749,1.537,5.895,1.537c5.258,0,8.009-2.912,8.009-6.033
				C203.758,227.93,199.676,226.957,197.405,226.434"/>
		</g>
		<rect x="150.854" y="208.773" fill="#FFFFFF" width="3.112" height="28.59"/>
		<g>
			<path fill="#FFFFFF" d="M178.519,217.682c-2.84,0-4.699,1.864-6.353,3.519c-0.892-1.492-2.064-3.519-5.186-3.519
				c-1.41,0-3.391,0.441-5.693,3.157v-2.553h-3.164v19.077h3.164V226.02c0-1.695,0-2.748,1.244-3.891
				c1.018-0.882,2.35-1.412,3.561-1.412c1.423,0,2.349,0.688,2.792,1.299c0.734,0.969,0.734,2.308,0.734,3.031v12.276h3.155v-10.692
				c0-2.308,0.08-3.203,1.135-4.294c0.927-0.971,2.384-1.62,3.714-1.62c0.688,0,2.718,0.202,3.318,2.398
				c0.16,0.637,0.16,1.287,0.16,3.029v11.18h3.154v-11.946c0-1.908-0.03-3.205-0.517-4.375
				C182.961,219.139,180.86,217.682,178.519,217.682"/>
		</g>
		<polygon fill="#FFFFFF" points="208.775,220.995 207.774,218.286 207.18,218.286 207.18,221.498 207.591,221.498 207.591,218.827 
			207.594,218.827 208.593,221.498 208.964,221.498 209.97,218.827 209.977,218.827 209.977,221.498 210.379,221.498 
			210.379,218.286 209.792,218.286 		"/>
		<polygon fill="#FFFFFF" points="204.253,218.645 205.323,218.645 205.323,221.499 205.751,221.499 205.751,218.645 
			206.819,218.645 206.819,218.286 204.253,218.286 		"/>
	</g>
	<g>
		<g>
			<path fill="#FFFFFF" d="M290.567,233.45c-3.045,0-5.358-0.649-7.333-2.651l2.539-2.539c1.268,1.27,2.99,1.692,4.851,1.692
				c2.312,0,3.553-0.875,3.553-2.481c0-0.705-0.198-1.297-0.62-1.693c-0.396-0.365-0.846-0.562-1.776-0.703l-2.429-0.338
				c-1.718-0.256-2.988-0.791-3.891-1.666c-0.96-0.957-1.437-2.256-1.437-3.947c0-3.583,2.651-6.093,6.993-6.093
				c2.765,0,4.767,0.677,6.487,2.341l-2.482,2.454c-1.268-1.214-2.792-1.382-4.117-1.382c-2.087,0-3.102,1.156-3.102,2.537
				c0,0.51,0.169,1.045,0.591,1.44c0.396,0.365,1.045,0.677,1.863,0.787l2.369,0.338c1.833,0.254,2.991,0.765,3.835,1.552
				c1.072,1.017,1.551,2.481,1.551,4.26C298.011,231.249,294.769,233.45,290.567,233.45"/>
			<path fill="#FFFFFF" d="M308.783,233.45c-4.117,0-7.388-2.792-7.388-7.05v-13.2h3.921v13.056c0,2.314,1.354,3.695,3.467,3.695
				c2.117,0,3.5-1.381,3.5-3.695V213.2h3.889v13.2C316.173,230.658,312.903,233.45,308.783,233.45"/>
		</g>
		<polygon fill="#FFFFFF" points="332.418,233.279 324.466,220.955 324.466,233.279 320.545,233.279 320.545,213.2 324.042,213.2 
			331.996,225.496 331.996,213.2 335.916,213.2 335.916,233.279 		"/>
		<g>
			<path fill="#FFFFFF" d="M350.412,217.938c-0.676-0.818-1.581-1.24-2.934-1.24h-2.959v13.086h2.959
				c1.353,0,2.258-0.424,2.934-1.241c0.732-0.903,0.845-2.343,0.845-5.388S351.144,218.84,350.412,217.938 M353.147,231.363
				c-1.327,1.324-3.216,1.916-5.302,1.916h-7.248V213.2h7.248c2.086,0,3.976,0.593,5.302,1.918c2.256,2.256,2.03,5.021,2.03,8.036
				C355.177,226.173,355.403,229.107,353.147,231.363"/>
		</g>
		<path fill="#FFFFFF" d="M365.641,219.123l-2.539,7.305h4.991L365.641,219.123z M370.322,233.279l-1.184-3.553h-7.137l-1.211,3.553
			h-4.091l7.306-20.079h3.072l7.334,20.079H370.322z"/>
		<polygon fill="#FFFFFF" points="388.765,233.279 380.812,220.955 380.812,233.279 376.891,233.279 376.891,213.2 380.388,213.2 
			388.341,225.496 388.341,213.2 392.262,213.2 392.262,233.279 		"/>
		<g>
			<path fill="#FFFFFF" d="M403.655,233.45c-2.145,0-3.949-0.733-5.417-2.201c-0.872-0.874-1.408-1.89-1.635-3.017
				c-0.225-1.129-0.338-2.793-0.338-4.991c0-2.201,0.114-3.865,0.338-4.993c0.227-1.156,0.763-2.145,1.635-3.02
				c1.468-1.467,3.272-2.201,5.417-2.201c3.863,0,6.713,2.259,7.39,6.348h-3.978c-0.42-1.721-1.495-2.85-3.384-2.85
				c-1.071,0-1.918,0.341-2.511,1.045c-0.816,0.873-0.987,1.775-0.987,5.67c0,3.89,0.17,4.794,0.987,5.668
				c0.593,0.703,1.439,1.042,2.511,1.042c1.889,0,2.963-1.13,3.384-2.847h3.978C410.368,231.191,407.491,233.45,403.655,233.45"/>
		</g>
		<polygon fill="#FFFFFF" points="414.428,233.279 414.428,213.2 427.655,213.2 427.655,216.698 418.348,216.698 418.348,221.406 
			426.273,221.406 426.273,224.902 418.348,224.902 418.348,229.784 427.655,229.784 427.655,233.279 		"/>
		<polygon fill="#FFFFFF" points="440.316,215.823 440.316,233.279 438.793,233.279 438.793,213.2 440.316,213.2 451.908,230.602 
			451.908,213.2 453.431,213.2 453.431,233.279 451.908,233.279 		"/>
		<g>
			<path fill="#FFFFFF" d="M469.533,215.936c-1.016-1.016-2.368-1.552-3.808-1.552c-1.438,0-2.792,0.536-3.807,1.552
				c-1.438,1.438-1.553,3.018-1.553,7.306c0,4.286,0.114,5.866,1.553,7.301c1.015,1.015,2.368,1.553,3.807,1.553
				s2.792-0.538,3.808-1.553c1.438-1.437,1.553-3.015,1.553-7.301C471.086,218.953,470.972,217.374,469.533,215.936
				 M470.748,231.391c-1.327,1.325-3.105,2.06-5.021,2.06c-1.919,0-3.694-0.733-5.021-2.06c-1.831-1.834-1.861-3.639-1.861-8.149
				c0-4.542,0.03-6.318,1.861-8.152c1.327-1.327,3.103-2.06,5.021-2.06c1.916,0,3.694,0.732,5.021,2.06
				c1.831,1.834,1.859,3.609,1.859,8.152C472.607,227.752,472.578,229.559,470.748,231.391"/>
		</g>
		<polygon fill="#FFFFFF" points="491.248,233.279 486.511,215.794 481.771,233.279 480.221,233.279 475.2,213.2 476.809,213.2 
			481.041,230.658 485.72,213.2 487.301,213.2 491.984,230.658 496.211,213.2 497.82,213.2 492.8,233.279 		"/>
		<path fill="#FFFFFF" d="M265.276,210.055l-25.539,25.557c-0.064,0.063-0.148,0.095-0.232,0.095c-0.085,0-0.17-0.03-0.234-0.095
			c-0.129-0.129-0.129-0.338,0-0.469l25.539-25.556c0.128-0.13,0.338-0.13,0.466,0C265.406,209.717,265.406,209.924,265.276,210.055
			 M262.895,233.607c-0.897,0.002-1.794,0.002-2.694,0.002c-0.206,0-0.362-0.086-0.408-0.293c-0.046-0.219-0.051-0.446,0.161-0.601
			c0.087-0.062,0.189-0.103,0.292-0.142c0.22-0.085,0.308-0.249,0.305-0.471c-0.006-1.467,0.027-2.934-0.04-4.396
			c-0.049-1.128-0.617-1.605-1.765-1.688c-0.719-0.049-1.424,0.015-2.11,0.254c-0.297,0.106-0.433,0.281-0.43,0.611
			c0.013,1.705,0.009,3.408,0.003,5.109c-0.003,0.312,0.082,0.54,0.405,0.622c0.275,0.071,0.382,0.262,0.379,0.53
			c-0.003,0.285-0.138,0.453-0.43,0.457c-0.895,0.013-1.794,0.006-2.691,0.006c-0.209,0-0.351-0.094-0.415-0.293
			c-0.076-0.229-0.025-0.435,0.155-0.601c0.05-0.046,0.126-0.073,0.196-0.093c0.379-0.102,0.443-0.382,0.438-0.723
			c-0.01-0.623-0.003-1.248-0.003-1.871c0-0.896-0.001-1.795,0.001-2.691c0-0.386-0.021-0.729-0.538-0.788
			c-0.232-0.028-0.313-0.28-0.244-0.524c0.051-0.189,0.177-0.313,0.332-0.422c0.494-0.349,0.978-0.709,1.477-1.049
			c0.512-0.346,0.942-0.138,0.993,0.477c0.01,0.104,0.013,0.212,0.022,0.404c0.245-0.168,0.408-0.285,0.576-0.394
			c1.42-0.892,2.862-0.925,4.3-0.06c0.882,0.533,1.332,1.347,1.344,2.377c0.022,1.392,0.021,2.783,0.029,4.177
			c0.001,0.165,0.008,0.33,0,0.495c-0.011,0.287,0.082,0.506,0.386,0.576c0.316,0.076,0.386,0.301,0.373,0.58
			C263.286,233.448,263.17,233.607,262.895,233.607 M242.054,219.156c0.215,0.144,0.382,0.338,0.563,0.521
			c0.822,0.844,1.821,1.274,3.007,1.223c0.64-0.029,1.028-0.32,1.202-0.865c0.212-0.654,0.063-1.084-0.516-1.465
			c-0.401-0.264-0.852-0.416-1.293-0.59c-0.667-0.26-1.324-0.528-1.941-0.897c-1.894-1.127-1.676-3.5-0.275-4.659
			c0.806-0.666,1.736-0.896,2.764-0.826c0.625,0.041,1.243,0.082,1.847,0.254c0.724,0.207,0.767,0.74,0.797,1.5
			c0.005,0.109,0.012,0.805,0.021,0.812c0.021-0.006,0.042-0.011,0.046,0.174c0.003,0.25-0.079,0.239-0.329,0.345
			c-0.242,0.103-0.468-0.072-0.654-0.262c-0.217-0.223-0.424-0.52-0.651-0.729c-0.519-0.479-1.118-0.793-1.845-0.725
			c-0.424,0.043-0.795,0.17-0.966,0.596c-0.193,0.474-0.161,0.924,0.193,1.326c0.235,0.269,0.541,0.437,0.86,0.574
			c0.437,0.191,0.882,0.354,1.325,0.527c0.427,0.17,0.841,0.352,1.243,0.582c1.682,0.955,1.798,3.018,0.696,4.3
			c-0.783,0.911-1.789,1.377-2.988,1.408c-1.072,0.03-2.116-0.12-3.118-0.529c-0.419-0.171-0.64-0.425-0.664-0.897
			c-0.024-0.418-0.091-0.836-0.124-1.256C241.214,219.111,241.735,218.941,242.054,219.156 M252.274,200.511
			c-12.199,0-22.09,9.888-22.09,22.085c0,12.202,9.891,22.094,22.09,22.094c12.199,0,22.09-9.892,22.09-22.094
			C274.364,210.398,264.473,200.511,252.274,200.511"/>
		<polyline fill="#FFFFFF" points="248.228,214.166 248.228,214.164 248.219,214.166 248.228,214.166 		"/>
	</g>
	<g>
		<g>
			<path fill="#FFFFFF" d="M705.164,211.482c-0.771,0-1.383-0.623-1.383-1.406c0-0.76,0.612-1.396,1.35-1.396h0.023
				c0.742,0,1.364,0.627,1.364,1.383C706.52,210.852,705.914,211.482,705.164,211.482 M705.127,208.439
				c-0.877,0-1.609,0.746-1.609,1.637c0,0.906,0.732,1.643,1.638,1.643c0.883,0,1.629-0.736,1.629-1.613
				C706.783,209.161,706.066,208.439,705.127,208.439"/>
			<path fill="#FFFFFF" d="M704.984,209.973h-0.062v-0.516h0.072c0.25,0,0.377,0.086,0.377,0.25
				C705.371,209.88,705.24,209.973,704.984,209.973 M705.314,210.232l0.022-0.006c0.226-0.065,0.383-0.283,0.383-0.522
				c0-0.185-0.1-0.364-0.246-0.458c-0.137-0.081-0.278-0.107-0.53-0.107h-0.24c-0.102,0-0.137,0.036-0.137,0.131v1.617
				c0,0.1,0.034,0.141,0.131,0.141h0.094c0.096,0,0.131-0.041,0.131-0.133l0.006-0.621l0.51,0.687
				c0.041,0.056,0.058,0.067,0.13,0.067h0.141c0.057,0,0.107-0.049,0.107-0.106c0-0.022-0.013-0.056-0.037-0.088L705.314,210.232z"
				/>
			<path fill="#FFFFFF" d="M645.386,224.66c0,1.271-0.839,2.232-2.523,2.874l-0.117-0.277l-0.314-0.019l-1.303,0.295
				c-1.013-0.245-1.559-0.648-1.637-1.205l-0.021-0.278l0.315-0.297l-0.138-9.125c0.014-0.374,1.147-0.435,3.411-0.187v-0.299
				l-0.315-0.314h0.315l0.769,1.207l0.789,0.277l0.849,1.261L645.386,224.66z M635.033,211.482c-0.027-0.008-0.144,0-0.172-0.006
				c0.023-0.149,0.134-0.312,0.158-0.468c0.028,0.009,0.06,0.015,0.088,0.022C635.084,211.182,635.059,211.332,635.033,211.482
				 M634.785,213.458c0.039-0.103,0.076-0.201,0.117-0.3C634.995,213.293,634.995,213.293,634.785,213.458 M634.898,210.018
				c0.104,0.027,0.207,0.056,0.34,0.094c-0.074,0.051-0.142,0.095-0.178,0.119c-0.119-0.041-0.215-0.07-0.31-0.103
				C634.747,209.989,634.762,209.979,634.898,210.018 M633.89,212.266c-0.046,0.024-0.165-0.008-0.275,0.051
				c0.063-0.198,0.162-0.244,0.562-0.244C634.08,212.109,634.023,212.217,633.89,212.266 M633.031,212.443
				c-0.005-0.023-0.012-0.043-0.019-0.062c0.136-0.021,0.23-0.165,0.412-0.018C633.295,212.393,633.164,212.416,633.031,212.443
				 M635.434,209.073c0.031-0.042,0.111-0.046,0.168-0.064c0.02,0.017,0.035,0.033,0.052,0.05c-0.037,0.07-0.075,0.144-0.111,0.217
				c-0.049-0.008-0.098-0.014-0.146-0.019C635.406,209.193,635.395,209.115,635.434,209.073 M636.16,209.33
				c-0.004,0.02-0.004,0.038-0.008,0.055c-0.127,0.064-0.251,0.125-0.403,0.201c-0.003-0.128-0.007-0.223-0.013-0.363
				C635.892,209.26,636.025,209.295,636.16,209.33 M652.497,214.77c-0.289-0.578-0.454-0.875-0.491-0.892
				c-1.098-2.187-3.999-3.892-8.709-5.119v0.316h-0.315l-0.335-0.316l-5.3-0.012c-0.187,0.153-0.31,0.433-0.252,0.521
				c-0.109,0.185-0.214,0.348-0.3,0.514c-0.091,0.164-0.168,0.337-0.252,0.508c-0.151,0.311-0.307,0.621-0.452,0.936
				c-0.067,0.146-0.291,0.297-0.339,0.448c-0.023,0.069-0.018,0.147-0.027,0.235c-0.135-0.04-0.159,0.056-0.206,0.166
				c-0.103,0.254-0.231,0.496-0.357,0.759c-0.019-0.022-0.053-0.054-0.049-0.065c0.045-0.142,0.102-0.276,0.143-0.418
				c0.018-0.049,0-0.104,0-0.187c0.236-0.155,0.321-0.445,0.447-0.707c0.217-0.449,0.426-0.903,0.623-1.358
				c0.115-0.267,0.203-0.545,0.307-0.826c-0.08-0.002-0.125-0.004-0.174-0.006c0.203-0.134,0.418-0.229,0.467-0.484
				c-0.086-0.012-0.171-0.022-0.258-0.033l-1.868-0.005l-0.296,0.091c0.078,0.018,0.178-0.072,0.26-0.011
				c-0.032,0.065-0.062,0.133-0.082,0.172c-0.141-0.028-0.27-0.056-0.406-0.084c0.003-0.003,0.005-0.005,0.007-0.009l-1.436,0.451
				l-0.65-0.595l-0.295,0.224h-0.316l0.316,0.89v0.315l-0.298,0.295l0.298,2.673l-0.336,2.096l0.408,0.61l-0.113,0.303l-0.148,0.626
				l0.129,0.604l0.013-0.012l0.008,0.316l0.316,1.205l-0.335,1.188l-0.02,7.737l-0.026-0.023v2.551l0.222,0.705l0.117,0.662
				l0.021,0.299l-0.334,0.297l0.296,1.205v0.891l0.335-0.02l0.335,0.316l-0.021,0.297l1.006-0.297l1.934,0.297l0.355-0.019
				l0.649-0.595l0.652,0.613l1.637-0.297l0.65,0.297l3.846-0.057h0.984l0.354-0.279v0.279l3.413-1.447v-0.247l0.223-0.151
				l0.096,0.084c4.219-2.512,5.815-7.467,4.791-14.862C653.422,217.234,653.135,216.044,652.497,214.77"/>
			<path fill="#FFFFFF" d="M607.684,207.885c0.015-0.01,0.024-0.021,0.035-0.031c0.01,0.049,0.021,0.101,0.033,0.162
				c0.08-0.021,0.146-0.037,0.221-0.058c-0.131-0.142-0.244-0.272-0.369-0.397c-0.024-0.024-0.079-0.021-0.119-0.029
				c-0.006,0.042-0.032,0.104-0.016,0.134C607.531,207.746,607.611,207.812,607.684,207.885"/>
			<path fill="#FFFFFF" d="M609.35,208.016c-0.1,0.062-0.2,0.125-0.321,0.198C609.202,208.299,609.243,208.279,609.35,208.016"/>
			<path fill="#FFFFFF" d="M607.02,208.032c0.019-0.03,0.041-0.069,0.091-0.146c-0.149-0.01-0.269-0.016-0.386-0.021v0.044
				C606.819,207.948,606.913,207.986,607.02,208.032"/>
			<path fill="#FFFFFF" d="M591.699,220.898c-0.123,0.002-0.144-0.097-0.185-0.17c-0.043-0.07-0.072-0.146-0.108-0.221
				c-0.019,0.006-0.033,0.016-0.052,0.02c0.047,0.125,0.093,0.25,0.139,0.373c-0.165,0.119-0.165,0.119-0.067,0.341
				c0.041-0.108,0.067-0.173,0.098-0.247c0.059,0.098,0.108,0.188,0.164,0.27c0.017,0.021,0.049,0.035,0.076,0.039
				c0.015,0.002,0.043-0.029,0.043-0.044c0.004-0.086,0.011-0.177-0.006-0.262C591.794,220.957,591.731,220.898,591.699,220.898"/>
			<path fill="#FFFFFF" d="M590.936,219.711c-0.069,0.248,0.045,0.428,0.199,0.586c0.027,0.027,0.092,0.016,0.139,0.023
				c0.007-0.012,0.015-0.023,0.021-0.038C591.014,220.188,591.069,219.896,590.936,219.711"/>
			<path fill="#FFFFFF" d="M592.354,220.439c-0.014-0.004-0.028-0.006-0.041-0.01c-0.01,0.025-0.022,0.051-0.028,0.076
				c-0.021,0.146-0.074,0.244-0.251,0.245c-0.103,0-0.201,0.065-0.303,0.097c0.007,0.021,0.012,0.043,0.019,0.063
				c0.218-0.063,0.432-0.128,0.68-0.201c-0.062-0.056-0.092-0.079-0.11-0.093C592.33,220.552,592.342,220.495,592.354,220.439"/>
			<path fill="#FFFFFF" d="M591.632,221.537c-0.039,0.104-0.066,0.208-0.095,0.312c-0.002,0.008,0.037,0.035,0.043,0.03
				c0.07-0.039,0.149-0.075,0.204-0.134c0.021-0.027-0.009-0.104-0.018-0.172C591.715,221.559,591.634,221.534,591.632,221.537"/>
			<path fill="#FFFFFF" d="M591.842,221.341c0.002,0.194,0.185,0.356,0.338,0.312C592.162,221.434,591.938,221.475,591.842,221.341"
				/>
			<path fill="#FFFFFF" d="M589.326,221.968c0.01,0.009,0.019,0.017,0.026,0.024c0.052-0.031,0.117-0.055,0.146-0.1
				c0.062-0.104,0.126-0.156,0.242-0.082c-0.047-0.07-0.097-0.142-0.142-0.209C589.502,221.734,589.414,221.852,589.326,221.968"/>
			<path fill="#FFFFFF" d="M592.82,217.393c0.02,0.01,0.037,0.023,0.055,0.035c0.086-0.063,0.178-0.126,0.258-0.201
				c0.021-0.021,0.012-0.076,0.019-0.117c-0.029,0-0.06-0.004-0.086-0.006c0.043,0.123-0.075,0.082-0.119,0.119
				C592.894,217.268,592.861,217.334,592.82,217.393"/>
			<path fill="#FFFFFF" d="M590.441,220.824c0.028,0.125-0.035,0.294,0.178,0.31c-0.002-0.088-0.006-0.175-0.01-0.282
				C590.555,220.841,590.5,220.833,590.441,220.824"/>
			<path fill="#FFFFFF" d="M591.552,218.104c-0.146,0.026-0.188,0.168-0.062,0.334C591.514,218.305,591.532,218.208,591.552,218.104
				"/>
			<path fill="#FFFFFF" d="M590.412,220.465c-0.002-0.017-0.031-0.029-0.049-0.044c-0.013,0.017-0.039,0.038-0.037,0.054
				c0.021,0.099,0.043,0.196,0.063,0.295c0.023-0.006,0.048-0.014,0.07-0.021C590.444,220.652,590.432,220.561,590.412,220.465"/>
			<path fill="#FFFFFF" d="M592.396,219.75c-0.01-0.014-0.018-0.032-0.026-0.047c-0.068,0.035-0.146,0.061-0.201,0.109
				c-0.016,0.011,0.021,0.086,0.044,0.166C592.289,219.882,592.344,219.814,592.396,219.75"/>
			<path fill="#FFFFFF" d="M591.59,220.465c0.033-0.049,0.061-0.095,0.091-0.148c-0.049-0.029-0.098-0.059-0.154-0.088
				C591.508,220.323,591.438,220.421,591.59,220.465"/>
			<path fill="#FFFFFF" d="M592.184,222.395c0.019,0.055,0.048,0.106,0.079,0.152c0.007,0.01,0.045-0.002,0.067-0.003
				c-0.012-0.049-0.02-0.103-0.039-0.149c-0.012-0.028-0.041-0.057-0.074-0.09C592.202,222.342,592.178,222.375,592.184,222.395"/>
			<path fill="#FFFFFF" d="M592.809,221.749c0.084,0.101,0.146,0.176,0.207,0.247C592.994,221.891,593.017,221.741,592.809,221.749"
				/>
			<path fill="#FFFFFF" d="M531.891,232.523c-0.009-0.033-0.017-0.071-0.029-0.104c-0.024-0.052-0.049-0.136-0.083-0.143
				c-0.275-0.041-0.211-0.275-0.3-0.487c0.201,0.099,0.357,0.169,0.509,0.248c0.025,0.013,0.053,0.065,0.047,0.092
				C532.01,232.245,531.972,232.359,531.891,232.523 M531.164,231.964c-0.012-0.014-0.021-0.032-0.029-0.044
				c0.022-0.09,0.049-0.18,0.082-0.297c0.083,0.068,0.154,0.126,0.225,0.186C531.349,231.857,531.257,231.912,531.164,231.964
				 M530.975,230.541c-0.021-0.041-0.064-0.081-0.062-0.12c0.002-0.044,0.041-0.087,0.062-0.131c0.021,0.001,0.041,0.001,0.06,0.003
				c0.02,0.047,0.059,0.1,0.049,0.141C531.07,230.475,531.014,230.505,530.975,230.541 M530.725,232.996h-0.317
				c-0.028-0.04-0.06-0.087-0.088-0.088c-0.236-0.008-0.272-0.198-0.351-0.35c-0.005-0.002-0.008-0.002-0.012-0.004v-0.006h-0.279
				c0.066,0.062,0.109,0.104,0.186,0.176c-0.085,0.018-0.196,0.063-0.206,0.045c-0.052-0.078-0.08-0.175-0.095-0.267
				c-0.004-0.012,0.099-0.056,0.156-0.065c0.104-0.023,0.242-0.092,0.238,0.111h0.005l-0.001,0.001l0.001-0.001
				c0.002,0.003,0.005,0.006,0.007,0.01c0.217,0.118,0.281-0.162,0.433-0.199c-0.039,0.119-0.138,0.263-0.101,0.324
				c0.098,0.151,0.273,0.176,0.515,0.082C530.78,232.855,530.752,232.928,530.725,232.996 M528.455,232.154
				c-0.16,0.098-0.211-0.295-0.448-0.053v-0.305c0.225,0.092,0.414,0.167,0.61,0.246
				C528.555,232.085,528.506,232.119,528.455,232.154 M528.234,232.516c-0.098-0.026-0.18-0.076-0.259-0.07
				c-0.143,0.012-0.194-0.079-0.202-0.178c-0.002-0.039,0.115-0.102,0.188-0.125c0.053-0.021,0.121,0.004,0.219,0.014
				c-0.104,0.047-0.17,0.076-0.26,0.119c0.127,0.041,0.227,0.061,0.31,0.106C528.254,232.395,528.234,232.484,528.234,232.516
				 M528.08,232.996c0.001-0.03,0.004-0.061,0.005-0.09c0.028-0.004,0.062-0.006,0.089-0.008c0.01,0.031,0.019,0.064,0.029,0.098
				H528.08L528.08,232.996z M529.862,229.09c0.023-0.003,0.048-0.007,0.07-0.008c0.014,0.085,0.025,0.174,0.041,0.271
				C529.771,229.318,529.771,229.318,529.862,229.09 M530.643,231.689c-0.066-0.014-0.159-0.008-0.195-0.051
				c-0.128-0.144-0.216-0.307-0.075-0.565c0.049,0.071,0.09,0.12,0.119,0.175c0.046,0.09,0.089,0.179,0.121,0.271
				C530.631,231.573,530.631,231.633,530.643,231.689 M530.665,228.859c-0.104-0.008-0.202-0.014-0.339-0.024
				c0.051,0.078,0.074,0.115,0.098,0.155c-0.01,0.011-0.018,0.021-0.025,0.033c-0.098-0.074-0.193-0.15-0.315-0.243
				C530.299,228.788,530.512,228.576,530.665,228.859 M539.459,218.884c-4.352-0.879-6.527-1.707-6.527-2.487
				c0-0.407,0.85-0.777,2.543-1.112c3.314,0.556,5.853,1.391,7.615,2.506h0.375v-6.644c-2.145-1.657-5.293-2.487-9.447-2.487
				c-4.168,0-7.19,1.937-9.072,5.809v2.485c0,2.92,1.57,5.312,4.714,7.181c5.325,1.397,7.985,2.505,7.985,3.32
				c-0.577,0.544-1.301,0.815-2.17,0.815h-1.457c-1.747,0-4.411-0.828-7.988-2.484h-0.354l0.354,1.113v0.278l-0.354,0.278
				l0.354,0.259l-0.327,1.026c-0.062-0.033-0.125-0.066-0.194-0.073c0.067,0.29-0.175,0.127-0.271,0.215
				c0.092,0.038,0.187,0.06,0.282,0.06c0.099,0,0.144,0.029,0.101,0.125c-0.041,0.093-0.031,0.166,0.051,0.232
				c0.019,0.018,0.026,0.053,0.031,0.082c0.01,0.064,0.02,0.131,0.027,0.199c-0.124,0.016-0.246,0.046-0.365,0.011
				c-0.002,0.017-0.004,0.033-0.007,0.052c0.074,0.023,0.151,0.047,0.232,0.072c0.002,0.053,0.005,0.104,0.01,0.166
				c0.173-0.052,0.291,0.041,0.343,0.148c0.024,0.057,0.054,0.093,0.087,0.111v0.504c-0.037-0.024-0.069-0.064-0.08-0.131
				c-0.003-0.01-0.036-0.021-0.055-0.021c-0.211,0-0.3-0.182-0.469-0.291c0.079-0.018,0.125-0.03,0.146-0.035
				c-0.084-0.062-0.181-0.119-0.254-0.195c-0.064-0.068-0.117-0.102-0.214-0.063c-0.077,0.032-0.346-0.134-0.329-0.21
				c0.025-0.135-0.068-0.106-0.128-0.112c-0.063-0.008-0.131,0.008-0.206,0.015c0.188,0.166,0.377,0.332,0.573,0.506
				c-0.088,0.056-0.094,0.093-0.008,0.148c0.201,0.13,0.396,0.273,0.592,0.413c0.123,0.088,0.242,0.179,0.365,0.271
				c-0.002,0.01-0.004,0.02-0.008,0.029c-0.067-0.018-0.135-0.033-0.222-0.056c0.046,0.067,0.078,0.119,0.113,0.172
				c-0.013,0.011-0.022,0.024-0.035,0.035c-0.043-0.033-0.084-0.069-0.129-0.101c-0.033-0.023-0.069-0.056-0.108-0.062
				c-0.127-0.025-0.259-0.04-0.388-0.062c-0.059-0.01-0.115-0.033-0.174-0.052c-0.006,0.019-0.014,0.038-0.021,0.056
				c0.111,0.041,0.226,0.08,0.335,0.125c0.046,0.018,0.087,0.049,0.128,0.076c0.051,0.032,0.1,0.067,0.149,0.101
				c0.059,0.038,0.118,0.075,0.178,0.112c0.041,0.035,0.12-0.096,0.154,0.056c-0.074,0.036-0.149,0.069-0.233,0.106
				c0.068,0.066,0.092,0.193,0.182,0.237l-0.212,0.177v0.002c-0.19-0.051-0.522-0.305-0.496-0.486
				c-0.19,0.039-0.272-0.084-0.328-0.239c-0.041,0.032-0.066,0.055-0.104,0.083c0.156,0.143,0.307,0.277,0.459,0.413
				c0.088,0.081,0.229,0.125,0.18,0.297c0.142,0.011,0.255,0.049,0.232,0.228c-0.003,0.029,0.022,0.07,0.053,0.092
				c0.039,0.035,0.085,0.068,0.128,0.102c0.024,0.046,0.051,0.09,0.082,0.139c-0.007,0.006-0.015,0.014-0.021,0.021h0.035
				c0.605,0.875,2.465,1.668,5.58,2.376l2.642,0.557h4.612c4.84-2.018,7.259-4.324,7.259-6.922h-0.353l0.353-0.835
				C545.987,224.04,543.814,221.098,539.459,218.884"/>
			<path fill="#FFFFFF" d="M619.828,224.66c0,1.271-0.842,2.232-2.525,2.874l-0.118-0.277l-0.314-0.019l-1.302,0.295
				c-1.015-0.245-1.561-0.648-1.638-1.205l-0.021-0.278l0.315-0.297l-0.138-9.125c0.011-0.345,0.981-0.424,2.907-0.239l0.562,0.188
				c0,0,0.32,0.105,0.532,0.177l0.181,0.282l0.787,0.277l0.85,1.261L619.828,224.66z M618.941,233.471l-0.334,0.278l-0.652-0.591
				h0.986V233.471L618.941,233.471z M614.877,232.008h-0.314v-0.91h0.648L614.877,232.008z M611.277,229.432
				c-0.026-0.02-0.054-0.039-0.078-0.061c0.096-0.373,0.477-0.535,0.626-0.87c0.021,0.019,0.047,0.036,0.068,0.054
				C611.689,228.848,611.484,229.141,611.277,229.432 M610.311,230.757c-0.049-0.414-0.01-0.465,0.279-0.647
				c0.121-0.076,0.196-0.215,0.288-0.327c0.062-0.076,0.12-0.154,0.18-0.229c0.021,0.016,0.04,0.033,0.062,0.051
				C610.859,229.975,610.599,230.346,610.311,230.757 M610.717,208.617c-0.035,0.042-0.063,0.082-0.102,0.128h-0.03
				c-0.013-0.063-0.024-0.12-0.037-0.179C610.604,208.582,610.65,208.598,610.717,208.617 M610.021,233.23
				c-0.072,0.119-0.158,0.229-0.239,0.346c-0.046-0.027-0.093-0.055-0.139-0.079c0.082-0.147,0.162-0.295,0.248-0.438
				c0.009-0.011,0.095,0.008,0.105,0.029C610.02,233.131,610.041,233.199,610.021,233.23 M608.766,232.021
				c-0.121,0.205-0.223,0.422-0.356,0.617c-0.12,0.174-0.275,0.324-0.458,0.537c-0.009-0.305,0.386-0.412,0.032-0.748
				c0.139,0.016,0.203,0.023,0.36,0.043c-0.112-0.132-0.187-0.214-0.286-0.324c0.034-0.014,0.12-0.071,0.157-0.049
				c0.26,0.178,0.313-0.016,0.405-0.152c0.12-0.188,0.248-0.37,0.374-0.555c0.039,0.028,0.074,0.055,0.115,0.084
				C608.994,231.657,608.875,231.837,608.766,232.021 M608.455,208.865c-0.008,0.019-0.015,0.035-0.023,0.051
				c-0.026-0.008-0.052-0.016-0.075-0.021v-0.006c-0.003-0.033-0.024-0.062-0.033-0.084
				C608.365,208.824,608.41,208.844,608.455,208.865 M607.777,208.669c0.022-0.017,0.053-0.028,0.078-0.043
				c0.077,0.095,0.131,0.099,0.206,0.032c-0.021-0.057-0.038-0.114-0.049-0.147c0.109-0.013,0.205-0.022,0.286-0.032
				c0.005-0.052,0.005-0.088,0.02-0.114c0.006-0.011,0.051-0.005,0.073,0.001c0.013,0.003,0.021,0.025,0.033,0.044
				c-0.028,0.022-0.051,0.039-0.067,0.057c0.016,0.033,0.024,0.066,0.026,0.071c0.125,0.008,0.229,0.014,0.337,0.021
				c0.001,0.01,0.003,0.021,0.006,0.03c0.01-0.009,0.021-0.019,0.031-0.028c0.012,0.025,0.021,0.053,0.028,0.08
				c-0.028,0.008-0.059,0.018-0.086,0.027c0.002,0-0.021-0.02-0.039-0.036c-0.008,0.007-0.017,0.017-0.024,0.023
				c0.009,0.011,0.016,0.018,0.021,0.024c-0.058-0.014-0.103-0.029-0.144-0.052c-0.216-0.126-0.248-0.116-0.289,0.126
				c0.029,0.014,0.062,0.03,0.095,0.047c-0.017,0.021-0.03,0.043-0.048,0.068c-0.09-0.029-0.18-0.057-0.271-0.083
				c-0.008,0.022-0.014,0.042-0.021,0.063C607.912,208.787,607.844,208.727,607.777,208.669 M608.609,208.355
				c0.027,0.023,0.054,0.052,0.075,0.082c-0.03,0.014-0.064,0.029-0.104,0.047C608.592,208.436,608.6,208.4,608.609,208.355
				 M607.602,209.252l-0.063,0.023c-0.003-0.033-0.005-0.064-0.006-0.102c-0.109,0.235-0.17-0.04-0.255,0.033
				c-0.012-0.068-0.018-0.135-0.024-0.198c0.109-0.055,0.203,0.027,0.279,0.07c0.022-0.056,0.046-0.108,0.063-0.16
				c0.021,0.063-0.008,0.155-0.016,0.253C607.592,209.186,607.598,209.216,607.602,209.252 M607.051,233.793
				c0.104-0.174,0.205-0.35,0.318-0.52c0.009-0.016,0.088,0.023,0.135,0.035C607.463,233.65,607.281,233.837,607.051,233.793
				 M607.023,209.102c-0.005,0.021-0.022,0.049-0.039,0.062c-0.019-0.047-0.03-0.082-0.045-0.125c0.028,0.005,0.062,0.012,0.09,0.02
				C607.027,209.073,607.027,209.088,607.023,209.102 M607.117,209.078c0.113,0.076,0.12,0.132,0.049,0.229l-0.098-0.039
				c0.053-0.018,0.072-0.049,0.057-0.109C607.119,209.134,607.119,209.107,607.117,209.078 M606.875,208.966
				c-0.155-0.065-0.139-0.2-0.16-0.319c0.053-0.023,0.105-0.049,0.188-0.086C606.894,208.707,606.885,208.827,606.875,208.966
				 M626.938,214.77c-0.291-0.578-0.453-0.875-0.491-0.892c-1.101-2.187-3.999-3.892-8.707-5.119v0.126l-0.629-0.104l-0.022-0.022
				h-0.109l-0.024-0.003l-0.005,0.003l-4.385-0.009c0.008-0.016,0.018-0.033,0.028-0.049c-0.024-0.016-0.054-0.051-0.076-0.047
				c-0.075,0.018-0.147,0.048-0.219,0.072c0.069-0.139-0.094-0.09-0.134-0.152c0.021-0.01,0.046-0.02,0.062-0.028
				c-0.024-0.036-0.049-0.069-0.104-0.149c-0.033,0.055-0.064,0.104-0.094,0.152c-0.039-0.021-0.066-0.035-0.093-0.048
				c0.005-0.067,0.007-0.127,0.013-0.188c-0.016,0-0.03,0-0.045,0c0.004,0.088,0.006,0.174,0.01,0.256
				c-0.055-0.014-0.13-0.158-0.118-0.267h0.08c0.008-0.008,0.016-0.016,0.021-0.024c-0.025-0.026-0.053-0.053-0.08-0.076
				c-0.027-0.021-0.058-0.034-0.078-0.057c-0.025-0.026-0.039-0.059-0.06-0.084c-0.025,0.017-0.053,0.035-0.079,0.055
				c-0.008,0-0.021-0.001-0.029-0.004c0.008-0.03,0.01-0.065,0.021-0.098c0.021-0.066,0.048-0.131,0.065-0.199
				c0.004-0.012-0.021-0.039-0.037-0.049c-0.053-0.033-0.11-0.06-0.169-0.088c-0.022,0.096,0.03,0.137,0.146,0.137
				c-0.135,0.037-0.247,0.07-0.368,0.105c0,0-0.018-0.016-0.037-0.035c-0.011,0.01-0.019,0.018-0.025,0.025
				c0.039,0.041,0.078,0.082,0.107,0.111c0.014,0.094,0.027,0.183,0.041,0.267c-0.06-0.003-0.112-0.007-0.173-0.011
				c0.009,0.057,0.015,0.103,0.022,0.149c-0.01,0.003-0.02,0.005-0.026,0.009c-0.012-0.037-0.017-0.082-0.043-0.11
				c-0.028-0.04-0.083-0.106-0.116-0.101c-0.083,0.018-0.091-0.02-0.097-0.082c-0.003-0.035-0.022-0.065-0.031-0.091
				c-0.049,0.076-0.096,0.149-0.154,0.237c-0.03-0.061-0.046-0.09-0.063-0.122c-0.025,0.008-0.047,0.017-0.039,0.013
				c-0.105-0.095-0.193-0.177-0.288-0.263c0.026-0.011,0.054-0.024,0.079-0.038c0.08,0.096,0.131,0.098,0.207,0.032
				c-0.021-0.062-0.039-0.114-0.05-0.147c0.112-0.013,0.206-0.023,0.286-0.033c0.008-0.051,0.005-0.088,0.02-0.113
				c0.008-0.012,0.049-0.006,0.075,0c0.013,0.005,0.021,0.027,0.032,0.046c-0.027,0.021-0.049,0.038-0.068,0.052
				c0.014,0.038,0.026,0.073,0.027,0.076c0.123,0.008,0.231,0.014,0.336,0.021c0.003,0.01,0.006,0.021,0.008,0.031
				c0.037-0.035,0.074-0.068,0.111-0.103c-0.01,0.005-0.021,0.01-0.031,0.016c-0.014-0.049-0.031-0.095-0.047-0.143
				c-0.004,0.016-0.01,0.034-0.016,0.051c-0.05,0.021-0.099,0.042-0.166,0.073c0.016-0.061,0.022-0.098,0.036-0.158
				c-0.167-0.021-0.324-0.043-0.481-0.066c0,0.01-0.002,0.016-0.004,0.023c0.022,0.02,0.047,0.04,0.071,0.061
				c-0.083,0.012-0.147,0.014-0.178-0.084c-0.017-0.057-0.084-0.104-0.151-0.027c0.02,0.021,0.041,0.043,0.061,0.063
				c-0.002,0.011-0.005,0.022-0.007,0.036c-0.047-0.006-0.105,0.008-0.143-0.016c-0.082-0.049-0.145-0.047-0.178,0.041
				c0.006,0.082,0.021,0.168-0.008,0.24c-0.019,0.049-0.035,0.072,0.004,0.11c0.012,0.011,0.004,0.042,0.006,0.063
				c-0.021-0.006-0.051-0.004-0.062-0.017c-0.032-0.032-0.062-0.073-0.099-0.122c-0.046,0.174-0.11,0.045-0.188,0.047
				c0.102-0.043,0.186-0.064,0.254-0.106c0.124-0.073-0.039-0.153,0.015-0.24c-0.083-0.017-0.159-0.028-0.245-0.042
				c0.018,0.055,0.027,0.079,0.037,0.114c-0.028-0.003-0.049-0.005-0.055-0.005c-0.021,0.068-0.021,0.152-0.064,0.188
				c-0.041,0.036-0.125,0.023-0.185,0.029c0.005,0.031,0.005,0.066,0.013,0.098c0.002,0.024,0.013,0.045,0.02,0.067
				c0.021-0.015,0.044-0.03,0.065-0.043c0.085,0.044,0.175,0.093,0.249,0.136c0.088,0.007,0.211-0.008,0.23,0.028
				c0.029,0.065-0.003,0.161-0.014,0.269c0.034,0.038,0.03,0.231,0,0.316h-0.029c-0.005-0.09-0.012-0.186-0.021-0.315
				c-0.108,0.234-0.17-0.038-0.256,0.032c-0.012-0.111-0.024-0.218-0.04-0.316c-0.068-0.004-0.114-0.007-0.177-0.011
				c-0.011,0.075-0.019,0.149-0.037,0.222c-0.005,0.025-0.025,0.064-0.049,0.068c-0.041,0.012-0.092,0.008-0.123,0.008
				c0.004,0.036,0.009,0.068,0.014,0.105c0.003,0.021,0.011,0.046,0.015,0.068c0.024-0.004,0.055-0.008,0.076-0.02
				c0.036-0.018,0.062-0.048,0.098-0.057c0.069-0.017,0.092-0.049,0.074-0.116c-0.007-0.022-0.005-0.05-0.009-0.079
				c0.117,0.078,0.118,0.135,0.041,0.236c-0.045,0.004-0.098-0.002-0.104,0.011c-0.025,0.047-0.042,0.101-0.062,0.161h-0.2
				c-0.009-0.002-0.015-0.006-0.021-0.008c-0.033-0.008-0.068-0.016-0.104-0.019c0.023-0.021,0.042-0.04,0.035-0.047
				c-0.04-0.083-0.051-0.173-0.192-0.21c-0.028-0.006-0.06-0.014-0.088-0.021c-0.008-0.004-0.017-0.009-0.025-0.014v0.007
				c-0.054-0.014-0.109-0.032-0.156-0.057c-0.002-0.003-0.004-0.009-0.005-0.013c-0.002,0.002-0.002,0.007-0.004,0.01
				c-0.12-0.059-0.216-0.155-0.226-0.355c-0.011-0.184-0.33-0.277-0.494-0.133c0.146,0.038,0.266,0.07,0.383,0.1
				c-0.008,0.024-0.012,0.045-0.018,0.065c-0.073,0.006-0.148,0.017-0.261,0.022c0.145,0.09,0.299,0.154,0.425,0.252
				c-0.146-0.021-0.292-0.039-0.437-0.057c0,0.006-0.002,0.014-0.004,0.02c0.025,0.021,0.051,0.039,0.074,0.062
				c-0.084,0.011-0.148,0.013-0.177-0.082c-0.019-0.059-0.086-0.106-0.155-0.03c0.021,0.021,0.041,0.043,0.061,0.065
				c-0.002,0.009-0.004,0.021-0.006,0.033c-0.049-0.004-0.104,0.009-0.142-0.013c-0.084-0.051-0.145-0.047-0.18,0.041
				c0.009,0.08,0.022,0.166-0.008,0.242c-0.02,0.045-0.033,0.068,0.006,0.106c0.002,0.001,0,0.006,0.002,0.008
				c-0.067-0.026-0.123-0.062-0.181-0.1c0.03-0.013,0.062-0.027,0.089-0.044c0.125-0.072-0.036-0.152,0.013-0.241
				c-0.085-0.017-0.157-0.027-0.242-0.04c0.018,0.052,0.024,0.079,0.034,0.111c-0.025-0.002-0.044-0.006-0.053-0.006
				c-0.008,0.025-0.014,0.051-0.018,0.078c-0.084-0.074-0.165-0.152-0.252-0.225c-0.015-0.014-0.051,0-0.096,0
				c0.01,0.068,0.02,0.126,0.026,0.184c-0.116-0.238-0.334-0.273-0.613-0.307c0.142-0.049,0.222-0.078,0.3-0.104
				c-0.009-0.021-0.015-0.041-0.023-0.062c-0.146,0.003-0.293,0.006-0.452,0.011c-0.044,0.131-0.096,0.283-0.148,0.436
				c0.309,0.172,0.417,0.154,0.579-0.094c0.06,0.041,0.115,0.082,0.148,0.105c-0.003,0.092-0.005,0.16-0.008,0.227h0.001
				c-0.132,0.242-0.124,0.263,0.149,0.512c0.009,0.006,0.018,0.011,0.026,0.017c-0.012,0-0.027-0.001-0.039-0.001
				c0,0.003,0.002,0.005,0.002,0.008l-0.511-0.201h-0.315l0.315,0.891v0.316l-0.297,0.295l0.297,2.672l-0.242,1.506
				c-0.024,0.34-0.03,0.695,0.153,0.953c0.016,0.02,0.026,0.039,0.034,0.059l0.142,0.212l-0.211,0.474l0.064,0.449l-0.002,0.002
				l0.02,0.891l0.316,1.205l-0.336,1.188l-0.021,8.646l0.242,0.215c-0.007-0.049-0.015-0.104-0.021-0.155
				c0.013-0.003,0.024-0.006,0.035-0.01c0.122,0.22,0.243,0.438,0.374,0.674c-0.115-0.019-0.221-0.038-0.327-0.056
				c-0.015-0.107-0.026-0.207-0.041-0.307l-0.263,0.231v0.612l0.315,1.779l0.021,0.299l-0.336,0.297l0.299,1.205v0.891l0.334-0.02
				l0.215,0.205c0.109-0.221,0.218-0.443,0.336-0.679c0.216,0.185,0.322,0.119,0.4-0.103c0.047-0.139,0.186-0.229,0.272-0.346
				c0.242-0.316,0.498-0.626,0.711-0.965c0.111-0.182,0.145-0.419,0.218-0.646c0.359,0.108,0.416-0.268,0.691-0.375
				c-0.13,0.232-0.26,0.468-0.39,0.701c0.038,0.032,0.074,0.062,0.113,0.092c0.164-0.17,0.314-0.187,0.457,0.107
				c-0.141,0.014-0.271,0.014-0.386,0.044c-0.091,0.022-0.16,0.095-0.25,0.126c-0.112,0.036-0.104,0.299-0.336,0.145
				c-0.014-0.01-0.075,0.044-0.102,0.076c-0.413,0.535-0.816,1.078-1.242,1.604c-0.105,0.132-0.242,0.236-0.377,0.343l-0.019,0.282
				l1.005-0.297l1.934,0.297l0.354-0.019l0.65-0.594l0.65,0.612l1.637-0.297l0.651,0.297l3.845-0.057h0.987l0.354-0.279v0.279
				l3.411-1.447v-0.297h-0.966l-0.021-0.313h0.969l0.336,0.297c4.219-2.512,5.816-7.467,4.791-14.862
				C627.861,217.234,627.572,216.044,626.938,214.77"/>
			<path fill="#FFFFFF" d="M593.951,219.432c-0.014-0.002-0.026-0.005-0.047-0.004c-0.025-0.064-0.052-0.126-0.076-0.187h0.123
				V219.432z M593.36,217.721l-0.087,0.416c-0.002-0.011-0.006-0.021-0.009-0.033c-0.053,0.017-0.114,0.021-0.154,0.053
				c-0.072,0.058-0.144,0.126-0.196,0.201c-0.031,0.043-0.03,0.109-0.043,0.166c0.056,0.012,0.114,0.017,0.167,0.037
				c0.041,0.017,0.093,0.031,0.139,0.047l-0.132,0.633v0.037c-0.007,0.01-0.014,0.02-0.02,0.027c-0.033,0.04-0.06,0.086-0.087,0.127
				c0.009,0,0.017,0,0.023,0c-0.01,0.066-0.023,0.133-0.038,0.215c0.042-0.002,0.102-0.021,0.152-0.011
				c0.098,0.019,0.085,0.343-0.024,0.41v-0.133c-0.123,0.065-0.182,0.235-0.188,0.362c-0.005,0.088-0.077,0.174-0.117,0.262
				c-0.129-0.073-0.138,0.092-0.219,0.127c0.11,0.014,0.213-0.008,0.317-0.016c0.064-0.004,0.132,0.011,0.197,0.021v0.007
				c-0.021,0.042-0.043,0.084-0.058,0.115c0.013,0.039,0.027,0.07,0.033,0.105c0.002,0.009-0.03,0.022-0.046,0.03
				c-0.015-0.022-0.021-0.052-0.039-0.075c-0.018-0.02-0.048-0.047-0.064-0.043c-0.148,0.029-0.297,0.066-0.445,0.102
				c-0.004,0.018-0.006,0.04-0.01,0.059c0.091,0.027,0.179,0.061,0.271,0.073c0.017,0.003,0.044-0.078,0.075-0.142
				c0.026,0.031,0.067,0.072,0.07,0.113c0,0.023-0.068,0.049-0.105,0.076c-0.047,0.029-0.091,0.061-0.137,0.09
				c-0.062,0.037-0.16,0.047-0.201,0.102c-0.122,0.148,0.15,0.13,0.127,0.225c-0.094,0.079-0.169,0.145-0.244,0.209
				c0.05,0.115,0.259,0.115,0.148,0.283c0.08,0.029,0.146,0.052,0.235,0.084c0.033-0.131,0.062-0.26,0.105-0.382
				c0.021-0.058,0.083-0.146,0.114-0.142c0.136,0.018,0.167-0.053,0.162-0.187c0.003,0.001,0.005,0.003,0.007,0.004v4.615
				c-0.788,1.847-1.683,2.768-2.682,2.768h-2.091c-1.092,0-1.887-1.743-2.389-5.233l0.298-0.297l-0.593-3.043l0.295-0.334v-0.906
				l-0.295,0.295h-0.295l0.59-0.909v-1.54l-0.295-1.559h0.295l0.225-0.223l4.687-0.093h1.659l0.216-0.021l0.197,0.002
				c-0.054,0.024-0.079,0.043-0.079,0.056l0.079,0.055h-0.04c-0.039,0-0.073,0.056-0.099,0.166v0.019l0.04,0.149
				c0,0.011,0.155,0.017,0.467,0.019l-0.19,0.205v0.611l0.314,0.297h-0.314L593.36,217.721z M593.045,221.334
				c-0.116-0.021-0.205-0.037-0.293-0.052c0.01-0.038,0.01-0.091,0.036-0.11c0.03-0.023,0.083-0.021,0.132-0.031
				c0.035,0.043,0.072,0.092,0.125,0.16V221.334z M572.076,212.035c-0.033,0.059-0.092,0.104-0.139,0.152
				c-0.014-0.011-0.029-0.021-0.046-0.031c0.009-0.034,0.017-0.069,0.022-0.104l-0.003,0.003h-0.002
				c-0.056,0.021-0.109,0.041-0.177,0.07c-0.002-0.008-0.013-0.037-0.026-0.081c-0.051,0.044-0.103,0.086-0.15,0.126
				c-0.01-0.005-0.021-0.011-0.03-0.016c0.021-0.035,0.036-0.076,0.064-0.104c0.034-0.034,0.075-0.063,0.118-0.087
				c0.051-0.027,0.106-0.047,0.16-0.072c0.015,0.055,0.028,0.109,0.041,0.164c0.002-0.003,0.003-0.003,0.005-0.004v0.001
				c0.032-0.03,0.065-0.057,0.091-0.093c0.033-0.055,0.062-0.116,0.094-0.175c0.021,0.009,0.041,0.017,0.062,0.026
				C572.135,211.886,572.116,211.965,572.076,212.035 M571.375,212.684c-0.014-0.017-0.027-0.031-0.041-0.051
				c0.119-0.105,0.236-0.214,0.355-0.32c0.018,0.021,0.036,0.043,0.055,0.066C571.621,212.479,571.498,212.582,571.375,212.684
				 M571.605,213.594c-0.146-0.035-0.299-0.07-0.448-0.103c-0.071-0.015-0.069-0.011-0.09,0.065
				c-0.006,0.018-0.044,0.045-0.052,0.041c-0.068-0.046-0.137-0.097-0.218-0.156c-0.065-0.018-0.154-0.039-0.24-0.069
				c-0.008-0.003,0.011-0.073,0.017-0.111c0.076,0.015,0.149,0.027,0.236,0.041c0.042-0.032,0.094-0.081,0.18-0.151
				c-0.025,0.074-0.039,0.117-0.054,0.156c0.156,0.101,0.422,0.104,0.496,0.004c0.064,0.024,0.131,0.045,0.195,0.064
				C571.623,213.434,571.617,213.494,571.605,213.594 M570.283,212.364c0.064-0.062,0.133-0.124,0.217-0.203
				C570.495,212.355,570.422,212.41,570.283,212.364 M570.131,211.303c-0.014,0.006-0.025,0.014-0.041,0.021
				c-0.07-0.104-0.143-0.202-0.228-0.324c0.113-0.061,0.202,0.005,0.25,0.076C570.148,211.13,570.127,211.225,570.131,211.303
				 M569.803,213.023c-0.035,0.022-0.102,0.037-0.133,0.017c-0.044-0.024-0.062-0.09-0.102-0.129
				c-0.062-0.062-0.129-0.144-0.189,0.013c-0.016,0.043-0.077,0.069-0.136,0.088c0.032-0.062,0.073-0.117,0.088-0.18
				c0.017-0.066,0.01-0.139,0.012-0.167c0.071,0.005,0.118,0.006,0.165,0.013c0.022,0.004,0.055,0.008,0.068,0.024
				c0.053,0.077,0.1,0.157,0.151,0.239c0.039-0.016,0.082-0.035,0.15-0.06C569.846,212.95,569.834,213.002,569.803,213.023
				 M569.404,214.761c0.002-0.016,0.004-0.032,0.004-0.047c0.083,0.021,0.167,0.042,0.267,0.069L569.404,214.761z M568.607,213.473
				c-0.005-0.08-0.011-0.132-0.015-0.184c-0.058-0.02-0.116-0.04-0.175-0.062c0.007-0.019,0.012-0.037,0.018-0.059
				c0.098,0.027,0.194,0.053,0.309,0.084C568.705,213.311,568.667,213.375,568.607,213.473 M568.367,213.621
				c-0.035,0.07-0.076,0.16-0.122,0.259c-0.017-0.003-0.019-0.008-0.09-0.302c0.045,0.035,0.073,0.057,0.095,0.068
				c0.082-0.041,0.158-0.082,0.237-0.123l0.025,0.09C568.468,213.616,568.424,213.617,568.367,213.621 M568.062,213.309
				c0.022-0.104,0.045-0.213,0.067-0.32c0.142,0.031-0.141,0.184,0.094,0.164c-0.047,0.064-0.085,0.115-0.12,0.168
				C568.091,213.314,568.074,213.311,568.062,213.309 M570.943,212.432c-0.144-0.031-0.183,0.209-0.334,0.065
				C570.852,212.337,570.852,212.337,570.943,212.432 M571.242,212.872c0.014,0.017,0.022,0.03,0.037,0.048
				c-0.076,0.062-0.152,0.127-0.229,0.188c-0.017-0.019-0.031-0.037-0.046-0.055C571.084,212.992,571.164,212.932,571.242,212.872
				 M567.494,211.273l0.135-0.18c0.029,0.051,0.064,0.104,0.087,0.146C567.633,211.252,567.57,211.262,567.494,211.273
				 M565.71,216.884h-0.571v0.261l-0.315,1.67h-0.568v-0.52l-2.23,0.667v-0.259l0.296-0.262v-0.073l-5.364,0.149l0.296-0.259
				l-0.296-0.261v-0.259l0.296-0.261l-0.264-2.287h3.081l4.858,0.063l0.212,1.371h0.571L565.71,216.884L565.71,216.884z
				 M551.379,236.747c-0.104-0.044-0.094-0.136-0.106-0.213c0.004-0.001,0.006-0.003,0.012-0.005l-0.004,0.003
				c0.037,0.011,0.076,0.022,0.111,0.034C551.387,236.626,551.384,236.686,551.379,236.747 M551.151,236.343
				c0.006-0.009,0.013-0.019,0.021-0.032c0.038,0.028,0.077,0.056,0.101,0.069c-0.003,0.024-0.003,0.042-0.003,0.062
				C551.229,236.417,551.188,236.381,551.151,236.343 M550.531,235.843c-0.027-0.017-0.055-0.034-0.083-0.049
				c-0.046-0.022-0.089-0.04-0.136-0.058c0.049-0.037,0.112-0.07,0.136-0.057c0.044,0.025,0.075,0.041,0.104,0.037
				C550.546,235.762,550.539,235.807,550.531,235.843 M605.301,214.764l-0.192-0.158l-0.593,0.183l-1.332-0.011
				c0-0.002-0.004-0.006-0.004-0.006c-0.03-0.039-0.052-0.078-0.063-0.119h-0.13v-5.502h-7.771v2.596l0.294,2.005h0.296
				l-0.394,0.594l-0.274,0.275l-2.165-0.031l-7.324,0.194v0.002l-0.768-0.145l1.973-0.296h0.888l-0.297-0.872l0.297-0.854v-0.296
				l-0.297-0.299v-0.277l0.297-0.296l-0.019-0.188l0.019-1.26v-0.852l-0.297-0.297l-0.295,0.297l-0.296-0.297l-0.299,0.297h-0.312
				l-0.296-0.297h-4.457l-0.314-0.279v0.279h-0.298l-0.296-0.279h-0.887l-0.198,0.576v1.148l-0.099,4.139l-1.953,0.111l-0.033,0.146
				l-3.041-0.039l-0.039,0.001l-0.08-1.91v-2.282l0.296-1.669h-6.39l-1.42,0.259l0.295,1.41l-0.295,2.542l0.149,1.744h-0.899v0.017
				H565c-1.797-0.097-3.096-0.166-3.899-0.209l-2.07-0.132l-0.162-2.44l0.256-2.413v-0.778h-0.256l-2.271,0.075l-3.846-0.075
				l-1.145,0.52l-0.116,2.672l0.109,2.561c-0.054,0.002-0.101,0.002-0.147,0.002l-0.609-0.049l-0.346,0.195l-0.866-0.016
				c-0.256-0.025-0.533-0.049-0.833-0.076c-1.27-0.125-1.902-0.181-1.902-0.168l-0.08,0.148v0.02
				c0.021,0.051,0.046,0.094,0.077,0.121l-0.22,0.014l-0.15,0.238l0.195,0.239l0.689,0.041l1.922-0.106l0.188,5.539l-0.275,0.26
				v0.259h0.275l-0.275,0.259l0.275,1.301v0.256l-0.108,0.221l0.108,0.302v0.261l-0.275,0.24l0.275,0.256v0.264l-0.275,0.259v0.261
				l0.275,1.557v0.521l-0.144,0.293l0.144,0.226v0.764l-0.078,0.308l0.078,0.21v4.398l0.204,0.179
				c0.004,0.024,0.009,0.046,0.021,0.065c0.012,0.021,0.02,0.037,0.024,0.056l-0.25,0.219v1.039h0.138
				c-0.037,0.138-0.064,0.263-0.105,0.379c-0.061,0.175-0.139,0.338-0.19,0.513c-0.031,0.103,0.01,0.164,0.133,0.164
				c0.032,0,0.065,0.043,0.1,0.063c-0.021,0.032-0.041,0.065-0.068,0.091c-0.016,0.018-0.057,0.014-0.067,0.029
				c-0.035,0.064-0.062,0.135-0.09,0.201c0.053,0.017,0.104,0.052,0.153,0.052c0.095-0.003,0.189-0.017,0.279-0.043
				c0.051-0.017,0.092-0.069,0.135-0.104c-0.037-0.045-0.082-0.086-0.109-0.131c-0.053-0.085-0.148-0.193-0.126-0.254
				c0.019-0.047,0.043-0.105,0.077-0.152c0.049,0.004,0.095,0.014,0.138,0.022c0.018,0.046,0.013,0.089-0.062,0.136
				c0.061,0.059,0.108,0.109,0.177,0.176c0.04-0.049,0.079-0.099,0.12-0.146c0.021,0.005,0.045,0.006,0.074-0.006
				c0.056-0.014,0.128,0.031,0.193,0.042c0.032,0.006,0.068,0.011,0.102,0.011c-0.002,0.018-0.004,0.037-0.008,0.055
				c-0.004,0.034,0.004,0.072,0.006,0.108c0.041-0.002,0.105,0.011,0.124-0.01c0.03-0.038,0.059-0.078,0.085-0.117
				c0.023,0.028,0.046,0.056,0.057,0.085c0.015,0.04,0.005,0.09-0.006,0.133c-0.043,0.188-0.033,0.426-0.147,0.549
				c-0.139,0.152-0.003,0.211,0,0.313c0.098-0.22,0.185-0.437,0.262-0.656c0.062,0.022,0.109,0.032,0.152,0.017
				c0,0.016,0.004,0.025,0.012,0.03c0.06,0.038,0.144,0.038,0.22,0.052v0.014c-0.086,0.16-0.082,0.175,0.104,0.341
				c0.021,0.019,0.049,0.028,0.103,0.06c-0.024-0.065-0.035-0.097-0.05-0.138c0.065,0.009,0.14,0.038,0.157,0.019
				c0.098-0.105,0.177-0.029,0.239,0.007c0.016-0.038,0.029-0.07,0.042-0.104c0.134,0.045,0.265,0.088,0.396,0.129
				c-0.053,0.016-0.097,0.028-0.152,0.045c0.13,0.064,0.24,0.119,0.378,0.189c0.019-0.005,0.076-0.03,0.133-0.032
				c0.03-0.001,0.067,0.003,0.096-0.001c0.006,0.006,0.013,0.01,0.017,0.014c0-0.008,0-0.015,0.004-0.02
				c0.008-0.006,0.016-0.016,0.02-0.029c0.077-0.076,0.328-0.113,0.168-0.234c0.021-0.006,0.039-0.016,0.061-0.035
				c-0.032-0.008-0.062-0.02-0.094-0.028c0.003-0.032,0.007-0.067,0.009-0.1c0.034-0.029,0.069-0.058,0.065-0.068
				c-0.018-0.037-0.025-0.073-0.057-0.103c0-0.063,0.008-0.107,0.111-0.131c0.037-0.006,0.054-0.078,0.098-0.152
				c0.016-0.002,0.088-0.008,0.137-0.014c-0.055-0.043-0.114-0.075-0.145-0.121c-0.025-0.037-0.021-0.09-0.017-0.135l0.234-0.102
				c0.022,0.033,0.039,0.062,0.044,0.09c0.001,0.018-0.051,0.049-0.085,0.062l0.375-0.101c-0.002-0.009-0.007-0.019-0.011-0.028
				c-0.046,0-0.09-0.002-0.134-0.006c0.02-0.019,0.039-0.039,0.059-0.052c0.033-0.002,0.06,0,0.067,0.011
				c0.081,0.094,0.144,0.078,0.224,0.017c0.053,0.001,0.103-0.032,0.111-0.117c0.008,0.005,0.015,0.009,0.021,0.015
				c0.024-0.039,0.049-0.078,0.073-0.119c0.014-0.004,0.026-0.006,0.038-0.01c0.012,0.047,0.023,0.092,0.027,0.139
				c0.006,0.099,0.002,0.195,0.014,0.291c0.002,0.02,0.049,0.041,0.075,0.047c0.083,0.013,0.173,0.017,0.261,0.027
				c-0.018-0.136-0.107-0.162-0.256-0.104c0.098-0.076,0.185-0.143,0.27-0.21c0.158-0.024,0.312-0.048,0.428-0.065
				c0.049,0.09,0.076,0.184,0.105,0.186c0.087,0.003,0.125-0.057,0.115-0.158c0-0.008,0.006-0.021,0.016-0.033l0.039,0.041
				c-0.015-0.016-0.027-0.027-0.039-0.041c0.021-0.029,0.063-0.064,0.094-0.07c0.037-0.008,0.076,0,0.115,0.006
				c-0.035,0.02-0.069,0.039-0.103,0.058c0.017,0.069,0.038,0.114,0.032,0.155c-0.003,0.019-0.062,0.035-0.097,0.039l0.388,0.002
				c0-0.01-0.003-0.022-0.005-0.032c-0.041-0.013-0.086-0.026-0.128-0.04c0.104-0.059,0.187-0.096,0.274,0.016
				c0.051,0.066,0.163,0.094,0.214-0.043c-0.038-0.017-0.075-0.035-0.112-0.052c-0.004-0.017-0.004-0.032-0.008-0.046
				c0.062-0.021,0.127-0.066,0.188-0.057c0.126,0.021,0.198-0.01,0.209-0.121c0.01,0.016,0.018,0.029,0.026,0.031
				c0.054,0,0.08-0.025,0.095-0.07v0.01c0.115-0.027,0.218-0.049,0.336-0.074c-0.025-0.031-0.043-0.052-0.06-0.07
				c0.035-0.002,0.072-0.019,0.104-0.037c0.047-0.027,0.087-0.068,0.141-0.112c0.042-0.052,0.092-0.119,0.143-0.185l0.039,0.049
				c0.017-0.118,0.031-0.236,0.05-0.354l0.151-0.014v-0.378c0.019-0.033,0.034-0.069,0.053-0.108
				c-0.011-0.021-0.032-0.039-0.053-0.063v-0.197c0.075-0.055,0.152-0.109,0.234-0.166c-0.029-0.059-0.064-0.126-0.1-0.194h-0.136
				v-6.909l-0.296-0.259l0.296-1.038h7.039c0.316,0,0.599,0.518,0.851,1.559h-0.279l0.851,1.298h-0.296l-0.275-0.259l-0.278,0.259
				v3.872l0.555,0.779l-0.274,0.242h-0.279l0.279,0.258v1.56h2.801l0.295-0.261l0.276,0.261h3.294l0.571-0.521v-1.039l-0.297-0.258
				v-0.242l0.142-0.123l-0.142-0.139l0.297-0.261c0.216-5.826-0.66-7.021,0-13.963l-0.297-1.854l0.297-0.26l-0.165-1.156
				l0.342-0.031c0.026-0.012,0.211-0.024,0.553-0.037c-0.015,0-0.03,0-0.051-0.004l1.293,0.021c0,0,2.235-0.104,3.004-0.098
				l-0.125,0.543v2.895l0.594,2.596l-0.594,1.133l0.298,0.297v3.47l0.296,0.277h-0.296l0.296,1.446v2.301l0.906,1.17
				c1.341,2.251,4.028,3.877,8.065,4.879v-0.278h0.295l0.298,0.278h4.477l1.796-0.557v0.277c0.985-0.185,2.476-0.854,4.476-2.003
				v-0.298l-0.295-0.277h0.592l0.298,0.277c0.102-0.766,0.405-1.148,0.904-1.148l-0.312-0.301v-0.277l0.312,0.277h0.297
				c0.5-1.715,0.895-2.576,1.183-2.576l-0.294-0.297l0.887-3.472l-0.296-0.277v-1.745l0.296-2.021l-0.593-1.148l0.297-0.296
				c0-0.37-0.297-0.557-0.888-0.557v-0.298h0.591l0.297,0.298l0.296-1.449l-0.593-1.149c-0.293,0.073-0.308-0.444-0.041-1.556
				c0.008-0.001,0.017-0.001,0.021-0.002h0.493v0.017h0.852l2.475,0.186l0.098-0.205l-0.077-0.102l0.239-0.014l0.104-0.113
				l0.07-0.125l-0.01-0.154L605.301,214.764z"/>
			<path fill="#FFFFFF" d="M701.32,213.172"/>
			<path fill="#FFFFFF" d="M700.621,214.544c-0.029,0.002-0.07-0.022-0.092-0.047c-0.011-0.011,0.006-0.06,0.022-0.078
				c0.119-0.136,0.238-0.269,0.379-0.423c0.019,0.025,0.052,0.05,0.058,0.082C701.012,214.216,700.762,214.535,700.621,214.544
				 M700.705,215.169c-0.039-0.024-0.078-0.051-0.117-0.076c0.076-0.106,0.15-0.212,0.228-0.317
				c0.032,0.021,0.065,0.045,0.104,0.068C700.846,214.954,700.777,215.061,700.705,215.169 M700.943,217.682
				c0.012,0.01-0.021,0.116-0.037,0.117c-0.078,0.012-0.16,0.003-0.236-0.008c-0.102-0.016-0.217-0.081-0.303-0.052
				c-0.256,0.083-0.293-0.202-0.467-0.25c-0.017-0.001-0.013-0.068-0.013-0.058c0.086-0.035,0.193-0.057,0.193-0.086
				c0.008-0.227,0.178-0.256,0.397-0.261c-0.059,0.086-0.112,0.169-0.196,0.294c0.141,0.051,0.291,0.102,0.436,0.163
				C700.799,217.578,700.875,217.625,700.943,217.682 M700.191,216.439c-0.017,0.16-0.031,0.32-0.048,0.479
				C700.07,216.449,700.07,216.449,700.191,216.439 M699.697,215.318c0.018-0.099,0.026-0.204,0.055-0.303
				c0.064-0.24,0.043-0.272-0.197-0.268c0.008-0.245,0.017-0.487,0.027-0.811c0-0.101,0.002-0.273,0-0.448
				c-0.002-0.249-0.004-0.496-0.008-0.743l0.231,0.021c-0.041,0.414-0.1,0.817,0.269,1.107c-0.051,0.114-0.101,0.223-0.146,0.33
				c0.025,0.018,0.056,0.035,0.082,0.052c0.117-0.112,0.232-0.225,0.349-0.338c0.021,0.021,0.043,0.038,0.062,0.058
				c-0.109,0.293-0.426,0.424-0.629,0.723c0.176,0.039,0.318,0.066,0.471,0.098c-0.016,0.025-0.031,0.084-0.069,0.108
				c-0.152,0.099-0.173,0.267-0.101,0.382c0.16,0.245,0.021,0.486,0.035,0.727c0.006,0.059-0.049,0.118-0.084,0.197
				c-0.225-0.236-0.189-0.486-0.184-0.775C699.834,215.418,699.771,215.373,699.697,215.318 M699.777,217.406
				c-0.117-0.012-0.236-0.006-0.345-0.038c-0.055-0.019-0.086-0.101-0.127-0.153c0.072-0.027,0.162-0.1,0.218-0.078
				c0.104,0.039,0.188,0.131,0.274,0.2C699.791,217.355,699.783,217.383,699.777,217.406 M699.156,217.245
				c-0.078-0.024-0.154-0.042-0.246-0.065c-0.049,0.078-0.098,0.162-0.148,0.244c-0.028-0.007-0.055-0.02-0.082-0.027
				c0.041-0.119,0.062-0.322,0.127-0.336c0.111-0.025,0.25,0.063,0.38,0.108C699.176,217.191,699.166,217.218,699.156,217.245
				 M697.271,217.374c0.122-0.367,0.264-0.411,0.518-0.183C697.613,217.254,697.461,217.309,697.271,217.374 M692.994,218.48
				l-0.688,1.78c-0.637,0.375-0.998,0.73-1.084,1.067l-0.1-0.102l-1.479,0.574l-1.716-0.261v-0.294l0.238-0.262l-0.021-0.573
				l-0.257-0.278h0.236l-0.236-0.297c-0.053-2.67,0.039-4.008,0.277-4.008l1.062-0.038
				C692.121,215.482,693.377,216.378,692.994,218.48 M676.992,214.085c0.002-0.414,0.021-0.824-0.375-1.075
				c0.043-0.121,0.08-0.232,0.119-0.343c-0.029-0.017-0.062-0.034-0.09-0.046c-0.105,0.123-0.209,0.247-0.312,0.37
				c-0.023-0.017-0.045-0.034-0.068-0.05c0.082-0.299,0.384-0.463,0.558-0.78c-0.177-0.019-0.318-0.034-0.478-0.052
				c0.015-0.026,0.025-0.086,0.062-0.114c0.141-0.114,0.147-0.281,0.061-0.39c-0.178-0.23-0.065-0.481-0.102-0.724
				c-0.011-0.054,0.035-0.118,0.065-0.204c0.244,0.219,0.234,0.471,0.256,0.758c0.025,0.017,0.093,0.053,0.17,0.1
				c-0.008,0.101-0.006,0.206-0.022,0.308c-0.043,0.245-0.021,0.277,0.221,0.249c0.017,0.245,0.029,0.487,0.052,0.809
				c0.008,0.1,0.022,0.271,0.043,0.445c0.022,0.246,0.051,0.492,0.08,0.74L676.992,214.085L676.992,214.085z M676.26,209.986
				c0.121,0.462,0.121,0.462,0,0.481V209.986z M675.912,209.85c0.047-0.088,0.094-0.179,0.164-0.31
				c-0.146-0.038-0.297-0.076-0.447-0.12c-0.082-0.027-0.164-0.068-0.236-0.117c-0.014-0.008,0.009-0.117,0.029-0.121
				c0.072-0.019,0.152-0.017,0.23-0.014c0.106,0.005,0.227,0.059,0.309,0.021c0.246-0.104,0.311,0.175,0.488,0.201
				c0.014,0.004,0.018,0.068,0.014,0.06c-0.076,0.042-0.184,0.075-0.18,0.104C676.297,209.779,676.131,209.825,675.912,209.85
				 M675.689,212.125c0.061-0.115,0.118-0.23,0.178-0.343c0.043,0.021,0.086,0.041,0.127,0.065
				c-0.066,0.111-0.131,0.225-0.195,0.338C675.762,212.166,675.725,212.145,675.689,212.125 M676.094,212.516
				c-0.104,0.146-0.213,0.287-0.336,0.455c-0.022-0.021-0.057-0.044-0.063-0.076c-0.037-0.136,0.18-0.476,0.319-0.498
				c0.029-0.004,0.07,0.017,0.097,0.035C676.119,212.443,676.107,212.492,676.094,212.516 M675.453,213.833h-0.002
				c0.029,0.065,0.059,0.134,0.098,0.216c-0.01,0.014-0.022,0.025-0.035,0.037h-0.403
				C675.198,213.969,675.255,213.814,675.453,213.833c-0.001-0.002-0.005-0.003-0.005-0.004c-0.099-0.081-0.199-0.164-0.345-0.285
				h0.556c0.028,0.074,0.059,0.16,0.117,0.313c-0.132-0.012-0.229-0.021-0.328-0.028L675.453,213.833z M676.58,209.464
				c0.117,0,0.234-0.014,0.346,0.009c0.056,0.01,0.094,0.092,0.142,0.141c-0.068,0.035-0.152,0.113-0.209,0.1
				c-0.104-0.027-0.197-0.115-0.293-0.175C676.57,209.514,676.576,209.491,676.58,209.464 M707.258,215.301l-5.199-0.283
				c-0.118-0.701-0.297-1.332-0.524-1.906c-0.056,0.046-0.121,0.074-0.215,0.055c0,0.001,0,0.003,0.002,0.005
				c0.09,0.091,0.18,0.181,0.312,0.315c-0.231-0.021-0.383-0.036-0.551-0.051c-0.021-0.078-0.045-0.166-0.086-0.324
				c0.129,0.023,0.227,0.043,0.324,0.061l-0.006-0.005h0.004c-0.023-0.069-0.047-0.14-0.076-0.228
				c0.012-0.008,0.022-0.021,0.035-0.03l0.178,0.017c-0.777-1.787-2.125-2.918-4.041-3.388c-0.275-0.247-1.209-0.478-2.801-0.687
				v0.39l-1.479-0.351l-0.021-0.373l-0.865,0.406l-1.205-0.312h-0.275l-6.43,0.018l-2.959,0.112v1.557l-0.098,3.896l-0.086,0.615
				h-0.351c-0.062,0-0.885-0.009-2.463-0.02c-0.227-0.014-0.479-0.02-0.77-0.02h-0.302l0.062-0.703l-0.16-0.149v-0.333l0.16-0.148
				h-0.16l0.16-0.816v-0.354l-0.16-0.147l0.336-1.149l-0.176-0.168v-1.095c-0.062-0.019-0.123-0.042-0.185-0.056
				c0.009-0.027,0.017-0.055,0.021-0.08c0.051,0.008,0.104,0.017,0.162,0.025V209l-2.336-0.1c-0.002,0.051,0,0.104,0.021,0.142
				c0.039,0.071,0.113,0.123,0.183,0.19c-0.062,0.007-0.15,0.018-0.173,0.021c-0.055,0.114-0.075,0.229-0.12,0.239
				c-0.146,0.034-0.142,0.123-0.14,0.235c0.002,0.142-0.02,0.289-0.028,0.451c0.348,0.256-0.205,0.283-0.191,0.477
				c-0.066-0.057-0.133-0.113-0.199-0.17c0.39-0.604,0.459-0.896-0.01-1.494c0.143,0.013,0.242-0.025,0.312-0.105l-0.731-0.031
				h-5.619l-0.178-0.168l-0.158,0.168l-1.025-0.168l-0.514,0.168l-0.512-0.168l-0.179,0.168h-0.159l-0.175-0.168v0.168l-0.85-0.168
				h-0.178l-0.176,0.168v-0.168l-0.494,0.168h-0.178l-0.179-0.168l-0.513,0.168v-0.168l-0.157,0.168l-0.867-0.168h-2.387
				l-0.158,0.168v0.146l0.158,0.167v0.188l-0.158,0.147l0.158,0.164v1.134l-0.158,0.168l0.158,0.166v0.148l-0.158,0.667v0.168
				l0.158,0.147l-0.158,0.502v0.166l0.158,0.147l-0.158,0.985l-0.008,0.765l-2.002,0.011v0.057l0.158,0.817l-0.158,0.167
				l0.158,0.461l-0.158,0.168v3.1l0.158,0.835l-0.158,0.501v1.947l-0.176,0.168l0.176,0.166v0.482l-0.176,0.146l0.176,0.188v2.932
				l-0.176,0.816l0.176,0.148l-0.176,0.166v1.798l0.176,0.167h-0.176l0.176,1.801l-0.176,0.816l0.176,0.166h-0.176v0.168
				l0.176,0.147v0.353l-0.176,0.149h0.176v0.167l-0.176,0.147v0.335l0.334,0.333v-0.333h0.177c0,0.283,0.283,0.451,0.849,0.5v-0.166
				l0.851,0.166l0.512-0.166v0.166l0.511-0.166l0.692,0.166h0.176l0.16-0.166l0.177,0.166h0.336l0.177-0.166v0.166l0.159-0.166
				v-0.501c0,0,0.979,0.817,2.227,0.817v-0.149l0.85,0.149l1.027-0.334l1.537,0.147h2.389l1.69,0.167l0.181-0.167l0.688,0.167h2.209
				v-6.66h-3.588l-1.182-0.186l-0.18,0.186l-2.39-0.186l-0.944,0.186c-1.132-0.124-1.695-0.291-1.695-0.501v-1.633l0.178-0.815
				l-0.178-0.169l2.01-0.333v0.186l0.672-0.186l0.101,0.186h1.022v-0.186l-0.176-0.147l0.848,0.333l0.179-0.186h0.512l0.178,0.186
				l0.158-0.186h0.18l0.177,0.186l0.336-0.333l0.334,0.333l0.688-0.333v0.147l0.851-0.313h0.178v0.166h-0.355v0.147l0.178,0.186
				l0.179-0.186l0.848,0.186v-0.333l0.689,0.333c0.223,0,0.336-0.271,0.336-0.816v-0.835h-0.021l-0.276-4.433h-0.158l0.158-0.482
				l-2.933,0.165c-0.135-0.003-0.668-0.014-1.258-0.024l-0.234-0.006c-0.811-0.019-1.643-0.035-1.688-0.035
				c-0.07,0-2.633-0.101-3.558-0.138l-0.149-0.223l0.334-2.485h0.516l1.023-0.166l-0.078,0.166l0.51-0.166v0.166h0.181l0.155-0.166
				h0.334l0.693,0.166l0.69-0.166h0.851l0.846,0.166l0.176-0.166l0.16,0.166h0.51l0.169-0.156h0.012v0.156l0.461-0.15
				c0.102,0,0.217,0.002,0.346,0.002l2.092,0.129l0.033-0.158l4.611,0.1l0.207,6.403c-0.355,3.54-0.035,7.084,0.236,10.612
				l0.079,2.396l7.691-0.028l-0.021-0.52l-0.297-0.259l0.277-0.019l-0.277-0.24l-0.02-0.278l0.059-4.167l-0.274,0.02
				c-0.105-1.064,0.032-1.604,0.416-1.615c1.391-0.036,2.521,1.175,3.391,3.637c0.816,2.1,1.783,3.268,2.898,3.352l7.338,0.088
				l-0.021-0.278l-4.83-8.821c2.584-1.646,4.064-3.848,4.447-6.6c-0.021-0.055-0.025-0.118,0.025-0.202
				c0.088-0.759,0.096-1.56,0.022-2.399l-0.131-1.117l3.457-0.162h0.262c-0.047-0.002-0.094-0.004-0.137-0.006L707.258,215.301z"/>
		</g>
		<path fill="#FFFFFF" d="M675.445,213.828h0.002H675.445z"/>
	</g>
	<g>
		<polygon fill="#FFFFFF" points="885.361,236.544 879.953,229.434 877.613,229.434 877.613,240.98 880.115,240.98 880.115,233.641 
			885.707,240.98 887.869,240.98 887.869,229.434 885.361,229.434 		"/>
		<polygon fill="#FFFFFF" points="870.973,223.712 877.422,204.668 872.115,204.668 868.893,215.689 865.354,204.668 
			860.91,204.668 857.363,215.689 854.145,204.668 848.732,204.668 855.174,223.712 859.555,223.712 863.062,212.882 
			866.598,223.712 		"/>
		<path fill="#FFFFFF" d="M894.041,236.148l1.535-3.746l1.535,3.746H894.041z M894.436,229.355l-4.944,11.625h2.588l1.057-2.59
			h4.883l1.056,2.59h2.651l-4.942-11.625H894.436z"/>
		<g>
			<path fill="#FFFFFF" d="M872.859,235.24c0,1.979-1.418,3.597-3.468,3.597c-2.041,0-3.493-1.649-3.493-3.626v-0.037
				c0-1.979,1.416-3.594,3.465-3.594c2.045,0,3.496,1.648,3.496,3.63V235.24z M869.393,229.24c-3.561,0-6.147,2.686-6.147,5.97v0.03
				c0,3.283,2.559,5.937,6.119,5.937c3.562,0,6.151-2.688,6.151-5.966v-0.037C875.516,231.893,872.957,229.24,869.393,229.24"/>
			<path fill="#FFFFFF" d="M882.428,214.135c0-2.742,1.926-5.088,4.818-5.088c2.904,0,4.889,2.398,4.889,5.145v0.056
				c0,2.751-1.932,5.088-4.842,5.088c-2.879,0-4.865-2.401-4.865-5.144V214.135z M887.246,224.096
				c5.871,0,10.277-4.432,10.277-9.904v-0.057c0-5.463-4.353-9.849-10.23-9.849c-5.867,0-10.273,4.435-10.273,9.905v0.055
				C877.02,219.712,881.363,224.096,887.246,224.096"/>
		</g>
		<polygon fill="#FFFFFF" points="789.602,231.777 793.113,231.777 793.113,240.98 795.654,240.98 795.654,231.777 799.166,231.777 
			799.166,229.434 789.602,229.434 		"/>
		<g>
			<path fill="#FFFFFF" d="M911.188,211.553c0,1.385-1.041,2.256-2.825,2.256h-3.685v-4.566h3.65c1.771,0,2.859,0.76,2.859,2.258
				V211.553L911.188,211.553z M916.598,211.229v-0.058c0-1.884-0.571-3.341-1.688-4.427c-1.281-1.312-3.287-2.075-6.205-2.075
				h-9.201v19.044h5.287v-5.77h2.502l3.84,5.77h6.092l-4.543-6.639C915.049,216.064,916.598,214.135,916.598,211.229"/>
		</g>
		<polygon fill="#FFFFFF" points="961.367,220.498 960.215,222.285 959.055,220.498 958.555,220.498 958.555,223.758 
			959.016,223.758 959.016,221.257 960.17,223.023 960.24,223.023 961.4,221.257 961.4,223.758 961.852,223.758 961.852,220.498 		
			"/>
		<polygon fill="#FFFFFF" points="955.273,220.943 956.32,220.943 956.32,223.758 956.789,223.758 956.789,220.943 957.834,220.943 
			957.834,220.498 955.273,220.498 		"/>
		<polygon fill="#FFFFFF" points="837.623,223.712 842.902,223.712 842.902,209.287 848.039,209.287 846.504,204.668 
			832.113,204.668 832.113,209.287 837.623,209.287 		"/>
		<polygon fill="#FFFFFF" points="830.75,219.227 822.262,219.227 822.262,216.202 828.969,216.202 828.969,212.038 
			822.262,212.038 822.262,209.284 830.1,209.284 830.1,204.668 817.033,204.668 817.033,223.71 830.75,223.71 		"/>
		<polygon fill="#FFFFFF" points="937.436,204.668 931.182,204.668 924.617,212.395 924.617,204.668 919.342,204.668 
			919.342,223.712 924.617,223.712 924.617,218.787 926.555,216.637 931.338,223.712 937.672,223.712 930.221,212.855 		"/>
		<rect x="858.492" y="229.434" fill="#FFFFFF" width="2.537" height="11.547"/>
		<polygon fill="#FFFFFF" points="905.889,229.434 903.348,229.434 903.348,240.98 911.641,240.98 911.641,238.669 905.889,238.669 
					"/>
		<g>
			<path fill="#FFFFFF" d="M946.82,211.854c-2.635-0.6-3.293-0.983-3.293-1.851v-0.055c0-0.683,0.627-1.228,1.896-1.228
				c1.693,0,3.603,0.651,5.347,1.877l2.635-3.727c-2.066-1.657-4.603-2.528-7.834-2.528c-4.57,0-7.373,2.556-7.373,6.093v0.055
				c0,3.922,3.123,5.062,7.178,5.988c2.592,0.595,3.209,1.029,3.209,1.813v0.06c0,0.812-0.754,1.312-2.176,1.312
				c-2.197,0-4.291-0.797-6.17-2.293l-2.935,3.51c2.334,2.099,5.547,3.159,8.916,3.159c4.625,0,7.701-2.319,7.701-6.204v-0.052
				C953.922,214.221,951.199,212.803,946.82,211.854"/>
		</g>
		<polygon fill="#FFFFFF" points="814.42,204.668 809.197,204.668 809.197,214.73 801.363,204.668 796.441,204.668 796.441,223.712 
			801.658,223.712 801.658,213.268 809.795,223.712 814.42,223.712 		"/>
		<polygon fill="#FFFFFF" points="785.311,236.544 779.9,229.434 777.557,229.434 777.557,240.98 780.064,240.98 780.064,233.641 
			785.654,240.98 787.814,240.98 787.814,229.434 785.311,229.434 		"/>
		<polygon fill="#FFFFFF" points="767.508,204.654 762.865,204.654 758.975,215.624 755.148,204.654 750.506,204.654 
			747.213,214.482 750.113,222.309 753.059,213.208 756.596,223.684 761.387,223.684 764.924,213.208 768.41,223.684 
			773.93,223.684 		"/>
		<rect x="772.295" y="229.434" fill="#FFFFFF" width="2.537" height="11.547"/>
		<g>
			<path fill="#FFFFFF" d="M786.75,216.908c-1.137,1.377-2.291,2.295-4.268,2.295c-2.644,0-4.509-2.206-4.509-5.043v-0.062
				c0-2.748,1.865-4.99,4.509-4.99c1.809,0,3.047,0.865,4.129,2.217l3.94-3.047c-1.676-2.325-4.153-3.945-8.012-3.945
				c-5.725,0-9.965,4.32-9.965,9.828v0.05c0,5.64,4.346,9.769,9.744,9.769c4.18,0,6.588-1.799,8.368-4.264L786.75,216.908z"/>
		</g>
		<path fill="#FFFFFF" d="M737.369,216.239l2.014-5.841l1.986,5.841H737.369z M737.047,204.654l-7.033,19.029h4.902l1.197-3.373
			h6.672l1.098,3.373h4.947l-7.033-19.029H737.047z"/>
		<polygon fill="#FFFFFF" points="803.475,236.295 808.918,236.295 808.918,234.037 803.475,234.037 803.475,231.693 
			809.66,231.693 809.66,229.434 800.953,229.434 800.953,240.979 809.74,240.979 809.74,238.721 803.475,238.721 		"/>
		<polygon fill="#FFFFFF" points="831.352,236.544 825.941,229.434 823.6,229.434 823.6,240.98 826.107,240.98 826.107,233.641 
			831.697,240.98 833.857,240.98 833.857,229.434 831.352,229.434 		"/>
		<path fill="#FFFFFF" d="M840.035,236.148l1.531-3.746l1.532,3.746H840.035z M840.428,229.355l-4.944,11.625h2.588l1.057-2.59
			h4.881l1.058,2.59h2.653l-4.946-11.625H840.428z"/>
		<g>
			<path fill="#FFFFFF" d="M818.898,233.409c0,0.976-0.709,1.635-1.945,1.635h-2.572v-3.315h2.521c1.235,0,1.998,0.562,1.998,1.648
				L818.898,233.409L818.898,233.409z M821.473,233.277v-0.032c0-1.088-0.348-1.996-0.991-2.638
				c-0.761-0.758-1.896-1.172-3.365-1.172h-5.277v11.545h2.543v-3.694h1.994l2.474,3.694h2.971l-2.82-4.123
				C820.467,236.312,821.473,235.143,821.473,233.277"/>
		</g>
		<polygon fill="#FFFFFF" points="847.025,231.777 850.539,231.777 850.539,240.98 853.078,240.98 853.078,231.777 856.594,231.777 
			856.594,229.434 847.025,229.434 		"/>
	</g>
</g>
</svg>
